OpenAirWall.ufo
<glyph name="exclam" format="2">
  <advance width="274"/>
  <unicode hex="0021"/>
  <outline>
    <contour>
      <point x="23" y="485" type="line"/>
      <point x="23" y="487" type="line"/>
      <point x="23" y="626" type="line" smooth="yes"/>
      <point x="23" y="649"/>
      <point x="41" y="668"/>
      <point x="64" y="668" type="curve" smooth="yes"/>
      <point x="160" y="668" type="line" smooth="yes"/>
      <point x="183" y="668"/>
      <point x="201" y="649"/>
      <point x="201" y="626" type="curve" smooth="yes"/>
      <point x="201" y="487" type="line"/>
      <point x="201" y="485" type="line"/>
      <point x="179" y="153" type="line" smooth="yes"/>
      <point x="178" y="143"/>
      <point x="174" y="134"/>
      <point x="168" y="127" type="curve"/>
      <point x="185" y="122"/>
      <point x="198" y="107"/>
      <point x="198" y="88" type="curve" smooth="yes"/>
      <point x="198" y="0" type="line" smooth="yes"/>
      <point x="198" y="-23"/>
      <point x="179" y="-42"/>
      <point x="156" y="-42" type="curve" smooth="yes"/>
      <point x="68" y="-42" type="line" smooth="yes"/>
      <point x="45" y="-42"/>
      <point x="26" y="-23"/>
      <point x="26" y="0" type="curve" smooth="yes"/>
      <point x="26" y="88" type="line" smooth="yes"/>
      <point x="26" y="107"/>
      <point x="39" y="123"/>
      <point x="57" y="128" type="curve"/>
      <point x="51" y="135"/>
      <point x="47" y="143"/>
      <point x="46" y="153" type="curve" smooth="yes"/>
    </contour>
  </outline>
</glyph>
<glyph name="quotedbl" format="2">
  <advance width="432"/>
  <unicode hex="0022"/>
  <outline>
    <contour>
      <point x="23" y="516" type="line"/>
      <point x="23" y="524" type="line"/>
      <point x="23" y="626" type="line" smooth="yes"/>
      <point x="23" y="649"/>
      <point x="41" y="668"/>
      <point x="64" y="668" type="curve" smooth="yes"/>
      <point x="152" y="668" type="line" smooth="yes"/>
      <point x="162" y="668"/>
      <point x="172" y="664"/>
      <point x="179" y="658" type="curve"/>
      <point x="186" y="664"/>
      <point x="196" y="668"/>
      <point x="206" y="668" type="curve" smooth="yes"/>
      <point x="294" y="668" type="line" smooth="yes"/>
      <point x="317" y="668"/>
      <point x="335" y="650"/>
      <point x="335" y="627" type="curve" smooth="yes"/>
      <point x="335" y="626" type="line"/>
      <point x="335" y="524" type="line"/>
      <point x="335" y="517" type="line"/>
      <point x="314" y="398" type="line" smooth="yes"/>
      <point x="311" y="378"/>
      <point x="293" y="363"/>
      <point x="273" y="363" type="curve" smooth="yes"/>
      <point x="227" y="363" type="line" smooth="yes"/>
      <point x="207" y="363"/>
      <point x="190" y="377"/>
      <point x="186" y="397" type="curve" smooth="yes"/>
      <point x="180" y="434" type="line"/>
      <point x="174" y="398" type="line" smooth="yes"/>
      <point x="171" y="378"/>
      <point x="153" y="363"/>
      <point x="133" y="363" type="curve" smooth="yes"/>
      <point x="86" y="363" type="line" smooth="yes"/>
      <point x="66" y="363"/>
      <point x="49" y="377"/>
      <point x="45" y="397" type="curve" smooth="yes"/>
    </contour>
  </outline>
</glyph>
<glyph name="numbersign" format="2">
  <advance width="638"/>
  <unicode hex="0023"/>
  <outline>
    <contour>
      <point x="23" y="171" type="curve" smooth="yes"/>
      <point x="23" y="235" type="line" smooth="yes"/>
      <point x="23" y="258"/>
      <point x="42" y="277"/>
      <point x="65" y="277" type="curve" smooth="yes"/>
      <point x="116" y="277" type="line"/>
      <point x="131" y="348" type="line"/>
      <point x="65" y="348" type="line" smooth="yes"/>
      <point x="42" y="348"/>
      <point x="23" y="367"/>
      <point x="23" y="390" type="curve" smooth="yes"/>
      <point x="23" y="454" type="line" smooth="yes"/>
      <point x="23" y="477"/>
      <point x="42" y="495"/>
      <point x="65" y="495" type="curve" smooth="yes"/>
      <point x="161" y="495" type="line"/>
      <point x="191" y="645" type="line" smooth="yes"/>
      <point x="195" y="664"/>
      <point x="212" y="679"/>
      <point x="232" y="679" type="curve" smooth="yes"/>
      <point x="296" y="679" type="line" smooth="yes"/>
      <point x="309" y="679"/>
      <point x="320" y="673"/>
      <point x="328" y="663" type="curve" smooth="yes"/>
      <point x="334" y="655"/>
      <point x="338" y="647"/>
      <point x="338" y="637" type="curve" smooth="yes"/>
      <point x="338" y="634"/>
      <point x="338" y="632"/>
      <point x="337" y="629" type="curve" smooth="yes"/>
      <point x="310" y="495" type="line"/>
      <point x="359" y="495" type="line"/>
      <point x="390" y="645" type="line" smooth="yes"/>
      <point x="394" y="664"/>
      <point x="410" y="679"/>
      <point x="430" y="679" type="curve" smooth="yes"/>
      <point x="495" y="679" type="line" smooth="yes"/>
      <point x="507" y="679"/>
      <point x="519" y="673"/>
      <point x="527" y="663" type="curve" smooth="yes"/>
      <point x="533" y="655"/>
      <point x="537" y="647"/>
      <point x="537" y="637" type="curve" smooth="yes"/>
      <point x="537" y="634"/>
      <point x="537" y="632"/>
      <point x="536" y="629" type="curve" smooth="yes"/>
      <point x="509" y="495" type="line"/>
      <point x="532" y="495" type="line" smooth="yes"/>
      <point x="555" y="495"/>
      <point x="573" y="477"/>
      <point x="573" y="454" type="curve" smooth="yes"/>
      <point x="573" y="390" type="line" smooth="yes"/>
      <point x="573" y="367"/>
      <point x="555" y="348"/>
      <point x="532" y="348" type="curve" smooth="yes"/>
      <point x="479" y="348" type="line"/>
      <point x="464" y="277" type="line"/>
      <point x="532" y="277" type="line" smooth="yes"/>
      <point x="555" y="277"/>
      <point x="573" y="258"/>
      <point x="573" y="235" type="curve" smooth="yes"/>
      <point x="573" y="171" type="line" smooth="yes"/>
      <point x="573" y="148"/>
      <point x="555" y="130"/>
      <point x="532" y="130" type="curve" smooth="yes"/>
      <point x="434" y="130" type="line"/>
      <point x="404" y="-19" type="line" smooth="yes"/>
      <point x="400" y="-38"/>
      <point x="383" y="-52"/>
      <point x="363" y="-52" type="curve" smooth="yes"/>
      <point x="299" y="-52" type="line" smooth="yes"/>
      <point x="287" y="-52"/>
      <point x="275" y="-47"/>
      <point x="267" y="-37" type="curve" smooth="yes"/>
      <point x="261" y="-29"/>
      <point x="257" y="-21"/>
      <point x="257" y="-11" type="curve" smooth="yes"/>
      <point x="257" y="-8"/>
      <point x="257" y="-5"/>
      <point x="258" y="-2" type="curve" smooth="yes"/>
      <point x="285" y="130" type="line"/>
      <point x="235" y="130" type="line"/>
      <point x="205" y="-19" type="line" smooth="yes"/>
      <point x="201" y="-38"/>
      <point x="184" y="-52"/>
      <point x="164" y="-52" type="curve" smooth="yes"/>
      <point x="100" y="-52" type="line" smooth="yes"/>
      <point x="87" y="-52"/>
      <point x="76" y="-47"/>
      <point x="68" y="-37" type="curve" smooth="yes"/>
      <point x="62" y="-29"/>
      <point x="59" y="-21"/>
      <point x="59" y="-11" type="curve" smooth="yes"/>
      <point x="59" y="-8"/>
      <point x="58" y="-5"/>
      <point x="59" y="-2" type="curve" smooth="yes"/>
      <point x="86" y="130" type="line"/>
      <point x="65" y="130" type="line" smooth="yes"/>
      <point x="42" y="130"/>
      <point x="23" y="148"/>
    </contour>
    <contour>
      <point x="265" y="277" type="line"/>
      <point x="314" y="277" type="line"/>
      <point x="329" y="348" type="line"/>
      <point x="280" y="348" type="line"/>
    </contour>
  </outline>
</glyph>
<glyph name="dollar" format="2">
  <advance width="583"/>
  <unicode hex="0024"/>
  <outline>
    <contour>
      <point x="13" y="174" type="curve" smooth="yes"/>
      <point x="13" y="194"/>
      <point x="27" y="209"/>
      <point x="47" y="213" type="curve" smooth="yes"/>
      <point x="124" y="229" type="line" smooth="yes"/>
      <point x="127" y="229"/>
      <point x="129" y="230"/>
      <point x="132" y="230" type="curve" smooth="yes"/>
      <point x="141" y="230"/>
      <point x="149" y="227"/>
      <point x="156" y="222" type="curve" smooth="yes"/>
      <point x="165" y="215"/>
      <point x="172" y="205"/>
      <point x="174" y="194" type="curve" smooth="yes"/>
      <point x="179" y="162"/>
      <point x="184" y="138"/>
      <point x="196" y="123" type="curve" smooth="yes"/>
      <point x="197" y="122"/>
      <point x="198" y="120"/>
      <point x="199" y="119" type="curve"/>
      <point x="199" y="264" type="line"/>
      <point x="174" y="272"/>
      <point x="150" y="283"/>
      <point x="124" y="297" type="curve" smooth="yes"/>
      <point x="92" y="315"/>
      <point x="68" y="339"/>
      <point x="51" y="370" type="curve" smooth="yes"/>
      <point x="35" y="400"/>
      <point x="26" y="435"/>
      <point x="26" y="473" type="curve" smooth="yes"/>
      <point x="26" y="541"/>
      <point x="49" y="595"/>
      <point x="97" y="637" type="curve" smooth="yes"/>
      <point x="122" y="659"/>
      <point x="156" y="674"/>
      <point x="199" y="683" type="curve"/>
      <point x="199" y="684" type="line" smooth="yes"/>
      <point x="199" y="707"/>
      <point x="218" y="726"/>
      <point x="241" y="726" type="curve" smooth="yes"/>
      <point x="286" y="726" type="line" smooth="yes"/>
      <point x="309" y="726"/>
      <point x="328" y="708"/>
      <point x="328" y="685" type="curve" smooth="yes"/>
      <point x="328" y="683" type="line"/>
      <point x="365" y="675"/>
      <point x="395" y="660"/>
      <point x="419" y="640" type="curve" smooth="yes"/>
      <point x="460" y="606"/>
      <point x="487" y="559"/>
      <point x="495" y="499" type="curve"/>
      <point x="495" y="493" type="line" smooth="yes"/>
      <point x="495" y="473"/>
      <point x="481" y="455"/>
      <point x="460" y="452" type="curve" smooth="yes"/>
      <point x="380" y="439" type="line"/>
      <point x="374" y="439" type="line" smooth="yes"/>
      <point x="354" y="439"/>
      <point x="336" y="454"/>
      <point x="333" y="475" type="curve" smooth="yes"/>
      <point x="332" y="483"/>
      <point x="330" y="490"/>
      <point x="328" y="497" type="curve"/>
      <point x="328" y="393" type="line"/>
      <point x="353" y="386"/>
      <point x="371" y="380"/>
      <point x="381" y="376" type="curve" smooth="yes"/>
      <point x="410" y="363"/>
      <point x="433" y="347"/>
      <point x="451" y="329" type="curve" smooth="yes"/>
      <point x="470" y="310"/>
      <point x="485" y="287"/>
      <point x="495" y="261" type="curve" smooth="yes"/>
      <point x="505" y="236"/>
      <point x="510" y="208"/>
      <point x="510" y="179" type="curve" smooth="yes"/>
      <point x="510" y="177" type="line" smooth="yes"/>
      <point x="510" y="113"/>
      <point x="489" y="59"/>
      <point x="448" y="16" type="curve" smooth="yes"/>
      <point x="415" y="-18"/>
      <point x="376" y="-40"/>
      <point x="328" y="-49" type="curve"/>
      <point x="328" y="-90" type="line" smooth="yes"/>
      <point x="328" y="-113"/>
      <point x="309" y="-132"/>
      <point x="286" y="-132" type="curve" smooth="yes"/>
      <point x="241" y="-132" type="line" smooth="yes"/>
      <point x="218" y="-132"/>
      <point x="199" y="-113"/>
      <point x="199" y="-90" type="curve" smooth="yes"/>
      <point x="199" y="-49" type="line"/>
      <point x="171" y="-43"/>
      <point x="148" y="-34"/>
      <point x="128" y="-24" type="curve" smooth="yes"/>
      <point x="98" y="-8"/>
      <point x="72" y="15"/>
      <point x="50" y="50" type="curve" smooth="yes"/>
      <point x="30" y="82"/>
      <point x="13" y="126"/>
    </contour>
    <contour>
      <point x="186" y="479" type="curve" smooth="yes"/>
      <point x="186" y="463"/>
      <point x="190" y="449"/>
      <point x="199" y="439" type="curve"/>
      <point x="199" y="517" type="line"/>
      <point x="190" y="506"/>
      <point x="186" y="493"/>
    </contour>
    <contour>
      <point x="328" y="117" type="line"/>
      <point x="329" y="118" type="line" smooth="yes"/>
      <point x="342" y="133"/>
      <point x="348" y="151"/>
      <point x="348" y="173" type="curve" smooth="yes"/>
      <point x="348" y="190"/>
      <point x="345" y="203"/>
      <point x="337" y="213" type="curve" smooth="yes"/>
      <point x="335" y="216"/>
      <point x="331" y="219"/>
      <point x="328" y="222" type="curve"/>
    </contour>
  </outline>
</glyph>
<glyph name="percent" format="2">
  <advance width="839"/>
  <unicode hex="0025"/>
  <outline>
    <contour>
      <point x="9" y="476" type="curve" smooth="yes"/>
      <point x="9" y="530"/>
      <point x="24" y="576"/>
      <point x="51" y="614" type="curve" smooth="yes"/>
      <point x="81" y="656"/>
      <point x="124" y="679"/>
      <point x="182" y="679" type="curve" smooth="yes"/>
      <point x="234" y="679"/>
      <point x="277" y="660"/>
      <point x="311" y="623" type="curve" smooth="yes"/>
      <point x="343" y="588"/>
      <point x="360" y="538"/>
      <point x="360" y="471" type="curve" smooth="yes"/>
      <point x="360" y="468" type="line" smooth="yes"/>
      <point x="360" y="428"/>
      <point x="353" y="395"/>
      <point x="340" y="367" type="curve"/>
      <point x="491" y="656" type="line" smooth="yes"/>
      <point x="498" y="670"/>
      <point x="512" y="679"/>
      <point x="528" y="679" type="curve" smooth="yes"/>
      <point x="590" y="679" type="line" smooth="yes"/>
      <point x="605" y="679"/>
      <point x="618" y="671"/>
      <point x="626" y="659" type="curve" smooth="yes"/>
      <point x="630" y="652"/>
      <point x="632" y="644"/>
      <point x="632" y="637" type="curve" smooth="yes"/>
      <point x="632" y="631"/>
      <point x="630" y="624"/>
      <point x="627" y="618" type="curve" smooth="yes"/>
      <point x="456" y="286" type="line"/>
      <point x="486" y="328"/>
      <point x="530" y="350"/>
      <point x="588" y="350" type="curve" smooth="yes"/>
      <point x="640" y="350"/>
      <point x="682" y="331"/>
      <point x="716" y="294" type="curve" smooth="yes"/>
      <point x="748" y="259"/>
      <point x="766" y="209"/>
      <point x="766" y="142" type="curve" smooth="yes"/>
      <point x="766" y="77"/>
      <point x="748" y="27"/>
      <point x="716" y="-8" type="curve" smooth="yes"/>
      <point x="682" y="-46"/>
      <point x="639" y="-65"/>
      <point x="588" y="-65" type="curve" smooth="yes"/>
      <point x="538" y="-65"/>
      <point x="497" y="-46"/>
      <point x="463" y="-8" type="curve" smooth="yes"/>
      <point x="432" y="27"/>
      <point x="414" y="78"/>
      <point x="414" y="147" type="curve" smooth="yes"/>
      <point x="414" y="179"/>
      <point x="419" y="208"/>
      <point x="429" y="234" type="curve"/>
      <point x="286" y="-42" type="line" smooth="yes"/>
      <point x="279" y="-56"/>
      <point x="265" y="-65"/>
      <point x="249" y="-65" type="curve" smooth="yes"/>
      <point x="185" y="-65" type="line" smooth="yes"/>
      <point x="170" y="-65"/>
      <point x="157" y="-57"/>
      <point x="149" y="-45" type="curve" smooth="yes"/>
      <point x="145" y="-38"/>
      <point x="143" y="-31"/>
      <point x="143" y="-23" type="curve" smooth="yes"/>
      <point x="143" y="-16"/>
      <point x="145" y="-10"/>
      <point x="148" y="-4" type="curve" smooth="yes"/>
      <point x="331" y="349" type="line"/>
      <point x="325" y="339"/>
      <point x="318" y="329"/>
      <point x="310" y="321" type="curve" smooth="yes"/>
      <point x="276" y="283"/>
      <point x="233" y="264"/>
      <point x="183" y="264" type="curve" smooth="yes"/>
      <point x="133" y="264"/>
      <point x="91" y="283"/>
      <point x="58" y="320" type="curve" smooth="yes"/>
      <point x="27" y="354"/>
      <point x="9" y="406"/>
    </contour>
    <contour>
      <point x="160" y="468" type="curve" smooth="yes"/>
      <point x="160" y="451"/>
      <point x="161" y="438"/>
      <point x="163" y="426" type="curve" smooth="yes"/>
      <point x="165" y="419"/>
      <point x="167" y="413"/>
      <point x="170" y="409" type="curve" smooth="yes"/>
      <point x="174" y="404"/>
      <point x="179" y="401"/>
      <point x="185" y="401" type="curve" smooth="yes"/>
      <point x="191" y="401"/>
      <point x="196" y="404"/>
      <point x="200" y="409" type="curve" smooth="yes"/>
      <point x="209" y="421"/>
      <point x="210" y="443"/>
      <point x="210" y="474" type="curve" smooth="yes"/>
      <point x="210" y="502"/>
      <point x="209" y="523"/>
      <point x="200" y="534" type="curve" smooth="yes"/>
      <point x="196" y="539"/>
      <point x="191" y="542"/>
      <point x="185" y="542" type="curve" smooth="yes"/>
      <point x="179" y="542"/>
      <point x="174" y="539"/>
      <point x="170" y="534" type="curve" smooth="yes"/>
      <point x="167" y="530"/>
      <point x="165" y="525"/>
      <point x="163" y="519" type="curve" smooth="yes"/>
      <point x="160" y="506"/>
      <point x="160" y="489"/>
    </contour>
    <contour>
      <point x="565" y="139" type="curve" smooth="yes"/>
      <point x="565" y="123"/>
      <point x="566" y="109"/>
      <point x="568" y="97" type="curve" smooth="yes"/>
      <point x="570" y="90"/>
      <point x="572" y="84"/>
      <point x="575" y="80" type="curve" smooth="yes"/>
      <point x="579" y="75"/>
      <point x="584" y="72"/>
      <point x="590" y="72" type="curve" smooth="yes"/>
      <point x="596" y="72"/>
      <point x="601" y="75"/>
      <point x="605" y="80" type="curve" smooth="yes"/>
      <point x="614" y="92"/>
      <point x="615" y="114"/>
      <point x="615" y="145" type="curve" smooth="yes"/>
      <point x="615" y="173"/>
      <point x="614" y="194"/>
      <point x="605" y="205" type="curve" smooth="yes"/>
      <point x="601" y="210"/>
      <point x="596" y="213"/>
      <point x="590" y="213" type="curve" smooth="yes"/>
      <point x="584" y="213"/>
      <point x="579" y="210"/>
      <point x="575" y="205" type="curve" smooth="yes"/>
      <point x="572" y="201"/>
      <point x="570" y="196"/>
      <point x="568" y="190" type="curve" smooth="yes"/>
      <point x="565" y="177"/>
      <point x="565" y="160"/>
    </contour>
  </outline>
</glyph>
<glyph name="ampersand" format="2">
  <advance width="693"/>
  <unicode hex="0026"/>
  <outline>
    <contour>
      <point x="11" y="173" type="curve" smooth="yes"/>
      <point x="11" y="221"/>
      <point x="27" y="265"/>
      <point x="58" y="304" type="curve" smooth="yes"/>
      <point x="78" y="329"/>
      <point x="104" y="351"/>
      <point x="138" y="372" type="curve"/>
      <point x="124" y="391"/>
      <point x="114" y="407"/>
      <point x="108" y="421" type="curve" smooth="yes"/>
      <point x="96" y="447"/>
      <point x="90" y="473"/>
      <point x="90" y="497" type="curve" smooth="yes"/>
      <point x="90" y="546"/>
      <point x="108" y="590"/>
      <point x="147" y="626" type="curve" smooth="yes"/>
      <point x="184" y="661"/>
      <point x="231" y="679"/>
      <point x="287" y="679" type="curve" smooth="yes"/>
      <point x="342" y="679"/>
      <point x="386" y="661"/>
      <point x="421" y="628" type="curve" smooth="yes"/>
      <point x="457" y="593"/>
      <point x="474" y="551"/>
      <point x="474" y="503" type="curve" smooth="yes"/>
      <point x="474" y="442"/>
      <point x="443" y="387"/>
      <point x="376" y="340" type="curve"/>
      <point x="413" y="292" type="line"/>
      <point x="416" y="304" type="line" smooth="yes"/>
      <point x="420" y="324"/>
      <point x="437" y="336"/>
      <point x="456" y="336" type="curve" smooth="yes"/>
      <point x="459" y="336"/>
      <point x="462" y="337"/>
      <point x="465" y="336" type="curve" smooth="yes"/>
      <point x="545" y="320" type="line" smooth="yes"/>
      <point x="556" y="318"/>
      <point x="566" y="310"/>
      <point x="572" y="300" type="curve" smooth="yes"/>
      <point x="576" y="293"/>
      <point x="578" y="286"/>
      <point x="578" y="278" type="curve" smooth="yes"/>
      <point x="578" y="275"/>
      <point x="578" y="271"/>
      <point x="577" y="268" type="curve" smooth="yes"/>
      <point x="565" y="221"/>
      <point x="549" y="180"/>
      <point x="531" y="146" type="curve"/>
      <point x="553" y="121"/>
      <point x="577" y="100"/>
      <point x="603" y="82" type="curve" smooth="yes"/>
      <point x="613" y="75"/>
      <point x="619" y="64"/>
      <point x="620" y="52" type="curve" smooth="yes"/>
      <point x="620" y="46" type="line" smooth="yes"/>
      <point x="620" y="36"/>
      <point x="617" y="28"/>
      <point x="611" y="20" type="curve" smooth="yes"/>
      <point x="559" y="-41" type="line" smooth="yes"/>
      <point x="551" y="-51"/>
      <point x="539" y="-56"/>
      <point x="527" y="-56" type="curve" smooth="yes"/>
      <point x="519" y="-56"/>
      <point x="511" y="-56"/>
      <point x="504" y="-52" type="curve" smooth="yes"/>
      <point x="479" y="-36"/>
      <point x="455" y="-13"/>
      <point x="429" y="14" type="curve"/>
      <point x="409" y="-3"/>
      <point x="388" y="-17"/>
      <point x="366" y="-27" type="curve" smooth="yes"/>
      <point x="331" y="-44"/>
      <point x="292" y="-52"/>
      <point x="251" y="-52" type="curve" smooth="yes"/>
      <point x="174" y="-52"/>
      <point x="112" y="-25"/>
      <point x="67" y="27" type="curve" smooth="yes"/>
      <point x="30" y="70"/>
      <point x="11" y="119"/>
    </contour>
    <contour>
      <point x="177" y="177" type="curve" smooth="yes"/>
      <point x="177" y="159"/>
      <point x="185" y="142"/>
      <point x="199" y="123" type="curve" smooth="yes"/>
      <point x="211" y="106"/>
      <point x="230" y="99"/>
      <point x="252" y="99" type="curve" smooth="yes"/>
      <point x="268" y="99"/>
      <point x="285" y="105"/>
      <point x="302" y="115" type="curve" smooth="yes"/>
      <point x="312" y="121"/>
      <point x="321" y="127"/>
      <point x="329" y="135" type="curve"/>
      <point x="233" y="254" type="line"/>
      <point x="214" y="241"/>
      <point x="200" y="229"/>
      <point x="192" y="217" type="curve" smooth="yes"/>
      <point x="183" y="204"/>
      <point x="177" y="190"/>
    </contour>
    <contour>
      <point x="252" y="505" type="curve" smooth="yes"/>
      <point x="252" y="501"/>
      <point x="254" y="497"/>
      <point x="256" y="492" type="curve" smooth="yes"/>
      <point x="260" y="484"/>
      <point x="265" y="476"/>
      <point x="272" y="467" type="curve" smooth="yes"/>
      <point x="283" y="455" type="line"/>
      <point x="293" y="462"/>
      <point x="301" y="469"/>
      <point x="305" y="475" type="curve" smooth="yes"/>
      <point x="310" y="483"/>
      <point x="312" y="491"/>
      <point x="312" y="501" type="curve" smooth="yes"/>
      <point x="312" y="510"/>
      <point x="310" y="518"/>
      <point x="304" y="524" type="curve" smooth="yes"/>
      <point x="298" y="530"/>
      <point x="291" y="532"/>
      <point x="283" y="532" type="curve" smooth="yes"/>
      <point x="274" y="532"/>
      <point x="266" y="530"/>
      <point x="260" y="524" type="curve" smooth="yes"/>
      <point x="255" y="519"/>
      <point x="252" y="513"/>
    </contour>
  </outline>
</glyph>
<glyph name="quotesingle" format="2">
  <advance width="287"/>
  <unicode hex="0027"/>
  <outline>
    <contour>
      <point x="23" y="522" type="curve" smooth="yes"/>
      <point x="23" y="626" type="line" smooth="yes"/>
      <point x="23" y="649"/>
      <point x="42" y="668"/>
      <point x="65" y="668" type="curve" smooth="yes"/>
      <point x="152" y="668" type="line" smooth="yes"/>
      <point x="175" y="668"/>
      <point x="194" y="650"/>
      <point x="194" y="627" type="curve" smooth="yes"/>
      <point x="194" y="626" type="line"/>
      <point x="194" y="522" type="line"/>
      <point x="194" y="521" type="line" smooth="yes"/>
      <point x="194" y="519"/>
      <point x="193" y="516"/>
      <point x="193" y="514" type="curve" smooth="yes"/>
      <point x="173" y="397" type="line" smooth="yes"/>
      <point x="170" y="377"/>
      <point x="152" y="363"/>
      <point x="132" y="363" type="curve" smooth="yes"/>
      <point x="84" y="363" type="line" smooth="yes"/>
      <point x="64" y="363"/>
      <point x="46" y="378"/>
      <point x="43" y="398" type="curve" smooth="yes"/>
      <point x="24" y="515" type="line" smooth="yes"/>
      <point x="24" y="517"/>
      <point x="23" y="520"/>
    </contour>
  </outline>
</glyph>
<glyph name="parenleft" format="2">
  <advance width="356"/>
  <unicode hex="0028"/>
  <outline>
    <contour>
      <point x="9" y="295" type="curve" smooth="yes"/>
      <point x="9" y="368"/>
      <point x="20" y="437"/>
      <point x="43" y="504" type="curve" smooth="yes"/>
      <point x="70" y="580"/>
      <point x="113" y="655"/>
      <point x="169" y="730" type="curve" smooth="yes"/>
      <point x="177" y="741"/>
      <point x="190" y="747"/>
      <point x="203" y="747" type="curve" smooth="yes"/>
      <point x="258" y="747" type="line" smooth="yes"/>
      <point x="273" y="747"/>
      <point x="287" y="739"/>
      <point x="294" y="726" type="curve" smooth="yes"/>
      <point x="298" y="720"/>
      <point x="300" y="712"/>
      <point x="300" y="705" type="curve" smooth="yes"/>
      <point x="300" y="698"/>
      <point x="298" y="690"/>
      <point x="294" y="684" type="curve" smooth="yes"/>
      <point x="261" y="627"/>
      <point x="239" y="586"/>
      <point x="228" y="561" type="curve" smooth="yes"/>
      <point x="212" y="524"/>
      <point x="198" y="486"/>
      <point x="189" y="446" type="curve" smooth="yes"/>
      <point x="177" y="396"/>
      <point x="172" y="345"/>
      <point x="172" y="294" type="curve" smooth="yes"/>
      <point x="172" y="164"/>
      <point x="212" y="35"/>
      <point x="293" y="-94" type="curve" smooth="yes"/>
      <point x="297" y="-101"/>
      <point x="300" y="-108"/>
      <point x="300" y="-116" type="curve" smooth="yes"/>
      <point x="300" y="-123"/>
      <point x="297" y="-130"/>
      <point x="294" y="-136" type="curve" smooth="yes"/>
      <point x="287" y="-149"/>
      <point x="273" y="-158"/>
      <point x="258" y="-158" type="curve" smooth="yes"/>
      <point x="203" y="-158" type="line" smooth="yes"/>
      <point x="190" y="-158"/>
      <point x="178" y="-152"/>
      <point x="170" y="-142" type="curve" smooth="yes"/>
      <point x="125" y="-86"/>
      <point x="88" y="-20"/>
      <point x="57" y="56" type="curve" smooth="yes"/>
      <point x="26" y="133"/>
      <point x="9" y="213"/>
    </contour>
  </outline>
</glyph>
<glyph name="parenright" format="2">
  <advance width="356"/>
  <unicode hex="0029"/>
  <outline>
    <contour>
      <point x="9" y="-116" type="curve" smooth="yes"/>
      <point x="9" y="-108"/>
      <point x="12" y="-101"/>
      <point x="16" y="-94" type="curve" smooth="yes"/>
      <point x="97" y="35"/>
      <point x="137" y="164"/>
      <point x="137" y="294" type="curve" smooth="yes"/>
      <point x="137" y="344"/>
      <point x="132" y="394"/>
      <point x="120" y="444" type="curve"/>
      <point x="120" y="445" type="line"/>
      <point x="111" y="485"/>
      <point x="98" y="523"/>
      <point x="82" y="560" type="curve" smooth="yes"/>
      <point x="71" y="585"/>
      <point x="49" y="626"/>
      <point x="15" y="684" type="curve" smooth="yes"/>
      <point x="11" y="690"/>
      <point x="9" y="698"/>
      <point x="9" y="705" type="curve" smooth="yes"/>
      <point x="9" y="712"/>
      <point x="11" y="720"/>
      <point x="15" y="726" type="curve" smooth="yes"/>
      <point x="22" y="739"/>
      <point x="36" y="747"/>
      <point x="51" y="747" type="curve" smooth="yes"/>
      <point x="106" y="747" type="line" smooth="yes"/>
      <point x="119" y="747"/>
      <point x="132" y="741"/>
      <point x="140" y="730" type="curve" smooth="yes"/>
      <point x="196" y="655"/>
      <point x="237" y="580"/>
      <point x="264" y="504" type="curve" smooth="yes"/>
      <point x="287" y="438"/>
      <point x="300" y="369"/>
      <point x="300" y="297" type="curve" smooth="yes"/>
      <point x="300" y="295" type="line" smooth="yes"/>
      <point x="300" y="213"/>
      <point x="282" y="133"/>
      <point x="250" y="56" type="curve" smooth="yes"/>
      <point x="219" y="-20"/>
      <point x="181" y="-86"/>
      <point x="137" y="-142" type="curve" smooth="yes"/>
      <point x="129" y="-152"/>
      <point x="119" y="-158"/>
      <point x="106" y="-158" type="curve" smooth="yes"/>
      <point x="51" y="-158" type="line" smooth="yes"/>
      <point x="36" y="-158"/>
      <point x="22" y="-149"/>
      <point x="15" y="-136" type="curve" smooth="yes"/>
      <point x="12" y="-130"/>
      <point x="9" y="-123"/>
    </contour>
  </outline>
</glyph>
<glyph name="asterisk" format="2">
  <advance width="448"/>
  <unicode hex="002A"/>
  <outline>
    <contour>
      <point x="9" y="511" type="curve" smooth="yes"/>
      <point x="9" y="515"/>
      <point x="10" y="520"/>
      <point x="11" y="524" type="curve" smooth="yes"/>
      <point x="31" y="585" type="line" smooth="yes"/>
      <point x="34" y="596"/>
      <point x="42" y="604"/>
      <point x="52" y="609" type="curve" smooth="yes"/>
      <point x="58" y="612"/>
      <point x="64" y="614"/>
      <point x="70" y="614" type="curve" smooth="yes"/>
      <point x="75" y="614"/>
      <point x="80" y="613"/>
      <point x="84" y="611" type="curve" smooth="yes"/>
      <point x="97" y="606"/>
      <point x="110" y="602"/>
      <point x="121" y="598" type="curve"/>
      <point x="120" y="615"/>
      <point x="119" y="627"/>
      <point x="119" y="637" type="curve" smooth="yes"/>
      <point x="119" y="648"/>
      <point x="123" y="658"/>
      <point x="131" y="666" type="curve" smooth="yes"/>
      <point x="139" y="674"/>
      <point x="149" y="679"/>
      <point x="160" y="679" type="curve" smooth="yes"/>
      <point x="222" y="679" type="line" smooth="yes"/>
      <point x="233" y="679"/>
      <point x="244" y="674"/>
      <point x="252" y="666" type="curve" smooth="yes"/>
      <point x="260" y="658"/>
      <point x="264" y="648"/>
      <point x="264" y="637" type="curve" smooth="yes"/>
      <point x="264" y="636" type="line" smooth="yes"/>
      <point x="264" y="625"/>
      <point x="263" y="612"/>
      <point x="262" y="598" type="curve"/>
      <point x="274" y="603"/>
      <point x="287" y="608"/>
      <point x="300" y="612" type="curve" smooth="yes"/>
      <point x="304" y="613"/>
      <point x="309" y="614"/>
      <point x="313" y="614" type="curve" smooth="yes"/>
      <point x="319" y="614"/>
      <point x="326" y="612"/>
      <point x="332" y="609" type="curve" smooth="yes"/>
      <point x="342" y="604"/>
      <point x="350" y="596"/>
      <point x="353" y="585" type="curve" smooth="yes"/>
      <point x="373" y="524" type="line" smooth="yes"/>
      <point x="374" y="520"/>
      <point x="375" y="515"/>
      <point x="375" y="511" type="curve" smooth="yes"/>
      <point x="375" y="494"/>
      <point x="363" y="478"/>
      <point x="346" y="472" type="curve" smooth="yes"/>
      <point x="334" y="468"/>
      <point x="321" y="464"/>
      <point x="309" y="461" type="curve"/>
      <point x="316" y="452"/>
      <point x="324" y="443"/>
      <point x="332" y="433" type="curve" smooth="yes"/>
      <point x="338" y="425"/>
      <point x="342" y="417"/>
      <point x="342" y="407" type="curve" smooth="yes"/>
      <point x="342" y="405"/>
      <point x="341" y="403"/>
      <point x="341" y="401" type="curve" smooth="yes"/>
      <point x="339" y="390"/>
      <point x="333" y="380"/>
      <point x="324" y="373" type="curve" smooth="yes"/>
      <point x="273" y="336" type="line" smooth="yes"/>
      <point x="266" y="331"/>
      <point x="257" y="329"/>
      <point x="249" y="329" type="curve" smooth="yes"/>
      <point x="236" y="329"/>
      <point x="223" y="335"/>
      <point x="215" y="346" type="curve" smooth="yes"/>
      <point x="208" y="356"/>
      <point x="200" y="367"/>
      <point x="192" y="380" type="curve"/>
      <point x="184" y="366"/>
      <point x="175" y="355"/>
      <point x="168" y="345" type="curve" smooth="yes"/>
      <point x="160" y="334"/>
      <point x="148" y="329"/>
      <point x="135" y="329" type="curve" smooth="yes"/>
      <point x="127" y="329"/>
      <point x="117" y="332"/>
      <point x="110" y="337" type="curve" smooth="yes"/>
      <point x="60" y="373" type="line" smooth="yes"/>
      <point x="51" y="380"/>
      <point x="45" y="390"/>
      <point x="43" y="401" type="curve" smooth="yes"/>
      <point x="43" y="407" type="line" smooth="yes"/>
      <point x="43" y="417"/>
      <point x="46" y="426"/>
      <point x="52" y="433" type="curve" smooth="yes"/>
      <point x="61" y="444"/>
      <point x="69" y="453"/>
      <point x="76" y="462" type="curve"/>
      <point x="40" y="471" type="line" smooth="yes"/>
      <point x="29" y="474"/>
      <point x="19" y="482"/>
      <point x="14" y="492" type="curve" smooth="yes"/>
      <point x="11" y="498"/>
      <point x="9" y="504"/>
    </contour>
  </outline>
</glyph>
<glyph name="plus" format="2">
  <advance width="580"/>
  <unicode hex="002B"/>
  <outline>
    <contour>
      <point x="36" y="273" type="curve" smooth="yes"/>
      <point x="36" y="345" type="line" smooth="yes"/>
      <point x="36" y="368"/>
      <point x="55" y="386"/>
      <point x="78" y="386" type="curve" smooth="yes"/>
      <point x="207" y="386" type="line"/>
      <point x="207" y="515" type="line" smooth="yes"/>
      <point x="207" y="538"/>
      <point x="225" y="557"/>
      <point x="248" y="557" type="curve" smooth="yes"/>
      <point x="321" y="557" type="line" smooth="yes"/>
      <point x="344" y="557"/>
      <point x="363" y="538"/>
      <point x="363" y="515" type="curve" smooth="yes"/>
      <point x="363" y="386" type="line"/>
      <point x="491" y="386" type="line" smooth="yes"/>
      <point x="514" y="386"/>
      <point x="533" y="368"/>
      <point x="533" y="345" type="curve" smooth="yes"/>
      <point x="533" y="273" type="line" smooth="yes"/>
      <point x="533" y="250"/>
      <point x="514" y="231"/>
      <point x="491" y="231" type="curve" smooth="yes"/>
      <point x="363" y="231" type="line"/>
      <point x="363" y="101" type="line" smooth="yes"/>
      <point x="363" y="78"/>
      <point x="344" y="60"/>
      <point x="321" y="60" type="curve" smooth="yes"/>
      <point x="248" y="60" type="line" smooth="yes"/>
      <point x="225" y="60"/>
      <point x="207" y="78"/>
      <point x="207" y="101" type="curve" smooth="yes"/>
      <point x="207" y="231" type="line"/>
      <point x="78" y="231" type="line" smooth="yes"/>
      <point x="55" y="231"/>
      <point x="36" y="250"/>
    </contour>
  </outline>
</glyph>
<glyph name="comma" format="2">
  <advance width="266"/>
  <unicode hex="002C"/>
  <outline>
    <contour>
      <point x="11" y="-91" type="curve" smooth="yes"/>
      <point x="11" y="-87"/>
      <point x="12" y="-83"/>
      <point x="13" y="-79" type="curve" smooth="yes"/>
      <point x="17" y="-67"/>
      <point x="25" y="-58"/>
      <point x="36" y="-53" type="curve" smooth="yes"/>
      <point x="42" y="-50"/>
      <point x="48" y="-46"/>
      <point x="51" y="-41" type="curve"/>
      <point x="31" y="-38"/>
      <point x="16" y="-21"/>
      <point x="16" y="0" type="curve" smooth="yes"/>
      <point x="16" y="88" type="line" smooth="yes"/>
      <point x="16" y="111"/>
      <point x="35" y="129"/>
      <point x="58" y="129" type="curve" smooth="yes"/>
      <point x="146" y="129" type="line" smooth="yes"/>
      <point x="169" y="129"/>
      <point x="187" y="111"/>
      <point x="187" y="88" type="curve" smooth="yes"/>
      <point x="187" y="0" type="line"/>
      <point x="187" y="-1" type="line" smooth="yes"/>
      <point x="187" y="-41"/>
      <point x="179" y="-74"/>
      <point x="165" y="-99" type="curve" smooth="yes"/>
      <point x="149" y="-126"/>
      <point x="125" y="-147"/>
      <point x="91" y="-162" type="curve" smooth="yes"/>
      <point x="86" y="-164"/>
      <point x="80" y="-166"/>
      <point x="74" y="-166" type="curve" smooth="yes"/>
      <point x="60" y="-166"/>
      <point x="47" y="-159"/>
      <point x="39" y="-147" type="curve" smooth="yes"/>
      <point x="18" y="-114" type="line" smooth="yes"/>
      <point x="14" y="-107"/>
      <point x="11" y="-99"/>
    </contour>
  </outline>
</glyph>
<glyph name="period" format="2">
  <advance width="260"/>
  <unicode hex="002E"/>
  <outline>
    <contour>
      <point x="13" y="0" type="curve" smooth="yes"/>
      <point x="13" y="88" type="line" smooth="yes"/>
      <point x="13" y="111"/>
      <point x="31" y="129"/>
      <point x="54" y="129" type="curve" smooth="yes"/>
      <point x="142" y="129" type="line" smooth="yes"/>
      <point x="165" y="129"/>
      <point x="184" y="111"/>
      <point x="184" y="88" type="curve" smooth="yes"/>
      <point x="184" y="0" type="line" smooth="yes"/>
      <point x="184" y="-23"/>
      <point x="165" y="-42"/>
      <point x="142" y="-42" type="curve" smooth="yes"/>
      <point x="54" y="-42" type="line" smooth="yes"/>
      <point x="31" y="-42"/>
      <point x="13" y="-23"/>
    </contour>
  </outline>
</glyph>
<glyph name="slash" format="2">
  <advance width="400"/>
  <unicode hex="002F"/>
  <outline>
    <contour>
      <point x="10" y="-11" type="curve" smooth="yes"/>
      <point x="10" y="-7"/>
      <point x="11" y="-3"/>
      <point x="12" y="1" type="curve" smooth="yes"/>
      <point x="193" y="648" type="line" smooth="yes"/>
      <point x="198" y="666"/>
      <point x="215" y="679"/>
      <point x="234" y="679" type="curve" smooth="yes"/>
      <point x="295" y="679" type="line" smooth="yes"/>
      <point x="308" y="679"/>
      <point x="320" y="672"/>
      <point x="328" y="662" type="curve" smooth="yes"/>
      <point x="334" y="655"/>
      <point x="337" y="646"/>
      <point x="337" y="637" type="curve" smooth="yes"/>
      <point x="337" y="633"/>
      <point x="336" y="630"/>
      <point x="335" y="626" type="curve" smooth="yes"/>
      <point x="154" y="-22" type="line" smooth="yes"/>
      <point x="149" y="-40"/>
      <point x="133" y="-52"/>
      <point x="114" y="-52" type="curve" smooth="yes"/>
      <point x="52" y="-52" type="line" smooth="yes"/>
      <point x="39" y="-52"/>
      <point x="27" y="-46"/>
      <point x="19" y="-36" type="curve" smooth="yes"/>
      <point x="13" y="-29"/>
      <point x="10" y="-20"/>
    </contour>
  </outline>
</glyph>
<glyph name="zero" format="2">
  <advance width="580"/>
  <unicode hex="0030"/>
  <outline>
    <contour>
      <point x="14" y="309" type="curve" smooth="yes"/>
      <point x="14" y="389"/>
      <point x="23" y="452"/>
      <point x="39" y="501" type="curve" smooth="yes"/>
      <point x="57" y="555"/>
      <point x="84" y="595"/>
      <point x="120" y="624" type="curve" smooth="yes"/>
      <point x="157" y="654"/>
      <point x="204" y="671"/>
      <point x="260" y="671" type="curve" smooth="yes"/>
      <point x="301" y="671"/>
      <point x="337" y="662"/>
      <point x="368" y="645" type="curve" smooth="yes"/>
      <point x="400" y="628"/>
      <point x="425" y="606"/>
      <point x="446" y="574" type="curve" smooth="yes"/>
      <point x="465" y="545"/>
      <point x="479" y="508"/>
      <point x="490" y="467" type="curve" smooth="yes"/>
      <point x="499" y="430"/>
      <point x="505" y="382"/>
      <point x="506" y="321" type="curve" smooth="yes"/>
      <point x="506" y="318" type="line"/>
      <point x="506" y="312" type="line"/>
      <point x="506" y="305" type="line"/>
      <point x="506" y="298" type="line" smooth="yes"/>
      <point x="505" y="224"/>
      <point x="496" y="164"/>
      <point x="481" y="118" type="curve" smooth="yes"/>
      <point x="463" y="64"/>
      <point x="436" y="23"/>
      <point x="400" y="-6" type="curve" smooth="yes"/>
      <point x="363" y="-36"/>
      <point x="317" y="-52"/>
      <point x="260" y="-52" type="curve" smooth="yes"/>
      <point x="186" y="-52"/>
      <point x="127" y="-25"/>
      <point x="85" y="28" type="curve" smooth="yes"/>
      <point x="39" y="86"/>
      <point x="14" y="179"/>
    </contour>
    <contour>
      <point x="176" y="309" type="curve" smooth="yes"/>
      <point x="176" y="253"/>
      <point x="179" y="208"/>
      <point x="186" y="174" type="curve" smooth="yes"/>
      <point x="190" y="154"/>
      <point x="197" y="139"/>
      <point x="205" y="128" type="curve" smooth="yes"/>
      <point x="220" y="107"/>
      <point x="238" y="94"/>
      <point x="260" y="94" type="curve" smooth="yes"/>
      <point x="282" y="94"/>
      <point x="300" y="107"/>
      <point x="315" y="128" type="curve" smooth="yes"/>
      <point x="336" y="158"/>
      <point x="343" y="219"/>
      <point x="343" y="309" type="curve" smooth="yes"/>
      <point x="343" y="400"/>
      <point x="336" y="460"/>
      <point x="315" y="490" type="curve" smooth="yes"/>
      <point x="300" y="511"/>
      <point x="282" y="524"/>
      <point x="259" y="524" type="curve" smooth="yes"/>
      <point x="238" y="524"/>
      <point x="221" y="514"/>
      <point x="208" y="496" type="curve" smooth="yes"/>
      <point x="197" y="481"/>
      <point x="190" y="460"/>
      <point x="185" y="433" type="curve" smooth="yes"/>
      <point x="179" y="400"/>
      <point x="176" y="358"/>
    </contour>
  </outline>
</glyph>
<glyph name="one" format="2">
  <advance width="580"/>
  <unicode hex="0031"/>
  <outline>
    <contour>
      <point x="83" y="397" type="curve" smooth="yes"/>
      <point x="83" y="472" type="line" smooth="yes"/>
      <point x="83" y="488"/>
      <point x="92" y="502"/>
      <point x="107" y="509" type="curve" smooth="yes"/>
      <point x="146" y="527"/>
      <point x="180" y="550"/>
      <point x="209" y="576" type="curve" smooth="yes"/>
      <point x="236" y="601"/>
      <point x="259" y="624"/>
      <point x="270" y="647" type="curve" smooth="yes"/>
      <point x="277" y="661"/>
      <point x="291" y="671"/>
      <point x="307" y="671" type="curve" smooth="yes"/>
      <point x="355" y="671" type="line" smooth="yes"/>
      <point x="378" y="671"/>
      <point x="397" y="652"/>
      <point x="397" y="629" type="curve" smooth="yes"/>
      <point x="397" y="0" type="line" smooth="yes"/>
      <point x="397" y="-23"/>
      <point x="378" y="-42"/>
      <point x="355" y="-42" type="curve" smooth="yes"/>
      <point x="278" y="-42" type="line" smooth="yes"/>
      <point x="255" y="-42"/>
      <point x="237" y="-23"/>
      <point x="237" y="0" type="curve" smooth="yes"/>
      <point x="237" y="407" type="line"/>
      <point x="234" y="405"/>
      <point x="230" y="403"/>
      <point x="227" y="401" type="curve" smooth="yes"/>
      <point x="194" y="382"/>
      <point x="165" y="366"/>
      <point x="139" y="356" type="curve" smooth="yes"/>
      <point x="134" y="354"/>
      <point x="129" y="356"/>
      <point x="124" y="356" type="curve" smooth="yes"/>
      <point x="116" y="356"/>
      <point x="108" y="358"/>
      <point x="101" y="363" type="curve" smooth="yes"/>
      <point x="90" y="371"/>
      <point x="83" y="383"/>
    </contour>
  </outline>
</glyph>
<glyph name="two" format="2">
  <advance width="580"/>
  <unicode hex="0032"/>
  <outline>
    <contour>
      <point x="9" y="-1" type="curve" smooth="yes"/>
      <point x="9" y="4" type="line" smooth="yes"/>
      <point x="9" y="26"/>
      <point x="13" y="48"/>
      <point x="21" y="68" type="curve" smooth="yes"/>
      <point x="33" y="100"/>
      <point x="53" y="133"/>
      <point x="80" y="164" type="curve" smooth="yes"/>
      <point x="104" y="193"/>
      <point x="138" y="226"/>
      <point x="184" y="264" type="curve" smooth="yes"/>
      <point x="248" y="317"/>
      <point x="292" y="358"/>
      <point x="315" y="389" type="curve" smooth="yes"/>
      <point x="333" y="413"/>
      <point x="343" y="436"/>
      <point x="343" y="457" type="curve" smooth="yes"/>
      <point x="343" y="476"/>
      <point x="336" y="491"/>
      <point x="323" y="504" type="curve" smooth="yes"/>
      <point x="309" y="518"/>
      <point x="290" y="524"/>
      <point x="267" y="524" type="curve" smooth="yes"/>
      <point x="242" y="524"/>
      <point x="222" y="517"/>
      <point x="207" y="502" type="curve" smooth="yes"/>
      <point x="192" y="487"/>
      <point x="186" y="466"/>
      <point x="186" y="439" type="curve" smooth="yes"/>
      <point x="186" y="427"/>
      <point x="182" y="417"/>
      <point x="173" y="409" type="curve" smooth="yes"/>
      <point x="165" y="402"/>
      <point x="154" y="398"/>
      <point x="144" y="398" type="curve" smooth="yes"/>
      <point x="140" y="398" type="line"/>
      <point x="61" y="406" type="line" smooth="yes"/>
      <point x="40" y="408"/>
      <point x="24" y="427"/>
      <point x="24" y="448" type="curve" smooth="yes"/>
      <point x="24" y="519"/>
      <point x="59" y="579"/>
      <point x="99" y="614" type="curve" smooth="yes"/>
      <point x="141" y="651"/>
      <point x="198" y="671"/>
      <point x="269" y="671" type="curve" smooth="yes"/>
      <point x="341" y="671"/>
      <point x="398" y="649"/>
      <point x="440" y="609" type="curve" smooth="yes"/>
      <point x="483" y="568"/>
      <point x="505" y="517"/>
      <point x="505" y="456" type="curve" smooth="yes"/>
      <point x="505" y="455" type="line" smooth="yes"/>
      <point x="505" y="424"/>
      <point x="500" y="395"/>
      <point x="487" y="365" type="curve" smooth="yes"/>
      <point x="475" y="337"/>
      <point x="456" y="308"/>
      <point x="429" y="277" type="curve" smooth="yes"/>
      <point x="404" y="249"/>
      <point x="363" y="211"/>
      <point x="306" y="163" type="curve"/>
      <point x="306" y="162" type="line"/>
      <point x="284" y="143"/>
      <point x="265" y="129"/>
      <point x="251" y="116" type="curve"/>
      <point x="465" y="116" type="line" smooth="yes"/>
      <point x="488" y="116"/>
      <point x="506" y="97"/>
      <point x="506" y="74" type="curve" smooth="yes"/>
      <point x="506" y="0" type="line" smooth="yes"/>
      <point x="506" y="-23"/>
      <point x="488" y="-42"/>
      <point x="465" y="-42" type="curve" smooth="yes"/>
      <point x="51" y="-42" type="line" smooth="yes"/>
      <point x="28" y="-42"/>
      <point x="10" y="-23"/>
    </contour>
  </outline>
</glyph>
<glyph name="three" format="2">
  <advance width="580"/>
  <unicode hex="0033"/>
  <outline>
    <contour>
      <point x="13" y="165" type="curve" smooth="yes"/>
      <point x="13" y="186"/>
      <point x="26" y="204"/>
      <point x="47" y="207" type="curve" smooth="yes"/>
      <point x="126" y="217" type="line"/>
      <point x="132" y="217" type="line" smooth="yes"/>
      <point x="152" y="217"/>
      <point x="169" y="204"/>
      <point x="173" y="184" type="curve" smooth="yes"/>
      <point x="180" y="151"/>
      <point x="189" y="126"/>
      <point x="205" y="112" type="curve" smooth="yes"/>
      <point x="219" y="100"/>
      <point x="235" y="94"/>
      <point x="254" y="94" type="curve" smooth="yes"/>
      <point x="278" y="94"/>
      <point x="300" y="103"/>
      <point x="317" y="120" type="curve" smooth="yes"/>
      <point x="334" y="137"/>
      <point x="342" y="158"/>
      <point x="342" y="183" type="curve" smooth="yes"/>
      <point x="342" y="206"/>
      <point x="334" y="226"/>
      <point x="319" y="241" type="curve" smooth="yes"/>
      <point x="304" y="256"/>
      <point x="285" y="263"/>
      <point x="261" y="263" type="curve" smooth="yes"/>
      <point x="249" y="263"/>
      <point x="234" y="260"/>
      <point x="217" y="255" type="curve" smooth="yes"/>
      <point x="213" y="254"/>
      <point x="211" y="255"/>
      <point x="207" y="255" type="curve" smooth="yes"/>
      <point x="197" y="255"/>
      <point x="187" y="258"/>
      <point x="179" y="265" type="curve" smooth="yes"/>
      <point x="170" y="273"/>
      <point x="165" y="285"/>
      <point x="165" y="297" type="curve" smooth="yes"/>
      <point x="165" y="302" type="line"/>
      <point x="174" y="371" type="line" smooth="yes"/>
      <point x="177" y="392"/>
      <point x="194" y="406"/>
      <point x="215" y="406" type="curve" smooth="yes"/>
      <point x="217" y="406"/>
      <point x="218" y="405"/>
      <point x="220" y="405" type="curve" smooth="yes"/>
      <point x="228" y="405" type="line" smooth="yes"/>
      <point x="252" y="405"/>
      <point x="274" y="411"/>
      <point x="293" y="424" type="curve" smooth="yes"/>
      <point x="307" y="433"/>
      <point x="314" y="448"/>
      <point x="314" y="468" type="curve" smooth="yes"/>
      <point x="314" y="484"/>
      <point x="309" y="497"/>
      <point x="298" y="508" type="curve" smooth="yes"/>
      <point x="286" y="519"/>
      <point x="271" y="524"/>
      <point x="253" y="524" type="curve" smooth="yes"/>
      <point x="235" y="524"/>
      <point x="219" y="519"/>
      <point x="207" y="507" type="curve" smooth="yes"/>
      <point x="193" y="494"/>
      <point x="185" y="474"/>
      <point x="181" y="447" type="curve" smooth="yes"/>
      <point x="179" y="436"/>
      <point x="173" y="426"/>
      <point x="164" y="419" type="curve" smooth="yes"/>
      <point x="157" y="414"/>
      <point x="149" y="411"/>
      <point x="140" y="411" type="curve" smooth="yes"/>
      <point x="132" y="411" type="line"/>
      <point x="55" y="426" type="line" smooth="yes"/>
      <point x="44" y="428"/>
      <point x="34" y="434"/>
      <point x="28" y="443" type="curve" smooth="yes"/>
      <point x="23" y="450"/>
      <point x="21" y="459"/>
      <point x="21" y="467" type="curve" smooth="yes"/>
      <point x="21" y="474" type="line"/>
      <point x="32" y="536"/>
      <point x="60" y="584"/>
      <point x="100" y="618" type="curve" smooth="yes"/>
      <point x="141" y="653"/>
      <point x="191" y="671"/>
      <point x="251" y="671" type="curve" smooth="yes"/>
      <point x="292" y="671"/>
      <point x="329" y="662"/>
      <point x="364" y="644" type="curve" smooth="yes"/>
      <point x="400" y="626"/>
      <point x="428" y="600"/>
      <point x="447" y="568" type="curve" smooth="yes"/>
      <point x="466" y="536"/>
      <point x="476" y="502"/>
      <point x="476" y="466" type="curve" smooth="yes"/>
      <point x="476" y="465" type="line" smooth="yes"/>
      <point x="476" y="430"/>
      <point x="466" y="400"/>
      <point x="447" y="371" type="curve" smooth="yes"/>
      <point x="442" y="363"/>
      <point x="436" y="355"/>
      <point x="430" y="348" type="curve"/>
      <point x="444" y="338"/>
      <point x="456" y="327"/>
      <point x="467" y="313" type="curve" smooth="yes"/>
      <point x="492" y="280"/>
      <point x="507" y="237"/>
      <point x="507" y="187" type="curve" smooth="yes"/>
      <point x="507" y="185" type="line" smooth="yes"/>
      <point x="507" y="118"/>
      <point x="483" y="62"/>
      <point x="434" y="16" type="curve" smooth="yes"/>
      <point x="386" y="-29"/>
      <point x="327" y="-53"/>
      <point x="254" y="-53" type="curve" smooth="yes"/>
      <point x="188" y="-53"/>
      <point x="133" y="-32"/>
      <point x="89" y="7" type="curve" smooth="yes"/>
      <point x="47" y="45"/>
      <point x="13" y="101"/>
    </contour>
  </outline>
</glyph>
<glyph name="four" format="2">
  <advance width="580"/>
  <unicode hex="0034"/>
  <outline>
    <contour>
      <point x="9" y="150" type="curve" smooth="yes"/>
      <point x="9" y="220" type="line" smooth="yes"/>
      <point x="9" y="229"/>
      <point x="11" y="237"/>
      <point x="16" y="244" type="curve" smooth="yes"/>
      <point x="302" y="651" type="line" smooth="yes"/>
      <point x="310" y="662"/>
      <point x="322" y="668"/>
      <point x="336" y="668" type="curve" smooth="yes"/>
      <point x="399" y="668" type="line" smooth="yes"/>
      <point x="422" y="668"/>
      <point x="441" y="649"/>
      <point x="441" y="626" type="curve" smooth="yes"/>
      <point x="441" y="262" type="line"/>
      <point x="484" y="262" type="line" smooth="yes"/>
      <point x="507" y="262"/>
      <point x="525" y="243"/>
      <point x="525" y="220" type="curve" smooth="yes"/>
      <point x="525" y="150" type="line" smooth="yes"/>
      <point x="525" y="127"/>
      <point x="507" y="108"/>
      <point x="484" y="108" type="curve" smooth="yes"/>
      <point x="441" y="108" type="line"/>
      <point x="441" y="0" type="line" smooth="yes"/>
      <point x="441" y="-23"/>
      <point x="422" y="-42"/>
      <point x="399" y="-42" type="curve" smooth="yes"/>
      <point x="322" y="-42" type="line" smooth="yes"/>
      <point x="299" y="-42"/>
      <point x="280" y="-23"/>
      <point x="280" y="0" type="curve" smooth="yes"/>
      <point x="280" y="108" type="line"/>
      <point x="50" y="108" type="line" smooth="yes"/>
      <point x="27" y="108"/>
      <point x="9" y="127"/>
    </contour>
    <contour>
      <point x="206" y="262" type="line"/>
      <point x="280" y="262" type="line"/>
      <point x="280" y="370" type="line"/>
    </contour>
  </outline>
</glyph>
<glyph name="five" format="2">
  <advance width="580"/>
  <unicode hex="0035"/>
  <outline>
    <contour>
      <point x="11" y="164" type="curve" smooth="yes"/>
      <point x="11" y="174"/>
      <point x="14" y="183"/>
      <point x="20" y="191" type="curve" smooth="yes"/>
      <point x="27" y="200"/>
      <point x="38" y="205"/>
      <point x="49" y="206" type="curve" smooth="yes"/>
      <point x="130" y="212" type="line" smooth="yes"/>
      <point x="131" y="212"/>
      <point x="132" y="213"/>
      <point x="133" y="213" type="curve" smooth="yes"/>
      <point x="153" y="213"/>
      <point x="171" y="198"/>
      <point x="174" y="177" type="curve" smooth="yes"/>
      <point x="178" y="149"/>
      <point x="187" y="127"/>
      <point x="203" y="113" type="curve" smooth="yes"/>
      <point x="217" y="100"/>
      <point x="234" y="94"/>
      <point x="254" y="94" type="curve" smooth="yes"/>
      <point x="279" y="94"/>
      <point x="300" y="104"/>
      <point x="317" y="123" type="curve" smooth="yes"/>
      <point x="336" y="144"/>
      <point x="344" y="172"/>
      <point x="344" y="206" type="curve" smooth="yes"/>
      <point x="344" y="237"/>
      <point x="337" y="262"/>
      <point x="319" y="280" type="curve" smooth="yes"/>
      <point x="302" y="297"/>
      <point x="279" y="306"/>
      <point x="252" y="306" type="curve" smooth="yes"/>
      <point x="235" y="306"/>
      <point x="220" y="302"/>
      <point x="206" y="294" type="curve" smooth="yes"/>
      <point x="192" y="286"/>
      <point x="182" y="276"/>
      <point x="174" y="264" type="curve" smooth="yes"/>
      <point x="166" y="252"/>
      <point x="152" y="245"/>
      <point x="138" y="245" type="curve" smooth="yes"/>
      <point x="133" y="245" type="line"/>
      <point x="61" y="255" type="line" smooth="yes"/>
      <point x="50" y="256"/>
      <point x="39" y="263"/>
      <point x="32" y="272" type="curve" smooth="yes"/>
      <point x="27" y="279"/>
      <point x="24" y="287"/>
      <point x="24" y="296" type="curve" smooth="yes"/>
      <point x="24" y="299"/>
      <point x="25" y="303"/>
      <point x="25" y="306" type="curve" smooth="yes"/>
      <point x="86" y="626" type="line" smooth="yes"/>
      <point x="90" y="646"/>
      <point x="107" y="659"/>
      <point x="127" y="659" type="curve" smooth="yes"/>
      <point x="438" y="659" type="line" smooth="yes"/>
      <point x="461" y="659"/>
      <point x="480" y="641"/>
      <point x="480" y="618" type="curve" smooth="yes"/>
      <point x="480" y="544" type="line" smooth="yes"/>
      <point x="480" y="521"/>
      <point x="461" y="503"/>
      <point x="438" y="503" type="curve" smooth="yes"/>
      <point x="222" y="503" type="line"/>
      <point x="212" y="449" type="line"/>
      <point x="232" y="454"/>
      <point x="252" y="457"/>
      <point x="273" y="457" type="curve" smooth="yes"/>
      <point x="339" y="457"/>
      <point x="395" y="436"/>
      <point x="441" y="390" type="curve" smooth="yes"/>
      <point x="486" y="345"/>
      <point x="509" y="285"/>
      <point x="509" y="214" type="curve" smooth="yes"/>
      <point x="509" y="211" type="line" smooth="yes"/>
      <point x="509" y="145"/>
      <point x="490" y="87"/>
      <point x="451" y="39" type="curve" smooth="yes"/>
      <point x="403" y="-22"/>
      <point x="337" y="-52"/>
      <point x="254" y="-52" type="curve" smooth="yes"/>
      <point x="186" y="-52"/>
      <point x="130" y="-32"/>
      <point x="87" y="6" type="curve" smooth="yes"/>
      <point x="45" y="43"/>
      <point x="11" y="99"/>
    </contour>
  </outline>
</glyph>
<glyph name="six" format="2">
  <advance width="580"/>
  <unicode hex="0036"/>
  <outline>
    <contour>
      <point x="12" y="293" type="curve" smooth="yes"/>
      <point x="12" y="426"/>
      <point x="40" y="522"/>
      <point x="89" y="583" type="curve" smooth="yes"/>
      <point x="136" y="641"/>
      <point x="199" y="671"/>
      <point x="279" y="671" type="curve" smooth="yes"/>
      <point x="340" y="671"/>
      <point x="388" y="653"/>
      <point x="427" y="619" type="curve" smooth="yes"/>
      <point x="466" y="585"/>
      <point x="489" y="538"/>
      <point x="497" y="478" type="curve"/>
      <point x="497" y="473" type="line" smooth="yes"/>
      <point x="497" y="463"/>
      <point x="495" y="454"/>
      <point x="489" y="447" type="curve" smooth="yes"/>
      <point x="482" y="438"/>
      <point x="470" y="432"/>
      <point x="459" y="431" type="curve" smooth="yes"/>
      <point x="381" y="425" type="line"/>
      <point x="403" y="414"/>
      <point x="425" y="398"/>
      <point x="444" y="378" type="curve" smooth="yes"/>
      <point x="487" y="333"/>
      <point x="509" y="276"/>
      <point x="509" y="205" type="curve" smooth="yes"/>
      <point x="509" y="201" type="line" smooth="yes"/>
      <point x="509" y="156"/>
      <point x="499" y="114"/>
      <point x="479" y="75" type="curve" smooth="yes"/>
      <point x="458" y="34"/>
      <point x="430" y="3"/>
      <point x="394" y="-19" type="curve" smooth="yes"/>
      <point x="358" y="-41"/>
      <point x="318" y="-52"/>
      <point x="272" y="-52" type="curve" smooth="yes"/>
      <point x="195" y="-52"/>
      <point x="132" y="-24"/>
      <point x="83" y="33" type="curve" smooth="yes"/>
      <point x="38" y="86"/>
      <point x="12" y="172"/>
    </contour>
    <contour>
      <point x="182" y="425" type="curve"/>
      <point x="214" y="441"/>
      <point x="248" y="448"/>
      <point x="283" y="448" type="curve" smooth="yes"/>
      <point x="307" y="448"/>
      <point x="329" y="445"/>
      <point x="350" y="438" type="curve"/>
      <point x="345" y="443"/>
      <point x="341" y="450"/>
      <point x="339" y="458" type="curve" smooth="yes"/>
      <point x="334" y="479"/>
      <point x="329" y="494"/>
      <point x="320" y="504" type="curve" smooth="yes"/>
      <point x="307" y="517"/>
      <point x="292" y="524"/>
      <point x="274" y="524" type="curve" smooth="yes"/>
      <point x="259" y="524"/>
      <point x="245" y="520"/>
      <point x="234" y="512" type="curve" smooth="yes"/>
      <point x="215" y="498"/>
      <point x="202" y="478"/>
      <point x="191" y="452" type="curve" smooth="yes"/>
      <point x="188" y="444"/>
      <point x="184" y="435"/>
    </contour>
    <contour>
      <point x="184" y="203" type="line" smooth="yes"/>
      <point x="184" y="183"/>
      <point x="188" y="163"/>
      <point x="197" y="144" type="curve" smooth="yes"/>
      <point x="205" y="128"/>
      <point x="215" y="116"/>
      <point x="229" y="107" type="curve" smooth="yes"/>
      <point x="242" y="99"/>
      <point x="255" y="94"/>
      <point x="270" y="94" type="curve" smooth="yes"/>
      <point x="291" y="94"/>
      <point x="308" y="103"/>
      <point x="323" y="120" type="curve" smooth="yes"/>
      <point x="340" y="139"/>
      <point x="347" y="166"/>
      <point x="347" y="199" type="curve" smooth="yes"/>
      <point x="347" y="230"/>
      <point x="341" y="255"/>
      <point x="324" y="273" type="curve" smooth="yes"/>
      <point x="309" y="289"/>
      <point x="290" y="297"/>
      <point x="267" y="297" type="curve" smooth="yes"/>
      <point x="244" y="297"/>
      <point x="225" y="288"/>
      <point x="209" y="272" type="curve" smooth="yes"/>
      <point x="192" y="255"/>
      <point x="184" y="232"/>
      <point x="184" y="204" type="curve" smooth="yes"/>
    </contour>
  </outline>
</glyph>
<glyph name="seven" format="2">
  <advance width="580"/>
  <unicode hex="0037"/>
  <outline>
    <contour>
      <point x="18" y="544" type="curve" smooth="yes"/>
      <point x="18" y="618" type="line" smooth="yes"/>
      <point x="18" y="641"/>
      <point x="37" y="660"/>
      <point x="60" y="660" type="curve" smooth="yes"/>
      <point x="465" y="660" type="line" smooth="yes"/>
      <point x="488" y="660"/>
      <point x="507" y="641"/>
      <point x="507" y="618" type="curve" smooth="yes"/>
      <point x="507" y="558" type="line" smooth="yes"/>
      <point x="507" y="548"/>
      <point x="501" y="538"/>
      <point x="494" y="530" type="curve" smooth="yes"/>
      <point x="456" y="490"/>
      <point x="420" y="436"/>
      <point x="383" y="369" type="curve" smooth="yes"/>
      <point x="345" y="301"/>
      <point x="316" y="232"/>
      <point x="296" y="161" type="curve"/>
      <point x="296" y="160" type="line"/>
      <point x="281" y="110"/>
      <point x="272" y="56"/>
      <point x="268" y="-3" type="curve" smooth="yes"/>
      <point x="267" y="-25"/>
      <point x="248" y="-42"/>
      <point x="226" y="-42" type="curve" smooth="yes"/>
      <point x="147" y="-42" type="line" smooth="yes"/>
      <point x="136" y="-42"/>
      <point x="125" y="-37"/>
      <point x="117" y="-29" type="curve" smooth="yes"/>
      <point x="109" y="-21"/>
      <point x="106" y="-11"/>
      <point x="106" y="0" type="curve" smooth="yes"/>
      <point x="106" y="52"/>
      <point x="116" y="115"/>
      <point x="136" y="189" type="curve" smooth="yes"/>
      <point x="155" y="262"/>
      <point x="183" y="332"/>
      <point x="219" y="400" type="curve" smooth="yes"/>
      <point x="239" y="437"/>
      <point x="260" y="472"/>
      <point x="281" y="503" type="curve"/>
      <point x="60" y="503" type="line" smooth="yes"/>
      <point x="37" y="503"/>
      <point x="18" y="521"/>
    </contour>
  </outline>
</glyph>
<glyph name="eight" format="2">
  <advance width="580"/>
  <unicode hex="0038"/>
  <outline>
    <contour>
      <point x="12" y="181" type="curve" smooth="yes"/>
      <point x="12" y="232"/>
      <point x="25" y="275"/>
      <point x="51" y="309" type="curve" smooth="yes"/>
      <point x="61" y="322"/>
      <point x="73" y="334"/>
      <point x="86" y="344" type="curve"/>
      <point x="79" y="351"/>
      <point x="73" y="358"/>
      <point x="68" y="366" type="curve" smooth="yes"/>
      <point x="48" y="394"/>
      <point x="37" y="427"/>
      <point x="37" y="467" type="curve" smooth="yes"/>
      <point x="37" y="525"/>
      <point x="58" y="574"/>
      <point x="99" y="613" type="curve" smooth="yes"/>
      <point x="139" y="651"/>
      <point x="193" y="671"/>
      <point x="259" y="671" type="curve" smooth="yes"/>
      <point x="326" y="671"/>
      <point x="376" y="650"/>
      <point x="417" y="611" type="curve" smooth="yes"/>
      <point x="459" y="571"/>
      <point x="482" y="524"/>
      <point x="482" y="467" type="curve" smooth="yes"/>
      <point x="482" y="464" type="line" smooth="yes"/>
      <point x="482" y="426"/>
      <point x="472" y="393"/>
      <point x="452" y="365" type="curve" smooth="yes"/>
      <point x="446" y="357"/>
      <point x="439" y="351"/>
      <point x="432" y="344" type="curve"/>
      <point x="447" y="333"/>
      <point x="459" y="318"/>
      <point x="470" y="303" type="curve" smooth="yes"/>
      <point x="495" y="269"/>
      <point x="508" y="228"/>
      <point x="508" y="181" type="curve" smooth="yes"/>
      <point x="508" y="178" type="line" smooth="yes"/>
      <point x="508" y="113"/>
      <point x="484" y="58"/>
      <point x="438" y="14" type="curve" smooth="yes"/>
      <point x="393" y="-30"/>
      <point x="334" y="-52"/>
      <point x="260" y="-52" type="curve" smooth="yes"/>
      <point x="186" y="-52"/>
      <point x="128" y="-30"/>
      <point x="83" y="14" type="curve" smooth="yes"/>
      <point x="37" y="59"/>
      <point x="12" y="114"/>
    </contour>
    <contour>
      <point x="174" y="181" type="line" smooth="yes"/>
      <point x="174" y="166"/>
      <point x="180" y="150"/>
      <point x="187" y="136" type="curve" smooth="yes"/>
      <point x="194" y="123"/>
      <point x="202" y="113"/>
      <point x="215" y="106" type="curve" smooth="yes"/>
      <point x="229" y="98"/>
      <point x="245" y="94"/>
      <point x="261" y="94" type="curve" smooth="yes"/>
      <point x="286" y="94"/>
      <point x="307" y="102"/>
      <point x="323" y="118" type="curve" smooth="yes"/>
      <point x="339" y="134"/>
      <point x="346" y="154"/>
      <point x="346" y="178" type="curve" smooth="yes"/>
      <point x="346" y="203"/>
      <point x="337" y="224"/>
      <point x="320" y="240" type="curve" smooth="yes"/>
      <point x="303" y="257"/>
      <point x="283" y="265"/>
      <point x="258" y="265" type="curve" smooth="yes"/>
      <point x="234" y="265"/>
      <point x="214" y="257"/>
      <point x="198" y="241" type="curve" smooth="yes"/>
      <point x="182" y="225"/>
      <point x="174" y="206"/>
      <point x="174" y="182" type="curve" smooth="yes"/>
    </contour>
    <contour>
      <point x="199" y="469" type="line" smooth="yes"/>
      <point x="199" y="452"/>
      <point x="204" y="438"/>
      <point x="215" y="427" type="curve" smooth="yes"/>
      <point x="227" y="416"/>
      <point x="242" y="411"/>
      <point x="260" y="411" type="curve" smooth="yes"/>
      <point x="278" y="411"/>
      <point x="293" y="416"/>
      <point x="304" y="427" type="curve" smooth="yes"/>
      <point x="315" y="438"/>
      <point x="320" y="451"/>
      <point x="320" y="466" type="curve" smooth="yes"/>
      <point x="320" y="482"/>
      <point x="314" y="496"/>
      <point x="303" y="507" type="curve" smooth="yes"/>
      <point x="291" y="518"/>
      <point x="277" y="524"/>
      <point x="260" y="524" type="curve" smooth="yes"/>
      <point x="242" y="524"/>
      <point x="228" y="519"/>
      <point x="216" y="508" type="curve" smooth="yes"/>
      <point x="205" y="498"/>
      <point x="199" y="485"/>
      <point x="199" y="471" type="curve" smooth="yes"/>
    </contour>
  </outline>
</glyph>
<glyph name="nine" format="2">
  <advance width="580"/>
  <unicode hex="0039"/>
  <outline>
    <contour>
      <point x="13" y="417" type="curve" smooth="yes"/>
      <point x="13" y="493"/>
      <point x="36" y="554"/>
      <point x="81" y="600" type="curve" smooth="yes"/>
      <point x="126" y="647"/>
      <point x="183" y="671"/>
      <point x="251" y="671" type="curve" smooth="yes"/>
      <point x="300" y="671"/>
      <point x="345" y="657"/>
      <point x="386" y="631" type="curve" smooth="yes"/>
      <point x="426" y="605"/>
      <point x="457" y="568"/>
      <point x="478" y="519" type="curve" smooth="yes"/>
      <point x="495" y="479"/>
      <point x="506" y="421"/>
      <point x="508" y="348" type="curve" smooth="yes"/>
      <point x="508" y="345" type="line"/>
      <point x="508" y="342" type="line"/>
      <point x="508" y="334" type="line"/>
      <point x="508" y="326" type="line"/>
      <point x="508" y="322" type="line"/>
      <point x="508" y="314" type="line" smooth="yes"/>
      <point x="507" y="233"/>
      <point x="497" y="169"/>
      <point x="479" y="120" type="curve" smooth="yes"/>
      <point x="458" y="64"/>
      <point x="428" y="22"/>
      <point x="387" y="-7" type="curve" smooth="yes"/>
      <point x="346" y="-37"/>
      <point x="298" y="-52"/>
      <point x="242" y="-52" type="curve" smooth="yes"/>
      <point x="182" y="-52"/>
      <point x="133" y="-35"/>
      <point x="95" y="-2" type="curve" smooth="yes"/>
      <point x="57" y="31"/>
      <point x="32" y="79"/>
      <point x="24" y="140" type="curve"/>
      <point x="24" y="145" type="line" smooth="yes"/>
      <point x="24" y="154"/>
      <point x="28" y="164"/>
      <point x="34" y="171" type="curve" smooth="yes"/>
      <point x="41" y="180"/>
      <point x="51" y="185"/>
      <point x="62" y="186" type="curve" smooth="yes"/>
      <point x="136" y="193" type="line"/>
      <point x="140" y="193" type="line"/>
      <point x="118" y="204"/>
      <point x="97" y="220"/>
      <point x="78" y="240" type="curve" smooth="yes"/>
      <point x="35" y="285"/>
      <point x="13" y="343"/>
    </contour>
    <contour>
      <point x="169" y="181" type="curve"/>
      <point x="175" y="175"/>
      <point x="179" y="168"/>
      <point x="181" y="159" type="curve" smooth="yes"/>
      <point x="185" y="136"/>
      <point x="191" y="118"/>
      <point x="203" y="107" type="curve" smooth="yes"/>
      <point x="213" y="98"/>
      <point x="228" y="94"/>
      <point x="244" y="94" type="curve" smooth="yes"/>
      <point x="259" y="94"/>
      <point x="272" y="97"/>
      <point x="284" y="104" type="curve" smooth="yes"/>
      <point x="296" y="111"/>
      <point x="306" y="122"/>
      <point x="314" y="134" type="curve" smooth="yes"/>
      <point x="323" y="149"/>
      <point x="333" y="169"/>
      <point x="339" y="194" type="curve"/>
      <point x="309" y="179"/>
      <point x="275" y="171"/>
      <point x="240" y="171" type="curve" smooth="yes"/>
      <point x="215" y="171"/>
      <point x="191" y="174"/>
    </contour>
    <contour>
      <point x="175" y="414" type="line" smooth="yes"/>
      <point x="175" y="387"/>
      <point x="183" y="364"/>
      <point x="200" y="347" type="curve" smooth="yes"/>
      <point x="216" y="330"/>
      <point x="236" y="322"/>
      <point x="259" y="322" type="curve" smooth="yes"/>
      <point x="282" y="322"/>
      <point x="301" y="330"/>
      <point x="316" y="346" type="curve" smooth="yes"/>
      <point x="333" y="364"/>
      <point x="339" y="389"/>
      <point x="339" y="421" type="curve" smooth="yes"/>
      <point x="339" y="453"/>
      <point x="332" y="479"/>
      <point x="315" y="498" type="curve" smooth="yes"/>
      <point x="300" y="515"/>
      <point x="282" y="524"/>
      <point x="261" y="524" type="curve" smooth="yes"/>
      <point x="239" y="524"/>
      <point x="219" y="513"/>
      <point x="202" y="495" type="curve" smooth="yes"/>
      <point x="184" y="475"/>
      <point x="175" y="448"/>
      <point x="175" y="416" type="curve" smooth="yes"/>
    </contour>
  </outline>
</glyph>
<glyph name="colon" format="2">
  <advance width="260"/>
  <unicode hex="003A"/>
  <outline>
    <contour>
      <point x="13" y="366" type="curve" smooth="yes"/>
      <point x="13" y="454" type="line" smooth="yes"/>
      <point x="13" y="477"/>
      <point x="31" y="495"/>
      <point x="54" y="495" type="curve" smooth="yes"/>
      <point x="142" y="495" type="line" smooth="yes"/>
      <point x="165" y="495"/>
      <point x="184" y="477"/>
      <point x="184" y="454" type="curve" smooth="yes"/>
      <point x="184" y="366" type="line" smooth="yes"/>
      <point x="184" y="343"/>
      <point x="165" y="324"/>
      <point x="142" y="324" type="curve" smooth="yes"/>
      <point x="54" y="324" type="line" smooth="yes"/>
      <point x="31" y="324"/>
      <point x="13" y="343"/>
    </contour>
    <contour>
      <point x="13" y="0" type="curve" smooth="yes"/>
      <point x="13" y="88" type="line" smooth="yes"/>
      <point x="13" y="111"/>
      <point x="31" y="129"/>
      <point x="54" y="129" type="curve" smooth="yes"/>
      <point x="142" y="129" type="line" smooth="yes"/>
      <point x="165" y="129"/>
      <point x="184" y="111"/>
      <point x="184" y="88" type="curve" smooth="yes"/>
      <point x="184" y="0" type="line" smooth="yes"/>
      <point x="184" y="-23"/>
      <point x="165" y="-42"/>
      <point x="142" y="-42" type="curve" smooth="yes"/>
      <point x="54" y="-42" type="line" smooth="yes"/>
      <point x="31" y="-42"/>
      <point x="13" y="-23"/>
    </contour>
  </outline>
</glyph>
<glyph name="semicolon" format="2">
  <advance width="266"/>
  <unicode hex="003B"/>
  <outline>
    <contour>
      <point x="13" y="366" type="curve" smooth="yes"/>
      <point x="13" y="454" type="line" smooth="yes"/>
      <point x="13" y="477"/>
      <point x="31" y="495"/>
      <point x="54" y="495" type="curve" smooth="yes"/>
      <point x="142" y="495" type="line" smooth="yes"/>
      <point x="165" y="495"/>
      <point x="184" y="477"/>
      <point x="184" y="454" type="curve" smooth="yes"/>
      <point x="184" y="366" type="line" smooth="yes"/>
      <point x="184" y="343"/>
      <point x="165" y="324"/>
      <point x="142" y="324" type="curve" smooth="yes"/>
      <point x="54" y="324" type="line" smooth="yes"/>
      <point x="31" y="324"/>
      <point x="13" y="343"/>
    </contour>
    <contour>
      <point x="11" y="-91" type="curve" smooth="yes"/>
      <point x="11" y="-87"/>
      <point x="12" y="-83"/>
      <point x="13" y="-79" type="curve" smooth="yes"/>
      <point x="17" y="-67"/>
      <point x="25" y="-58"/>
      <point x="36" y="-53" type="curve" smooth="yes"/>
      <point x="42" y="-50"/>
      <point x="48" y="-46"/>
      <point x="51" y="-41" type="curve"/>
      <point x="31" y="-38"/>
      <point x="16" y="-21"/>
      <point x="16" y="0" type="curve" smooth="yes"/>
      <point x="16" y="88" type="line" smooth="yes"/>
      <point x="16" y="111"/>
      <point x="35" y="129"/>
      <point x="58" y="129" type="curve" smooth="yes"/>
      <point x="146" y="129" type="line" smooth="yes"/>
      <point x="169" y="129"/>
      <point x="187" y="111"/>
      <point x="187" y="88" type="curve" smooth="yes"/>
      <point x="187" y="0" type="line"/>
      <point x="187" y="-1" type="line" smooth="yes"/>
      <point x="187" y="-41"/>
      <point x="179" y="-74"/>
      <point x="165" y="-99" type="curve" smooth="yes"/>
      <point x="149" y="-126"/>
      <point x="125" y="-147"/>
      <point x="91" y="-162" type="curve" smooth="yes"/>
      <point x="86" y="-164"/>
      <point x="80" y="-166"/>
      <point x="74" y="-166" type="curve" smooth="yes"/>
      <point x="60" y="-166"/>
      <point x="47" y="-159"/>
      <point x="39" y="-147" type="curve" smooth="yes"/>
      <point x="18" y="-114" type="line" smooth="yes"/>
      <point x="14" y="-107"/>
      <point x="11" y="-99"/>
    </contour>
  </outline>
</glyph>
<glyph name="less" format="2">
  <advance width="580"/>
  <unicode hex="003C"/>
  <outline>
    <contour>
      <point x="26" y="274" type="curve" smooth="yes"/>
      <point x="26" y="346" type="line" smooth="yes"/>
      <point x="26" y="363"/>
      <point x="37" y="377"/>
      <point x="52" y="384" type="curve" smooth="yes"/>
      <point x="467" y="559" type="line" smooth="yes"/>
      <point x="472" y="561"/>
      <point x="478" y="562"/>
      <point x="483" y="562" type="curve" smooth="yes"/>
      <point x="491" y="562"/>
      <point x="499" y="561"/>
      <point x="506" y="556" type="curve" smooth="yes"/>
      <point x="518" y="548"/>
      <point x="525" y="535"/>
      <point x="525" y="521" type="curve" smooth="yes"/>
      <point x="525" y="444" type="line" smooth="yes"/>
      <point x="525" y="427"/>
      <point x="515" y="412"/>
      <point x="499" y="406" type="curve" smooth="yes"/>
      <point x="263" y="309" type="line"/>
      <point x="499" y="212" type="line" smooth="yes"/>
      <point x="514" y="206"/>
      <point x="525" y="191"/>
      <point x="525" y="174" type="curve" smooth="yes"/>
      <point x="525" y="173" type="line"/>
      <point x="525" y="97" type="line" smooth="yes"/>
      <point x="525" y="83"/>
      <point x="518" y="70"/>
      <point x="506" y="62" type="curve" smooth="yes"/>
      <point x="499" y="57"/>
      <point x="491" y="55"/>
      <point x="483" y="55" type="curve" smooth="yes"/>
      <point x="477" y="55"/>
      <point x="472" y="56"/>
      <point x="467" y="58" type="curve" smooth="yes"/>
      <point x="52" y="236" type="line" smooth="yes"/>
      <point x="37" y="243"/>
      <point x="26" y="257"/>
    </contour>
  </outline>
</glyph>
<glyph name="equal" format="2">
  <advance width="580"/>
  <unicode hex="003D"/>
  <outline>
    <contour>
      <point x="26" y="178" type="curve" smooth="yes"/>
      <point x="26" y="250" type="line" smooth="yes"/>
      <point x="26" y="273"/>
      <point x="45" y="292"/>
      <point x="68" y="292" type="curve" smooth="yes"/>
      <point x="481" y="292" type="line" smooth="yes"/>
      <point x="504" y="292"/>
      <point x="523" y="273"/>
      <point x="523" y="250" type="curve" smooth="yes"/>
      <point x="523" y="178" type="line" smooth="yes"/>
      <point x="523" y="155"/>
      <point x="504" y="136"/>
      <point x="481" y="136" type="curve" smooth="yes"/>
      <point x="68" y="136" type="line" smooth="yes"/>
      <point x="45" y="136"/>
      <point x="26" y="155"/>
    </contour>
    <contour>
      <point x="26" y="368" type="curve" smooth="yes"/>
      <point x="26" y="440" type="line" smooth="yes"/>
      <point x="26" y="463"/>
      <point x="45" y="482"/>
      <point x="68" y="482" type="curve" smooth="yes"/>
      <point x="481" y="482" type="line" smooth="yes"/>
      <point x="504" y="482"/>
      <point x="523" y="463"/>
      <point x="523" y="440" type="curve" smooth="yes"/>
      <point x="523" y="368" type="line" smooth="yes"/>
      <point x="523" y="345"/>
      <point x="504" y="327"/>
      <point x="481" y="327" type="curve" smooth="yes"/>
      <point x="68" y="327" type="line" smooth="yes"/>
      <point x="45" y="327"/>
      <point x="26" y="345"/>
    </contour>
  </outline>
</glyph>
<glyph name="greater" format="2">
  <advance width="580"/>
  <unicode hex="003E"/>
  <outline>
    <contour>
      <point x="26" y="97" type="curve" smooth="yes"/>
      <point x="26" y="173" type="line" smooth="yes"/>
      <point x="26" y="190"/>
      <point x="36" y="206"/>
      <point x="52" y="212" type="curve" smooth="yes"/>
      <point x="287" y="309" type="line"/>
      <point x="52" y="406" type="line" smooth="yes"/>
      <point x="36" y="412"/>
      <point x="26" y="427"/>
      <point x="26" y="444" type="curve" smooth="yes"/>
      <point x="26" y="521" type="line" smooth="yes"/>
      <point x="26" y="535"/>
      <point x="33" y="548"/>
      <point x="45" y="556" type="curve" smooth="yes"/>
      <point x="52" y="561"/>
      <point x="60" y="562"/>
      <point x="68" y="562" type="curve" smooth="yes"/>
      <point x="73" y="562"/>
      <point x="79" y="561"/>
      <point x="84" y="559" type="curve" smooth="yes"/>
      <point x="499" y="384" type="line" smooth="yes"/>
      <point x="514" y="378"/>
      <point x="525" y="363"/>
      <point x="525" y="346" type="curve" smooth="yes"/>
      <point x="525" y="274" type="line" smooth="yes"/>
      <point x="525" y="257"/>
      <point x="514" y="243"/>
      <point x="499" y="236" type="curve" smooth="yes"/>
      <point x="84" y="58" type="line" smooth="yes"/>
      <point x="79" y="56"/>
      <point x="74" y="55"/>
      <point x="68" y="55" type="curve" smooth="yes"/>
      <point x="60" y="55"/>
      <point x="52" y="57"/>
      <point x="45" y="62" type="curve" smooth="yes"/>
      <point x="33" y="70"/>
      <point x="26" y="83"/>
    </contour>
  </outline>
</glyph>
<glyph name="question" format="2">
  <advance width="560"/>
  <unicode hex="003F"/>
  <outline>
    <contour>
      <point x="10" y="456" type="curve" smooth="yes"/>
      <point x="10" y="461" type="line"/>
      <point x="19" y="531"/>
      <point x="45" y="585"/>
      <point x="87" y="622" type="curve" smooth="yes"/>
      <point x="129" y="659"/>
      <point x="185" y="679"/>
      <point x="254" y="679" type="curve" smooth="yes"/>
      <point x="327" y="679"/>
      <point x="385" y="658"/>
      <point x="429" y="618" type="curve" smooth="yes"/>
      <point x="475" y="576"/>
      <point x="497" y="525"/>
      <point x="497" y="466" type="curve" smooth="yes"/>
      <point x="497" y="465" type="line" smooth="yes"/>
      <point x="497" y="431"/>
      <point x="489" y="399"/>
      <point x="473" y="370" type="curve" smooth="yes"/>
      <point x="459" y="344"/>
      <point x="431" y="312"/>
      <point x="389" y="275" type="curve" smooth="yes"/>
      <point x="367" y="256"/>
      <point x="353" y="242"/>
      <point x="346" y="233" type="curve" smooth="yes"/>
      <point x="341" y="226"/>
      <point x="337" y="219"/>
      <point x="335" y="210" type="curve" smooth="yes"/>
      <point x="333" y="203"/>
      <point x="332" y="194"/>
      <point x="331" y="182" type="curve" smooth="yes"/>
      <point x="331" y="167" type="line"/>
      <point x="331" y="165" type="line" smooth="yes"/>
      <point x="331" y="161"/>
      <point x="330" y="157"/>
      <point x="330" y="153" type="curve" smooth="yes"/>
      <point x="330" y="141"/>
      <point x="325" y="131"/>
      <point x="317" y="124" type="curve"/>
      <point x="330" y="117"/>
      <point x="339" y="104"/>
      <point x="339" y="88" type="curve" smooth="yes"/>
      <point x="339" y="0" type="line" smooth="yes"/>
      <point x="339" y="-23"/>
      <point x="321" y="-42"/>
      <point x="298" y="-42" type="curve" smooth="yes"/>
      <point x="210" y="-42" type="line" smooth="yes"/>
      <point x="187" y="-42"/>
      <point x="168" y="-23"/>
      <point x="168" y="0" type="curve" smooth="yes"/>
      <point x="168" y="88" type="line" smooth="yes"/>
      <point x="168" y="103"/>
      <point x="175" y="116"/>
      <point x="187" y="123" type="curve"/>
      <point x="178" y="130"/>
      <point x="173" y="141"/>
      <point x="173" y="153" type="curve" smooth="yes"/>
      <point x="173" y="177" type="line" smooth="yes"/>
      <point x="173" y="213"/>
      <point x="178" y="244"/>
      <point x="188" y="270" type="curve" smooth="yes"/>
      <point x="196" y="290"/>
      <point x="208" y="311"/>
      <point x="225" y="332" type="curve" smooth="yes"/>
      <point x="236" y="345"/>
      <point x="256" y="365"/>
      <point x="285" y="390" type="curve" smooth="yes"/>
      <point x="307" y="409"/>
      <point x="321" y="425"/>
      <point x="328" y="436" type="curve" smooth="yes"/>
      <point x="332" y="444"/>
      <point x="335" y="452"/>
      <point x="335" y="461" type="curve" smooth="yes"/>
      <point x="335" y="480"/>
      <point x="328" y="496"/>
      <point x="313" y="510" type="curve" smooth="yes"/>
      <point x="298" y="525"/>
      <point x="278" y="532"/>
      <point x="256" y="532" type="curve" smooth="yes"/>
      <point x="235" y="532"/>
      <point x="216" y="526"/>
      <point x="202" y="513" type="curve" smooth="yes"/>
      <point x="186" y="498"/>
      <point x="177" y="472"/>
      <point x="172" y="440" type="curve" smooth="yes"/>
      <point x="169" y="420"/>
      <point x="151" y="405"/>
      <point x="131" y="405" type="curve" smooth="yes"/>
      <point x="129" y="405"/>
      <point x="128" y="406"/>
      <point x="126" y="406" type="curve" smooth="yes"/>
      <point x="47" y="415" type="line" smooth="yes"/>
      <point x="36" y="416"/>
      <point x="26" y="422"/>
      <point x="19" y="431" type="curve" smooth="yes"/>
      <point x="13" y="438"/>
      <point x="10" y="447"/>
    </contour>
  </outline>
</glyph>
<glyph name="at" format="2">
  <advance width="969"/>
  <unicode hex="0040"/>
  <outline>
    <contour>
      <point x="10" y="235" type="curve" smooth="yes"/>
      <point x="10" y="311"/>
      <point x="25" y="382"/>
      <point x="56" y="450" type="curve" smooth="yes"/>
      <point x="94" y="535"/>
      <point x="149" y="601"/>
      <point x="220" y="646" type="curve" smooth="yes"/>
      <point x="290" y="691"/>
      <point x="375" y="714"/>
      <point x="475" y="714" type="curve" smooth="yes"/>
      <point x="553" y="714"/>
      <point x="622" y="698"/>
      <point x="684" y="666" type="curve" smooth="yes"/>
      <point x="747" y="633"/>
      <point x="798" y="585"/>
      <point x="835" y="520" type="curve" smooth="yes"/>
      <point x="866" y="465"/>
      <point x="882" y="406"/>
      <point x="882" y="342" type="curve" smooth="yes"/>
      <point x="882" y="339" type="line" smooth="yes"/>
      <point x="882" y="246"/>
      <point x="849" y="163"/>
      <point x="784" y="91" type="curve" smooth="yes"/>
      <point x="782" y="88"/>
      <point x="779" y="85"/>
      <point x="777" y="83" type="curve"/>
      <point x="779" y="83"/>
      <point x="782" y="84"/>
      <point x="784" y="84" type="curve" smooth="yes"/>
      <point x="861" y="84" type="line" smooth="yes"/>
      <point x="875" y="84"/>
      <point x="888" y="76"/>
      <point x="896" y="64" type="curve" smooth="yes"/>
      <point x="900" y="57"/>
      <point x="903" y="50"/>
      <point x="903" y="42" type="curve" smooth="yes"/>
      <point x="903" y="36"/>
      <point x="901" y="30"/>
      <point x="898" y="24" type="curve" smooth="yes"/>
      <point x="881" y="-10"/>
      <point x="854" y="-45"/>
      <point x="814" y="-80" type="curve" smooth="yes"/>
      <point x="775" y="-114"/>
      <point x="729" y="-142"/>
      <point x="675" y="-162" type="curve" smooth="yes"/>
      <point x="622" y="-182"/>
      <point x="558" y="-192"/>
      <point x="484" y="-192" type="curve" smooth="yes"/>
      <point x="416" y="-192"/>
      <point x="354" y="-183"/>
      <point x="297" y="-166" type="curve" smooth="yes"/>
      <point x="238" y="-148"/>
      <point x="187" y="-120"/>
      <point x="145" y="-84" type="curve" smooth="yes"/>
      <point x="103" y="-47"/>
      <point x="72" y="-5"/>
      <point x="50" y="43" type="curve"/>
      <point x="49" y="43" type="line"/>
      <point x="23" y="102"/>
      <point x="10" y="167"/>
    </contour>
    <contour>
      <point x="157" y="238" type="line" smooth="yes"/>
      <point x="157" y="178"/>
      <point x="170" y="127"/>
      <point x="196" y="83" type="curve" smooth="yes"/>
      <point x="222" y="40"/>
      <point x="259" y="8"/>
      <point x="308" y="-12" type="curve" smooth="yes"/>
      <point x="361" y="-34"/>
      <point x="419" y="-45"/>
      <point x="483" y="-45" type="curve" smooth="yes"/>
      <point x="550" y="-45"/>
      <point x="607" y="-35"/>
      <point x="652" y="-12" type="curve" smooth="yes"/>
      <point x="681" y="3"/>
      <point x="706" y="19"/>
      <point x="725" y="38" type="curve"/>
      <point x="680" y="6"/>
      <point x="633" y="-9"/>
      <point x="583" y="-9" type="curve" smooth="yes"/>
      <point x="556" y="-9"/>
      <point x="534" y="-4"/>
      <point x="517" y="4" type="curve" smooth="yes"/>
      <point x="503" y="11"/>
      <point x="491" y="20"/>
      <point x="482" y="31" type="curve"/>
      <point x="474" y="26"/>
      <point x="467" y="21"/>
      <point x="459" y="16" type="curve" smooth="yes"/>
      <point x="429" y="-1"/>
      <point x="399" y="-9"/>
      <point x="369" y="-9" type="curve" smooth="yes"/>
      <point x="336" y="-9"/>
      <point x="304" y="1"/>
      <point x="273" y="20" type="curve" smooth="yes"/>
      <point x="243" y="39"/>
      <point x="218" y="66"/>
      <point x="199" y="105" type="curve" smooth="yes"/>
      <point x="181" y="141"/>
      <point x="173" y="182"/>
      <point x="173" y="225" type="curve" smooth="yes"/>
      <point x="173" y="277"/>
      <point x="186" y="328"/>
      <point x="212" y="380" type="curve" smooth="yes"/>
      <point x="239" y="433"/>
      <point x="273" y="472"/>
      <point x="313" y="498" type="curve" smooth="yes"/>
      <point x="355" y="526"/>
      <point x="396" y="539"/>
      <point x="436" y="539" type="curve" smooth="yes"/>
      <point x="468" y="539"/>
      <point x="499" y="531"/>
      <point x="528" y="514" type="curve" smooth="yes"/>
      <point x="533" y="511"/>
      <point x="538" y="507"/>
      <point x="543" y="504" type="curve"/>
      <point x="550" y="517"/>
      <point x="564" y="527"/>
      <point x="580" y="527" type="curve" smooth="yes"/>
      <point x="628" y="527" type="line"/>
      <point x="623" y="530"/>
      <point x="618" y="532"/>
      <point x="612" y="535" type="curve" smooth="yes"/>
      <point x="569" y="557"/>
      <point x="522" y="568"/>
      <point x="471" y="568" type="curve" smooth="yes"/>
      <point x="412" y="568"/>
      <point x="358" y="555"/>
      <point x="309" y="527" type="curve" smooth="yes"/>
      <point x="261" y="500"/>
      <point x="223" y="460"/>
      <point x="197" y="409" type="curve" smooth="yes"/>
      <point x="170" y="358"/>
      <point x="157" y="303"/>
      <point x="157" y="244" type="curve" smooth="yes"/>
      <point x="157" y="241" type="line"/>
    </contour>
    <contour>
      <point x="335" y="216" type="line" smooth="yes"/>
      <point x="335" y="191"/>
      <point x="341" y="170"/>
      <point x="353" y="156" type="curve" smooth="yes"/>
      <point x="362" y="145"/>
      <point x="373" y="138"/>
      <point x="385" y="138" type="curve" smooth="yes"/>
      <point x="395" y="138"/>
      <point x="405" y="141"/>
      <point x="416" y="147" type="curve" smooth="yes"/>
      <point x="430" y="154"/>
      <point x="442" y="166"/>
      <point x="454" y="180" type="curve" smooth="yes"/>
      <point x="467" y="195"/>
      <point x="478" y="214"/>
      <point x="486" y="238" type="curve" smooth="yes"/>
      <point x="495" y="262"/>
      <point x="499" y="287"/>
      <point x="499" y="311" type="curve" smooth="yes"/>
      <point x="499" y="338"/>
      <point x="494" y="359"/>
      <point x="481" y="374" type="curve" smooth="yes"/>
      <point x="470" y="386"/>
      <point x="458" y="392"/>
      <point x="442" y="392" type="curve" smooth="yes"/>
      <point x="431" y="392"/>
      <point x="421" y="390"/>
      <point x="411" y="384" type="curve" smooth="yes"/>
      <point x="399" y="377"/>
      <point x="388" y="365"/>
      <point x="377" y="350" type="curve" smooth="yes"/>
      <point x="364" y="333"/>
      <point x="355" y="312"/>
      <point x="347" y="288" type="curve" smooth="yes"/>
      <point x="339" y="263"/>
      <point x="335" y="241"/>
      <point x="335" y="220" type="curve" smooth="yes"/>
    </contour>
    <contour>
      <point x="628" y="151" type="curve"/>
      <point x="634" y="154"/>
      <point x="640" y="159"/>
      <point x="647" y="164" type="curve" smooth="yes"/>
      <point x="674" y="183"/>
      <point x="695" y="208"/>
      <point x="711" y="240" type="curve" smooth="yes"/>
      <point x="727" y="272"/>
      <point x="735" y="306"/>
      <point x="735" y="340" type="curve" smooth="yes"/>
      <point x="735" y="380"/>
      <point x="724" y="417"/>
      <point x="704" y="452" type="curve" smooth="yes"/>
      <point x="695" y="467" type="line"/>
      <point x="635" y="189" type="line" smooth="yes"/>
      <point x="632" y="174"/>
      <point x="630" y="161"/>
    </contour>
  </outline>
</glyph>
<glyph name="A" format="2">
  <advance width="745"/>
  <unicode hex="0041"/>
  <outline>
    <contour>
      <point x="15" y="0" type="curve" smooth="yes"/>
      <point x="15" y="5"/>
      <point x="16" y="10"/>
      <point x="18" y="15" type="curve" smooth="yes"/>
      <point x="258" y="641" type="line" smooth="yes"/>
      <point x="264" y="657"/>
      <point x="280" y="668"/>
      <point x="297" y="668" type="curve" smooth="yes"/>
      <point x="387" y="668" type="line" smooth="yes"/>
      <point x="404" y="668"/>
      <point x="419" y="658"/>
      <point x="425" y="642" type="curve" smooth="yes"/>
      <point x="681" y="16" type="line" smooth="yes"/>
      <point x="683" y="11"/>
      <point x="685" y="5"/>
      <point x="685" y="0" type="curve" smooth="yes"/>
      <point x="685" y="-8"/>
      <point x="682" y="-16"/>
      <point x="677" y="-23" type="curve" smooth="yes"/>
      <point x="669" y="-35"/>
      <point x="657" y="-42"/>
      <point x="643" y="-42" type="curve" smooth="yes"/>
      <point x="548" y="-42" type="line" smooth="yes"/>
      <point x="531" y="-42"/>
      <point x="516" y="-31"/>
      <point x="510" y="-15" type="curve" smooth="yes"/>
      <point x="447" y="148" type="line"/>
      <point x="243" y="148" type="line"/>
      <point x="184" y="-14" type="line" smooth="yes"/>
      <point x="178" y="-30"/>
      <point x="163" y="-42"/>
      <point x="145" y="-42" type="curve" smooth="yes"/>
      <point x="57" y="-42" type="line" smooth="yes"/>
      <point x="43" y="-42"/>
      <point x="30" y="-35"/>
      <point x="22" y="-24" type="curve" smooth="yes"/>
      <point x="17" y="-17"/>
      <point x="15" y="-8"/>
    </contour>
    <contour>
      <point x="298" y="299" type="line"/>
      <point x="390" y="299" type="line"/>
      <point x="343" y="421" type="line"/>
    </contour>
  </outline>
</glyph>
<glyph name="B" format="2">
  <advance width="629"/>
  <unicode hex="0042"/>
  <outline>
    <contour>
      <point x="13" y="0" type="curve" smooth="yes"/>
      <point x="13" y="626" type="line" smooth="yes"/>
      <point x="13" y="649"/>
      <point x="32" y="668"/>
      <point x="55" y="668" type="curve" smooth="yes"/>
      <point x="290" y="668" type="line" smooth="yes"/>
      <point x="345" y="668"/>
      <point x="389" y="660"/>
      <point x="422" y="645" type="curve" smooth="yes"/>
      <point x="459" y="629"/>
      <point x="488" y="605"/>
      <point x="509" y="571" type="curve" smooth="yes"/>
      <point x="530" y="538"/>
      <point x="539" y="502"/>
      <point x="539" y="466" type="curve" smooth="yes"/>
      <point x="539" y="432"/>
      <point x="530" y="399"/>
      <point x="511" y="369" type="curve" smooth="yes"/>
      <point x="505" y="359"/>
      <point x="498" y="350"/>
      <point x="490" y="341" type="curve"/>
      <point x="506" y="330"/>
      <point x="520" y="317"/>
      <point x="531" y="302" type="curve" smooth="yes"/>
      <point x="556" y="269"/>
      <point x="570" y="229"/>
      <point x="570" y="184" type="curve" smooth="yes"/>
      <point x="570" y="180" type="line" smooth="yes"/>
      <point x="570" y="145"/>
      <point x="562" y="111"/>
      <point x="547" y="81" type="curve" smooth="yes"/>
      <point x="531" y="49"/>
      <point x="512" y="25"/>
      <point x="489" y="8" type="curve" smooth="yes"/>
      <point x="467" y="-9"/>
      <point x="438" y="-22"/>
      <point x="405" y="-30" type="curve" smooth="yes"/>
      <point x="375" y="-38"/>
      <point x="338" y="-42"/>
      <point x="294" y="-42" type="curve" smooth="yes"/>
      <point x="55" y="-42" type="line" smooth="yes"/>
      <point x="32" y="-42"/>
      <point x="13" y="-23"/>
    </contour>
    <contour>
      <point x="180" y="116" type="line"/>
      <point x="294" y="116" type="line" smooth="yes"/>
      <point x="317" y="116"/>
      <point x="334" y="116"/>
      <point x="343" y="118" type="curve" smooth="yes"/>
      <point x="356" y="120"/>
      <point x="367" y="123"/>
      <point x="376" y="129" type="curve" smooth="yes"/>
      <point x="383" y="133"/>
      <point x="388" y="141"/>
      <point x="393" y="149" type="curve" smooth="yes"/>
      <point x="398" y="158"/>
      <point x="401" y="170"/>
      <point x="401" y="182" type="curve" smooth="yes"/>
      <point x="401" y="196"/>
      <point x="397" y="209"/>
      <point x="390" y="219" type="curve" smooth="yes"/>
      <point x="383" y="229"/>
      <point x="373" y="235"/>
      <point x="361" y="239" type="curve" smooth="yes"/>
      <point x="343" y="245"/>
      <point x="317" y="248"/>
      <point x="283" y="248" type="curve" smooth="yes"/>
      <point x="180" y="248" type="line"/>
    </contour>
    <contour>
      <point x="180" y="405" type="line"/>
      <point x="273" y="405" type="line" smooth="yes"/>
      <point x="304" y="405"/>
      <point x="327" y="406"/>
      <point x="340" y="410" type="curve"/>
      <point x="341" y="410" type="line" smooth="yes"/>
      <point x="352" y="413"/>
      <point x="361" y="418"/>
      <point x="367" y="426" type="curve" smooth="yes"/>
      <point x="373" y="434"/>
      <point x="374" y="444"/>
      <point x="374" y="456" type="curve" smooth="yes"/>
      <point x="374" y="468"/>
      <point x="372" y="480"/>
      <point x="366" y="489" type="curve" smooth="yes"/>
      <point x="361" y="496"/>
      <point x="355" y="501"/>
      <point x="346" y="504" type="curve" smooth="yes"/>
      <point x="330" y="509"/>
      <point x="302" y="511"/>
      <point x="263" y="511" type="curve" smooth="yes"/>
      <point x="180" y="511" type="line"/>
    </contour>
  </outline>
</glyph>
<glyph name="D" format="2">
  <advance width="673"/>
  <unicode hex="0044"/>
  <outline>
    <contour>
      <point x="13" y="0" type="curve" smooth="yes"/>
      <point x="13" y="626" type="line" smooth="yes"/>
      <point x="13" y="649"/>
      <point x="32" y="668"/>
      <point x="55" y="668" type="curve" smooth="yes"/>
      <point x="270" y="668" type="line" smooth="yes"/>
      <point x="323" y="668"/>
      <point x="363" y="664"/>
      <point x="391" y="658" type="curve" smooth="yes"/>
      <point x="434" y="648"/>
      <point x="471" y="630"/>
      <point x="501" y="604" type="curve" smooth="yes"/>
      <point x="539" y="572"/>
      <point x="568" y="530"/>
      <point x="587" y="480" type="curve" smooth="yes"/>
      <point x="605" y="433"/>
      <point x="614" y="379"/>
      <point x="614" y="319" type="curve" smooth="yes"/>
      <point x="614" y="314" type="line" smooth="yes"/>
      <point x="614" y="263"/>
      <point x="608" y="218"/>
      <point x="596" y="178" type="curve" smooth="yes"/>
      <point x="583" y="136"/>
      <point x="567" y="102"/>
      <point x="547" y="75" type="curve" smooth="yes"/>
      <point x="526" y="47"/>
      <point x="503" y="23"/>
      <point x="479" y="7" type="curve" smooth="yes"/>
      <point x="455" y="-9"/>
      <point x="425" y="-22"/>
      <point x="391" y="-30" type="curve" smooth="yes"/>
      <point x="359" y="-38"/>
      <point x="323" y="-42"/>
      <point x="281" y="-42" type="curve" smooth="yes"/>
      <point x="55" y="-42" type="line" smooth="yes"/>
      <point x="32" y="-42"/>
      <point x="13" y="-23"/>
    </contour>
    <contour>
      <point x="179" y="116" type="line"/>
      <point x="271" y="116" type="line" smooth="yes"/>
      <point x="307" y="116"/>
      <point x="336" y="118"/>
      <point x="356" y="125" type="curve" smooth="yes"/>
      <point x="372" y="130"/>
      <point x="385" y="137"/>
      <point x="395" y="147" type="curve" smooth="yes"/>
      <point x="411" y="163"/>
      <point x="422" y="184"/>
      <point x="431" y="210" type="curve" smooth="yes"/>
      <point x="441" y="240"/>
      <point x="445" y="276"/>
      <point x="445" y="318" type="curve" smooth="yes"/>
      <point x="445" y="374"/>
      <point x="437" y="417"/>
      <point x="419" y="447" type="curve" smooth="yes"/>
      <point x="403" y="473"/>
      <point x="384" y="492"/>
      <point x="361" y="501" type="curve" smooth="yes"/>
      <point x="342" y="508"/>
      <point x="311" y="511"/>
      <point x="269" y="511" type="curve" smooth="yes"/>
      <point x="179" y="511" type="line"/>
    </contour>
  </outline>
</glyph>
<glyph name="F" format="2">
  <advance width="602"/>
  <unicode hex="0046"/>
  <outline>
    <contour>
      <point x="23" y="0" type="curve" smooth="yes"/>
      <point x="23" y="626" type="line" smooth="yes"/>
      <point x="23" y="649"/>
      <point x="42" y="668"/>
      <point x="65" y="668" type="curve" smooth="yes"/>
      <point x="487" y="668" type="line" smooth="yes"/>
      <point x="510" y="668"/>
      <point x="529" y="649"/>
      <point x="529" y="626" type="curve" smooth="yes"/>
      <point x="529" y="552" type="line" smooth="yes"/>
      <point x="529" y="529"/>
      <point x="510" y="511"/>
      <point x="487" y="511" type="curve" smooth="yes"/>
      <point x="189" y="511" type="line"/>
      <point x="189" y="400" type="line"/>
      <point x="442" y="400" type="line" smooth="yes"/>
      <point x="465" y="400"/>
      <point x="483" y="381"/>
      <point x="483" y="358" type="curve" smooth="yes"/>
      <point x="483" y="285" type="line" smooth="yes"/>
      <point x="483" y="262"/>
      <point x="465" y="243"/>
      <point x="442" y="243" type="curve" smooth="yes"/>
      <point x="189" y="243" type="line"/>
      <point x="189" y="0" type="line" smooth="yes"/>
      <point x="189" y="-23"/>
      <point x="171" y="-42"/>
      <point x="148" y="-42" type="curve" smooth="yes"/>
      <point x="65" y="-42" type="line" smooth="yes"/>
      <point x="42" y="-42"/>
      <point x="23" y="-23"/>
    </contour>
  </outline>
</glyph>
<glyph name="H" format="2">
  <advance width="695"/>
  <unicode hex="0048"/>
  <outline>
    <contour>
      <point x="23" y="0" type="curve" smooth="yes"/>
      <point x="23" y="626" type="line" smooth="yes"/>
      <point x="23" y="649"/>
      <point x="42" y="668"/>
      <point x="65" y="668" type="curve" smooth="yes"/>
      <point x="148" y="668" type="line" smooth="yes"/>
      <point x="171" y="668"/>
      <point x="190" y="649"/>
      <point x="190" y="626" type="curve" smooth="yes"/>
      <point x="190" y="411" type="line"/>
      <point x="432" y="411" type="line"/>
      <point x="432" y="626" type="line" smooth="yes"/>
      <point x="432" y="649"/>
      <point x="451" y="668"/>
      <point x="474" y="668" type="curve" smooth="yes"/>
      <point x="556" y="668" type="line" smooth="yes"/>
      <point x="579" y="668"/>
      <point x="598" y="649"/>
      <point x="598" y="626" type="curve" smooth="yes"/>
      <point x="598" y="0" type="line" smooth="yes"/>
      <point x="598" y="-23"/>
      <point x="579" y="-42"/>
      <point x="556" y="-42" type="curve" smooth="yes"/>
      <point x="474" y="-42" type="line" smooth="yes"/>
      <point x="451" y="-42"/>
      <point x="432" y="-23"/>
      <point x="432" y="0" type="curve" smooth="yes"/>
      <point x="432" y="254" type="line"/>
      <point x="190" y="254" type="line"/>
      <point x="190" y="0" type="line" smooth="yes"/>
      <point x="190" y="-23"/>
      <point x="171" y="-42"/>
      <point x="148" y="-42" type="curve" smooth="yes"/>
      <point x="65" y="-42" type="line" smooth="yes"/>
      <point x="42" y="-42"/>
      <point x="23" y="-23"/>
    </contour>
  </outline>
</glyph>
<glyph name="I" format="2">
  <advance width="286"/>
  <unicode hex="0049"/>
  <outline>
    <contour>
      <point x="23" y="0" type="curve" smooth="yes"/>
      <point x="23" y="626" type="line" smooth="yes"/>
      <point x="23" y="649"/>
      <point x="41" y="668"/>
      <point x="64" y="668" type="curve" smooth="yes"/>
      <point x="147" y="668" type="line" smooth="yes"/>
      <point x="170" y="668"/>
      <point x="189" y="650"/>
      <point x="189" y="627" type="curve" smooth="yes"/>
      <point x="189" y="626" type="line"/>
      <point x="189" y="0" type="line" smooth="yes"/>
      <point x="189" y="-23"/>
      <point x="170" y="-42"/>
      <point x="147" y="-42" type="curve" smooth="yes"/>
      <point x="64" y="-42" type="line" smooth="yes"/>
      <point x="41" y="-42"/>
      <point x="23" y="-23"/>
    </contour>
  </outline>
</glyph>
<glyph name="J" format="2">
  <advance width="500"/>
  <unicode hex="004A"/>
  <outline>
    <contour>
      <point x="9" y="171" type="curve" smooth="yes"/>
      <point x="9" y="178" type="line" smooth="yes"/>
      <point x="9" y="199"/>
      <point x="25" y="216"/>
      <point x="45" y="219" type="curve" smooth="yes"/>
      <point x="119" y="229" type="line" smooth="yes"/>
      <point x="121" y="229"/>
      <point x="123" y="230"/>
      <point x="125" y="230" type="curve" smooth="yes"/>
      <point x="135" y="230"/>
      <point x="146" y="226"/>
      <point x="154" y="220" type="curve" smooth="yes"/>
      <point x="163" y="212"/>
      <point x="167" y="202"/>
      <point x="167" y="190" type="curve" smooth="yes"/>
      <point x="167" y="179" type="line" smooth="yes"/>
      <point x="167" y="165"/>
      <point x="170" y="153"/>
      <point x="172" y="142" type="curve" smooth="yes"/>
      <point x="174" y="132"/>
      <point x="178" y="124"/>
      <point x="183" y="118" type="curve" smooth="yes"/>
      <point x="191" y="109"/>
      <point x="203" y="105"/>
      <point x="218" y="105" type="curve" smooth="yes"/>
      <point x="230" y="105"/>
      <point x="241" y="107"/>
      <point x="250" y="113" type="curve" smooth="yes"/>
      <point x="257" y="117"/>
      <point x="261" y="123"/>
      <point x="264" y="130" type="curve" smooth="yes"/>
      <point x="269" y="144"/>
      <point x="270" y="165"/>
      <point x="270" y="195" type="curve" smooth="yes"/>
      <point x="270" y="626" type="line" smooth="yes"/>
      <point x="270" y="649"/>
      <point x="289" y="668"/>
      <point x="312" y="668" type="curve" smooth="yes"/>
      <point x="395" y="668" type="line" smooth="yes"/>
      <point x="418" y="668"/>
      <point x="436" y="649"/>
      <point x="436" y="626" type="curve" smooth="yes"/>
      <point x="436" y="200" type="line"/>
      <point x="436" y="197" type="line"/>
      <point x="436" y="192" type="line" smooth="yes"/>
      <point x="436" y="136"/>
      <point x="428" y="92"/>
      <point x="414" y="61" type="curve" smooth="yes"/>
      <point x="398" y="24"/>
      <point x="372" y="-5"/>
      <point x="336" y="-25" type="curve" smooth="yes"/>
      <point x="303" y="-43"/>
      <point x="264" y="-52"/>
      <point x="219" y="-52" type="curve" smooth="yes"/>
      <point x="150" y="-52"/>
      <point x="98" y="-31"/>
      <point x="62" y="8" type="curve" smooth="yes"/>
      <point x="28" y="45"/>
      <point x="9" y="99"/>
    </contour>
  </outline>
</glyph>
<glyph name="K" format="2">
  <advance width="698"/>
  <unicode hex="004B"/>
  <outline>
    <contour>
      <point x="23" y="0" type="curve" smooth="yes"/>
      <point x="23" y="626" type="line" smooth="yes"/>
      <point x="23" y="649"/>
      <point x="42" y="668"/>
      <point x="65" y="668" type="curve" smooth="yes"/>
      <point x="148" y="668" type="line" smooth="yes"/>
      <point x="171" y="668"/>
      <point x="190" y="649"/>
      <point x="190" y="626" type="curve" smooth="yes"/>
      <point x="190" y="416" type="line"/>
      <point x="430" y="656" type="line" smooth="yes"/>
      <point x="438" y="664"/>
      <point x="448" y="668"/>
      <point x="459" y="668" type="curve" smooth="yes"/>
      <point x="571" y="668" type="line" smooth="yes"/>
      <point x="588" y="668"/>
      <point x="604" y="658"/>
      <point x="610" y="642" type="curve" smooth="yes"/>
      <point x="612" y="637"/>
      <point x="613" y="632"/>
      <point x="613" y="627" type="curve" smooth="yes"/>
      <point x="613" y="626" type="line" smooth="yes"/>
      <point x="613" y="615"/>
      <point x="608" y="604"/>
      <point x="600" y="596" type="curve" smooth="yes"/>
      <point x="364" y="368" type="line"/>
      <point x="616" y="25" type="line" smooth="yes"/>
      <point x="621" y="18"/>
      <point x="625" y="9"/>
      <point x="625" y="0" type="curve" smooth="yes"/>
      <point x="625" y="-6"/>
      <point x="623" y="-13"/>
      <point x="620" y="-19" type="curve" smooth="yes"/>
      <point x="613" y="-33"/>
      <point x="599" y="-42"/>
      <point x="583" y="-42" type="curve" smooth="yes"/>
      <point x="474" y="-42" type="line" smooth="yes"/>
      <point x="460" y="-42"/>
      <point x="447" y="-35"/>
      <point x="439" y="-24" type="curve" smooth="yes"/>
      <point x="245" y="253" type="line"/>
      <point x="190" y="199" type="line"/>
      <point x="190" y="0" type="line" smooth="yes"/>
      <point x="190" y="-23"/>
      <point x="171" y="-42"/>
      <point x="148" y="-42" type="curve" smooth="yes"/>
      <point x="65" y="-42" type="line" smooth="yes"/>
      <point x="42" y="-42"/>
      <point x="23" y="-23"/>
    </contour>
  </outline>
</glyph>
<glyph name="L" format="2">
  <advance width="571"/>
  <unicode hex="004C"/>
  <outline>
    <contour>
      <point x="23" y="0" type="curve" smooth="yes"/>
      <point x="23" y="626" type="line" smooth="yes"/>
      <point x="23" y="649"/>
      <point x="42" y="668"/>
      <point x="65" y="668" type="curve" smooth="yes"/>
      <point x="148" y="668" type="line" smooth="yes"/>
      <point x="171" y="668"/>
      <point x="190" y="649"/>
      <point x="190" y="626" type="curve" smooth="yes"/>
      <point x="190" y="116" type="line"/>
      <point x="456" y="116" type="line" smooth="yes"/>
      <point x="479" y="116"/>
      <point x="498" y="97"/>
      <point x="498" y="74" type="curve" smooth="yes"/>
      <point x="498" y="0" type="line" smooth="yes"/>
      <point x="498" y="-23"/>
      <point x="479" y="-42"/>
      <point x="456" y="-42" type="curve" smooth="yes"/>
      <point x="65" y="-42" type="line" smooth="yes"/>
      <point x="42" y="-42"/>
      <point x="23" y="-23"/>
    </contour>
  </outline>
</glyph>
<glyph name="M" format="2">
  <advance width="801"/>
  <unicode hex="004D"/>
  <outline>
    <contour>
      <point x="23" y="0" type="curve" smooth="yes"/>
      <point x="23" y="626" type="line" smooth="yes"/>
      <point x="23" y="649"/>
      <point x="42" y="668"/>
      <point x="65" y="668" type="curve" smooth="yes"/>
      <point x="190" y="668" type="line" smooth="yes"/>
      <point x="208" y="668"/>
      <point x="223" y="657"/>
      <point x="229" y="640" type="curve" smooth="yes"/>
      <point x="368" y="223" type="line"/>
      <point x="512" y="640" type="line" smooth="yes"/>
      <point x="518" y="657"/>
      <point x="533" y="668"/>
      <point x="551" y="668" type="curve" smooth="yes"/>
      <point x="663" y="668" type="line" smooth="yes"/>
      <point x="686" y="668"/>
      <point x="704" y="649"/>
      <point x="704" y="626" type="curve" smooth="yes"/>
      <point x="704" y="0" type="line" smooth="yes"/>
      <point x="704" y="-23"/>
      <point x="686" y="-42"/>
      <point x="663" y="-42" type="curve" smooth="yes"/>
      <point x="583" y="-42" type="line" smooth="yes"/>
      <point x="560" y="-42"/>
      <point x="541" y="-23"/>
      <point x="541" y="0" type="curve" smooth="yes"/>
      <point x="541" y="277" type="line"/>
      <point x="440" y="-14" type="line" smooth="yes"/>
      <point x="434" y="-31"/>
      <point x="419" y="-42"/>
      <point x="401" y="-42" type="curve" smooth="yes"/>
      <point x="326" y="-42" type="line" smooth="yes"/>
      <point x="308" y="-42"/>
      <point x="293" y="-30"/>
      <point x="287" y="-13" type="curve" smooth="yes"/>
      <point x="187" y="281" type="line"/>
      <point x="187" y="0" type="line" smooth="yes"/>
      <point x="187" y="-23"/>
      <point x="168" y="-42"/>
      <point x="145" y="-42" type="curve" smooth="yes"/>
      <point x="65" y="-42" type="line" smooth="yes"/>
      <point x="42" y="-42"/>
      <point x="23" y="-23"/>
    </contour>
  </outline>
</glyph>
<glyph name="N" format="2">
  <advance width="697"/>
  <unicode hex="004E"/>
  <outline>
    <contour>
      <point x="23" y="0" type="curve" smooth="yes"/>
      <point x="23" y="626" type="line" smooth="yes"/>
      <point x="23" y="649"/>
      <point x="42" y="668"/>
      <point x="65" y="668" type="curve" smooth="yes"/>
      <point x="150" y="668" type="line" smooth="yes"/>
      <point x="164" y="668"/>
      <point x="176" y="662"/>
      <point x="184" y="650" type="curve" smooth="yes"/>
      <point x="437" y="272" type="line"/>
      <point x="437" y="626" type="line" smooth="yes"/>
      <point x="437" y="649"/>
      <point x="456" y="668"/>
      <point x="479" y="668" type="curve" smooth="yes"/>
      <point x="558" y="668" type="line" smooth="yes"/>
      <point x="581" y="668"/>
      <point x="600" y="649"/>
      <point x="600" y="626" type="curve" smooth="yes"/>
      <point x="600" y="0" type="line" smooth="yes"/>
      <point x="600" y="-23"/>
      <point x="581" y="-42"/>
      <point x="558" y="-42" type="curve" smooth="yes"/>
      <point x="473" y="-42" type="line" smooth="yes"/>
      <point x="459" y="-42"/>
      <point x="446" y="-35"/>
      <point x="438" y="-23" type="curve" smooth="yes"/>
      <point x="186" y="355" type="line"/>
      <point x="186" y="0" type="line" smooth="yes"/>
      <point x="186" y="-23"/>
      <point x="167" y="-42"/>
      <point x="144" y="-42" type="curve" smooth="yes"/>
      <point x="65" y="-42" type="line" smooth="yes"/>
      <point x="42" y="-42"/>
      <point x="23" y="-23"/>
    </contour>
  </outline>
</glyph>
<glyph name="P" format="2">
  <advance width="657"/>
  <unicode hex="0050"/>
  <outline>
    <contour>
      <point x="23" y="0" type="curve" smooth="yes"/>
      <point x="23" y="626" type="line" smooth="yes"/>
      <point x="23" y="649"/>
      <point x="42" y="668"/>
      <point x="65" y="668" type="curve" smooth="yes"/>
      <point x="301" y="668" type="line" smooth="yes"/>
      <point x="346" y="668"/>
      <point x="379" y="665"/>
      <point x="403" y="661" type="curve" smooth="yes"/>
      <point x="440" y="655"/>
      <point x="472" y="643"/>
      <point x="497" y="625" type="curve" smooth="yes"/>
      <point x="523" y="607"/>
      <point x="545" y="582"/>
      <point x="561" y="549" type="curve" smooth="yes"/>
      <point x="576" y="518"/>
      <point x="584" y="484"/>
      <point x="584" y="447" type="curve" smooth="yes"/>
      <point x="584" y="444" type="line" smooth="yes"/>
      <point x="584" y="380"/>
      <point x="563" y="326"/>
      <point x="522" y="282" type="curve" smooth="yes"/>
      <point x="482" y="239"/>
      <point x="412" y="213"/>
      <point x="308" y="213" type="curve" smooth="yes"/>
      <point x="189" y="213" type="line"/>
      <point x="189" y="0" type="line" smooth="yes"/>
      <point x="189" y="-23"/>
      <point x="170" y="-42"/>
      <point x="147" y="-42" type="curve" smooth="yes"/>
      <point x="65" y="-42" type="line" smooth="yes"/>
      <point x="42" y="-42"/>
      <point x="23" y="-23"/>
    </contour>
    <contour>
      <point x="189" y="370" type="line"/>
      <point x="309" y="370" type="line" smooth="yes"/>
      <point x="349" y="370"/>
      <point x="379" y="375"/>
      <point x="396" y="390" type="curve" smooth="yes"/>
      <point x="410" y="402"/>
      <point x="415" y="420"/>
      <point x="415" y="443" type="curve" smooth="yes"/>
      <point x="415" y="460"/>
      <point x="411" y="474"/>
      <point x="403" y="486" type="curve" smooth="yes"/>
      <point x="396" y="496"/>
      <point x="386" y="504"/>
      <point x="374" y="507" type="curve" smooth="yes"/>
      <point x="362" y="510"/>
      <point x="340" y="511"/>
      <point x="308" y="511" type="curve" smooth="yes"/>
      <point x="189" y="511" type="line"/>
    </contour>
  </outline>
</glyph>
<glyph name="Q" format="2">
  <advance width="776"/>
  <unicode hex="0051"/>
  <outline>
    <contour>
      <point x="9" y="313" type="curve" smooth="yes"/>
      <point x="9" y="382"/>
      <point x="23" y="444"/>
      <point x="51" y="500" type="curve" smooth="yes"/>
      <point x="80" y="559"/>
      <point x="122" y="603"/>
      <point x="175" y="634" type="curve" smooth="yes"/>
      <point x="227" y="664"/>
      <point x="286" y="679"/>
      <point x="351" y="679" type="curve" smooth="yes"/>
      <point x="417" y="679"/>
      <point x="475" y="663"/>
      <point x="528" y="632" type="curve" smooth="yes"/>
      <point x="581" y="600"/>
      <point x="622" y="556"/>
      <point x="650" y="499" type="curve" smooth="yes"/>
      <point x="677" y="445"/>
      <point x="691" y="385"/>
      <point x="691" y="317" type="curve" smooth="yes"/>
      <point x="691" y="314" type="line"/>
      <point x="691" y="311" type="line" smooth="yes"/>
      <point x="691" y="255"/>
      <point x="682" y="205"/>
      <point x="665" y="160" type="curve" smooth="yes"/>
      <point x="653" y="130"/>
      <point x="638" y="101"/>
      <point x="619" y="76" type="curve"/>
      <point x="639" y="64"/>
      <point x="658" y="55"/>
      <point x="676" y="48" type="curve" smooth="yes"/>
      <point x="687" y="44"/>
      <point x="696" y="35"/>
      <point x="700" y="25" type="curve" smooth="yes"/>
      <point x="702" y="20"/>
      <point x="703" y="15"/>
      <point x="703" y="9" type="curve" smooth="yes"/>
      <point x="703" y="3"/>
      <point x="702" y="-2"/>
      <point x="700" y="-7" type="curve" smooth="yes"/>
      <point x="676" y="-65" type="line" smooth="yes"/>
      <point x="669" y="-81"/>
      <point x="653" y="-90"/>
      <point x="637" y="-90" type="curve" smooth="yes"/>
      <point x="632" y="-90"/>
      <point x="628" y="-90"/>
      <point x="623" y="-88" type="curve" smooth="yes"/>
      <point x="581" y="-73"/>
      <point x="539" y="-51"/>
      <point x="498" y="-21" type="curve"/>
      <point x="452" y="-42"/>
      <point x="403" y="-52"/>
      <point x="349" y="-52" type="curve" smooth="yes"/>
      <point x="284" y="-52"/>
      <point x="226" y="-37"/>
      <point x="173" y="-6" type="curve" smooth="yes"/>
      <point x="120" y="25"/>
      <point x="80" y="70"/>
      <point x="51" y="127" type="curve" smooth="yes"/>
      <point x="23" y="182"/>
      <point x="9" y="244"/>
    </contour>
    <contour>
      <point x="178" y="310" type="line" smooth="yes"/>
      <point x="178" y="243"/>
      <point x="193" y="190"/>
      <point x="227" y="154" type="curve" smooth="yes"/>
      <point x="250" y="129"/>
      <point x="279" y="113"/>
      <point x="312" y="106" type="curve"/>
      <point x="311" y="113"/>
      <point x="311" y="119"/>
      <point x="313" y="126" type="curve" smooth="yes"/>
      <point x="333" y="186" type="line" smooth="yes"/>
      <point x="339" y="203"/>
      <point x="355" y="215"/>
      <point x="373" y="215" type="curve" smooth="yes"/>
      <point x="377" y="215"/>
      <point x="380" y="214"/>
      <point x="384" y="213" type="curve" smooth="yes"/>
      <point x="423" y="202"/>
      <point x="456" y="187"/>
      <point x="485" y="169" type="curve"/>
      <point x="511" y="205"/>
      <point x="522" y="254"/>
      <point x="522" y="314" type="curve" smooth="yes"/>
      <point x="522" y="358"/>
      <point x="515" y="396"/>
      <point x="500" y="429" type="curve" smooth="yes"/>
      <point x="486" y="459"/>
      <point x="466" y="482"/>
      <point x="440" y="499" type="curve" smooth="yes"/>
      <point x="413" y="516"/>
      <point x="384" y="524"/>
      <point x="351" y="524" type="curve" smooth="yes"/>
      <point x="301" y="524"/>
      <point x="260" y="508"/>
      <point x="227" y="474" type="curve" smooth="yes"/>
      <point x="194" y="439"/>
      <point x="179" y="388"/>
      <point x="178" y="320" type="curve" smooth="yes"/>
    </contour>
  </outline>
</glyph>
<glyph name="R" format="2">
  <advance width="725"/>
  <unicode hex="0052"/>
  <outline>
    <contour>
      <point x="23" y="0" type="curve" smooth="yes"/>
      <point x="23" y="626" type="line" smooth="yes"/>
      <point x="23" y="649"/>
      <point x="42" y="668"/>
      <point x="65" y="668" type="curve" smooth="yes"/>
      <point x="342" y="668" type="line" smooth="yes"/>
      <point x="404" y="668"/>
      <point x="452" y="661"/>
      <point x="485" y="648" type="curve" smooth="yes"/>
      <point x="523" y="633"/>
      <point x="553" y="609"/>
      <point x="575" y="572" type="curve" smooth="yes"/>
      <point x="596" y="537"/>
      <point x="607" y="499"/>
      <point x="607" y="457" type="curve" smooth="yes"/>
      <point x="607" y="455" type="line" smooth="yes"/>
      <point x="607" y="399"/>
      <point x="589" y="352"/>
      <point x="553" y="314" type="curve" smooth="yes"/>
      <point x="535" y="295"/>
      <point x="512" y="280"/>
      <point x="484" y="268" type="curve"/>
      <point x="504" y="247"/>
      <point x="524" y="222"/>
      <point x="543" y="193" type="curve" smooth="yes"/>
      <point x="652" y="22" type="line" smooth="yes"/>
      <point x="656" y="15"/>
      <point x="658" y="8"/>
      <point x="658" y="0" type="curve" smooth="yes"/>
      <point x="658" y="-7"/>
      <point x="656" y="-14"/>
      <point x="653" y="-20" type="curve" smooth="yes"/>
      <point x="646" y="-33"/>
      <point x="632" y="-42"/>
      <point x="617" y="-42" type="curve" smooth="yes"/>
      <point x="513" y="-42" type="line" smooth="yes"/>
      <point x="499" y="-42"/>
      <point x="485" y="-34"/>
      <point x="477" y="-22" type="curve" smooth="yes"/>
      <point x="395" y="108" type="line" smooth="yes"/>
      <point x="372" y="144"/>
      <point x="352" y="172"/>
      <point x="337" y="191" type="curve" smooth="yes"/>
      <point x="325" y="206"/>
      <point x="315" y="217"/>
      <point x="305" y="223" type="curve" smooth="yes"/>
      <point x="297" y="228"/>
      <point x="289" y="233"/>
      <point x="281" y="235" type="curve" smooth="yes"/>
      <point x="277" y="236"/>
      <point x="272" y="236"/>
      <point x="266" y="236" type="curve" smooth="yes"/>
      <point x="244" y="236" type="line"/>
      <point x="189" y="236" type="line"/>
      <point x="189" y="0" type="line" smooth="yes"/>
      <point x="189" y="-23"/>
      <point x="171" y="-42"/>
      <point x="148" y="-42" type="curve" smooth="yes"/>
      <point x="65" y="-42" type="line" smooth="yes"/>
      <point x="42" y="-42"/>
      <point x="23" y="-23"/>
    </contour>
    <contour>
      <point x="189" y="392" type="line"/>
      <point x="326" y="392" type="line" smooth="yes"/>
      <point x="358" y="392"/>
      <point x="382" y="394"/>
      <point x="400" y="401" type="curve" smooth="yes"/>
      <point x="412" y="405"/>
      <point x="422" y="412"/>
      <point x="428" y="422" type="curve" smooth="yes"/>
      <point x="435" y="432"/>
      <point x="438" y="443"/>
      <point x="438" y="455" type="curve" smooth="yes"/>
      <point x="438" y="472"/>
      <point x="432" y="486"/>
      <point x="420" y="497" type="curve" smooth="yes"/>
      <point x="404" y="511"/>
      <point x="380" y="515"/>
      <point x="346" y="515" type="curve" smooth="yes"/>
      <point x="189" y="515" type="line"/>
    </contour>
  </outline>
</glyph>
<glyph name="T" format="2">
  <advance width="676"/>
  <unicode hex="0054"/>
  <outline>
    <contour>
      <point x="23" y="552" type="curve" smooth="yes"/>
      <point x="23" y="626" type="line" smooth="yes"/>
      <point x="23" y="649"/>
      <point x="42" y="668"/>
      <point x="65" y="668" type="curve" smooth="yes"/>
      <point x="561" y="668" type="line" smooth="yes"/>
      <point x="584" y="668"/>
      <point x="603" y="649"/>
      <point x="603" y="626" type="curve" smooth="yes"/>
      <point x="603" y="552" type="line" smooth="yes"/>
      <point x="603" y="529"/>
      <point x="584" y="511"/>
      <point x="561" y="511" type="curve" smooth="yes"/>
      <point x="395" y="511" type="line"/>
      <point x="395" y="0" type="line" smooth="yes"/>
      <point x="395" y="-23"/>
      <point x="377" y="-42"/>
      <point x="354" y="-42" type="curve" smooth="yes"/>
      <point x="271" y="-42" type="line" smooth="yes"/>
      <point x="248" y="-42"/>
      <point x="229" y="-23"/>
      <point x="229" y="0" type="curve" smooth="yes"/>
      <point x="229" y="511" type="line"/>
      <point x="65" y="511" type="line" smooth="yes"/>
      <point x="42" y="511"/>
      <point x="23" y="529"/>
    </contour>
  </outline>
</glyph>
<glyph name="V" format="2">
  <advance width="740"/>
  <unicode hex="0056"/>
  <outline>
    <contour>
      <point x="22" y="626" type="curve" smooth="yes"/>
      <point x="22" y="634"/>
      <point x="24" y="643"/>
      <point x="29" y="650" type="curve" smooth="yes"/>
      <point x="37" y="661"/>
      <point x="50" y="668"/>
      <point x="64" y="668" type="curve" smooth="yes"/>
      <point x="154" y="668" type="line" smooth="yes"/>
      <point x="172" y="668"/>
      <point x="187" y="657"/>
      <point x="193" y="640" type="curve" smooth="yes"/>
      <point x="350" y="202" type="line"/>
      <point x="513" y="641" type="line" smooth="yes"/>
      <point x="519" y="657"/>
      <point x="535" y="668"/>
      <point x="552" y="668" type="curve" smooth="yes"/>
      <point x="637" y="668" type="line" smooth="yes"/>
      <point x="651" y="668"/>
      <point x="663" y="661"/>
      <point x="671" y="650" type="curve" smooth="yes"/>
      <point x="676" y="643"/>
      <point x="678" y="634"/>
      <point x="678" y="626" type="curve" smooth="yes"/>
      <point x="678" y="621"/>
      <point x="678" y="616"/>
      <point x="676" y="611" type="curve" smooth="yes"/>
      <point x="430" y="-15" type="line" smooth="yes"/>
      <point x="424" y="-31"/>
      <point x="409" y="-42"/>
      <point x="392" y="-42" type="curve" smooth="yes"/>
      <point x="307" y="-42" type="line" smooth="yes"/>
      <point x="290" y="-42"/>
      <point x="274" y="-31"/>
      <point x="268" y="-15" type="curve" smooth="yes"/>
      <point x="25" y="611" type="line" smooth="yes"/>
      <point x="23" y="616"/>
      <point x="22" y="621"/>
    </contour>
  </outline>
</glyph>
<glyph name="W" format="2">
  <advance width="980"/>
  <unicode hex="0057"/>
  <outline>
    <contour>
      <point x="22" y="626" type="curve" smooth="yes"/>
      <point x="22" y="635"/>
      <point x="25" y="645"/>
      <point x="31" y="652" type="curve" smooth="yes"/>
      <point x="39" y="662"/>
      <point x="51" y="668"/>
      <point x="64" y="668" type="curve" smooth="yes"/>
      <point x="149" y="668" type="line" smooth="yes"/>
      <point x="168" y="668"/>
      <point x="185" y="655"/>
      <point x="189" y="636" type="curve" smooth="yes"/>
      <point x="274" y="270" type="line"/>
      <point x="378" y="638" type="line" smooth="yes"/>
      <point x="383" y="656"/>
      <point x="399" y="668"/>
      <point x="418" y="668" type="curve" smooth="yes"/>
      <point x="518" y="668" type="line" smooth="yes"/>
      <point x="537" y="668"/>
      <point x="553" y="656"/>
      <point x="558" y="638" type="curve" smooth="yes"/>
      <point x="648" y="321" type="line" smooth="yes"/>
      <point x="652" y="308"/>
      <point x="656" y="294"/>
      <point x="659" y="281" type="curve"/>
      <point x="745" y="636" type="line" smooth="yes"/>
      <point x="750" y="655"/>
      <point x="767" y="668"/>
      <point x="786" y="668" type="curve" smooth="yes"/>
      <point x="869" y="668" type="line" smooth="yes"/>
      <point x="882" y="668"/>
      <point x="894" y="662"/>
      <point x="902" y="652" type="curve" smooth="yes"/>
      <point x="908" y="645"/>
      <point x="911" y="635"/>
      <point x="911" y="626" type="curve" smooth="yes"/>
      <point x="911" y="622"/>
      <point x="910" y="619"/>
      <point x="909" y="615" type="curve" smooth="yes"/>
      <point x="737" y="-11" type="line" smooth="yes"/>
      <point x="732" y="-29"/>
      <point x="716" y="-42"/>
      <point x="697" y="-42" type="curve" smooth="yes"/>
      <point x="617" y="-42" type="line" smooth="yes"/>
      <point x="598" y="-42"/>
      <point x="582" y="-29"/>
      <point x="577" y="-11" type="curve" smooth="yes"/>
      <point x="466" y="390" type="line"/>
      <point x="355" y="-11" type="line" smooth="yes"/>
      <point x="350" y="-29"/>
      <point x="333" y="-42"/>
      <point x="314" y="-42" type="curve" smooth="yes"/>
      <point x="230" y="-42" type="line" smooth="yes"/>
      <point x="211" y="-42"/>
      <point x="195" y="-29"/>
      <point x="190" y="-11" type="curve" smooth="yes"/>
      <point x="23" y="616" type="line" smooth="yes"/>
      <point x="22" y="620"/>
      <point x="22" y="622"/>
    </contour>
  </outline>
</glyph>
<glyph name="X" format="2">
  <advance width="734"/>
  <unicode hex="0058"/>
  <outline>
    <contour>
      <point x="13" y="0" type="curve" smooth="yes"/>
      <point x="13" y="9"/>
      <point x="16" y="18"/>
      <point x="21" y="25" type="curve" smooth="yes"/>
      <point x="246" y="327" type="line"/>
      <point x="50" y="602" type="line" smooth="yes"/>
      <point x="45" y="609"/>
      <point x="42" y="617"/>
      <point x="42" y="626" type="curve" smooth="yes"/>
      <point x="42" y="633"/>
      <point x="43" y="639"/>
      <point x="46" y="645" type="curve" smooth="yes"/>
      <point x="53" y="659"/>
      <point x="67" y="668"/>
      <point x="83" y="668" type="curve" smooth="yes"/>
      <point x="182" y="668" type="line" smooth="yes"/>
      <point x="196" y="668"/>
      <point x="208" y="661"/>
      <point x="216" y="650" type="curve" smooth="yes"/>
      <point x="330" y="490" type="line" smooth="yes"/>
      <point x="336" y="481"/>
      <point x="342" y="473"/>
      <point x="347" y="465" type="curve"/>
      <point x="352" y="472"/>
      <point x="358" y="478"/>
      <point x="363" y="485" type="curve" smooth="yes"/>
      <point x="489" y="652" type="line" smooth="yes"/>
      <point x="497" y="662"/>
      <point x="509" y="668"/>
      <point x="522" y="668" type="curve" smooth="yes"/>
      <point x="612" y="668" type="line" smooth="yes"/>
      <point x="628" y="668"/>
      <point x="642" y="659"/>
      <point x="649" y="645" type="curve" smooth="yes"/>
      <point x="652" y="639"/>
      <point x="654" y="633"/>
      <point x="654" y="627" type="curve" smooth="yes"/>
      <point x="654" y="626" type="line" smooth="yes"/>
      <point x="654" y="617"/>
      <point x="650" y="608"/>
      <point x="645" y="601" type="curve" smooth="yes"/>
      <point x="444" y="331" type="line"/>
      <point x="663" y="24" type="line" smooth="yes"/>
      <point x="668" y="17"/>
      <point x="671" y="8"/>
      <point x="671" y="0" type="curve" smooth="yes"/>
      <point x="671" y="-6"/>
      <point x="669" y="-13"/>
      <point x="666" y="-19" type="curve" smooth="yes"/>
      <point x="659" y="-33"/>
      <point x="645" y="-42"/>
      <point x="629" y="-42" type="curve" smooth="yes"/>
      <point x="527" y="-42" type="line" smooth="yes"/>
      <point x="513" y="-42"/>
      <point x="500" y="-35"/>
      <point x="492" y="-24" type="curve" smooth="yes"/>
      <point x="342" y="189" type="line"/>
      <point x="188" y="-24" type="line" smooth="yes"/>
      <point x="180" y="-35"/>
      <point x="167" y="-42"/>
      <point x="154" y="-42" type="curve" smooth="yes"/>
      <point x="55" y="-42" type="line" smooth="yes"/>
      <point x="39" y="-42"/>
      <point x="25" y="-33"/>
      <point x="18" y="-19" type="curve" smooth="yes"/>
      <point x="15" y="-13"/>
      <point x="13" y="-6"/>
    </contour>
  </outline>
</glyph>
<glyph name="Y" format="2">
  <advance width="733"/>
  <unicode hex="0059"/>
  <outline>
    <contour>
      <point x="13" y="626" type="curve" smooth="yes"/>
      <point x="13" y="633"/>
      <point x="15" y="640"/>
      <point x="18" y="646" type="curve" smooth="yes"/>
      <point x="25" y="660"/>
      <point x="40" y="668"/>
      <point x="55" y="668" type="curve" smooth="yes"/>
      <point x="155" y="668" type="line" smooth="yes"/>
      <point x="169" y="668"/>
      <point x="182" y="661"/>
      <point x="190" y="649" type="curve" smooth="yes"/>
      <point x="314" y="460" type="line" smooth="yes"/>
      <point x="324" y="444"/>
      <point x="334" y="429"/>
      <point x="343" y="413" type="curve"/>
      <point x="353" y="429"/>
      <point x="364" y="447"/>
      <point x="376" y="465" type="curve" smooth="yes"/>
      <point x="497" y="649" type="line" smooth="yes"/>
      <point x="505" y="661"/>
      <point x="518" y="668"/>
      <point x="532" y="668" type="curve" smooth="yes"/>
      <point x="629" y="668" type="line" smooth="yes"/>
      <point x="644" y="668"/>
      <point x="659" y="660"/>
      <point x="666" y="646" type="curve" smooth="yes"/>
      <point x="669" y="640"/>
      <point x="670" y="634"/>
      <point x="670" y="627" type="curve" smooth="yes"/>
      <point x="670" y="626" type="line" smooth="yes"/>
      <point x="670" y="618"/>
      <point x="668" y="610"/>
      <point x="663" y="603" type="curve" smooth="yes"/>
      <point x="421" y="252" type="line"/>
      <point x="421" y="0" type="line" smooth="yes"/>
      <point x="421" y="-23"/>
      <point x="402" y="-42"/>
      <point x="379" y="-42" type="curve" smooth="yes"/>
      <point x="296" y="-42" type="line" smooth="yes"/>
      <point x="273" y="-42"/>
      <point x="254" y="-23"/>
      <point x="254" y="0" type="curve" smooth="yes"/>
      <point x="254" y="253" type="line"/>
      <point x="20" y="603" type="line" smooth="yes"/>
      <point x="15" y="610"/>
      <point x="13" y="618"/>
    </contour>
  </outline>
</glyph>
<glyph name="bracketleft" format="2">
  <advance width="319"/>
  <unicode hex="005B"/>
  <outline>
    <contour>
      <point x="13" y="-124" type="curve" smooth="yes"/>
      <point x="13" y="676" type="line" smooth="yes"/>
      <point x="13" y="699"/>
      <point x="31" y="718"/>
      <point x="54" y="718" type="curve" smooth="yes"/>
      <point x="224" y="718" type="line" smooth="yes"/>
      <point x="247" y="718"/>
      <point x="266" y="699"/>
      <point x="266" y="676" type="curve" smooth="yes"/>
      <point x="266" y="613" type="line"/>
      <point x="266" y="612" type="line" smooth="yes"/>
      <point x="266" y="589"/>
      <point x="247" y="571"/>
      <point x="224" y="571" type="curve" smooth="yes"/>
      <point x="173" y="571" type="line"/>
      <point x="173" y="-19" type="line"/>
      <point x="224" y="-19" type="line" smooth="yes"/>
      <point x="247" y="-19"/>
      <point x="266" y="-37"/>
      <point x="266" y="-60" type="curve" smooth="yes"/>
      <point x="266" y="-124" type="line" smooth="yes"/>
      <point x="266" y="-147"/>
      <point x="247" y="-166"/>
      <point x="224" y="-166" type="curve" smooth="yes"/>
      <point x="54" y="-166" type="line" smooth="yes"/>
      <point x="31" y="-166"/>
      <point x="13" y="-147"/>
    </contour>
  </outline>
</glyph>
<glyph name="backslash" format="2">
  <advance width="400"/>
  <unicode hex="005C"/>
  <outline>
    <contour>
      <point x="10" y="637" type="curve" smooth="yes"/>
      <point x="10" y="646"/>
      <point x="13" y="655"/>
      <point x="19" y="662" type="curve" smooth="yes"/>
      <point x="27" y="672"/>
      <point x="39" y="679"/>
      <point x="52" y="679" type="curve" smooth="yes"/>
      <point x="114" y="679" type="line" smooth="yes"/>
      <point x="133" y="679"/>
      <point x="149" y="666"/>
      <point x="154" y="648" type="curve" smooth="yes"/>
      <point x="335" y="1" type="line" smooth="yes"/>
      <point x="336" y="-3"/>
      <point x="337" y="-6"/>
      <point x="337" y="-10" type="curve" smooth="yes"/>
      <point x="337" y="-11" type="line" smooth="yes"/>
      <point x="337" y="-20"/>
      <point x="334" y="-29"/>
      <point x="328" y="-36" type="curve" smooth="yes"/>
      <point x="320" y="-46"/>
      <point x="308" y="-52"/>
      <point x="295" y="-52" type="curve" smooth="yes"/>
      <point x="234" y="-52" type="line" smooth="yes"/>
      <point x="215" y="-52"/>
      <point x="198" y="-40"/>
      <point x="193" y="-22" type="curve" smooth="yes"/>
      <point x="12" y="626" type="line" smooth="yes"/>
      <point x="11" y="630"/>
      <point x="10" y="633"/>
    </contour>
  </outline>
</glyph>
<glyph name="bracketright" format="2">
  <advance width="319"/>
  <unicode hex="005D"/>
  <outline>
    <contour>
      <point x="9" y="-60" type="line" smooth="yes"/>
      <point x="9" y="-37"/>
      <point x="28" y="-19"/>
      <point x="51" y="-19" type="curve" smooth="yes"/>
      <point x="102" y="-19" type="line"/>
      <point x="102" y="571" type="line"/>
      <point x="51" y="571" type="line" smooth="yes"/>
      <point x="28" y="571"/>
      <point x="9" y="590"/>
      <point x="9" y="613" type="curve" smooth="yes"/>
      <point x="9" y="676" type="line" smooth="yes"/>
      <point x="9" y="699"/>
      <point x="28" y="718"/>
      <point x="51" y="718" type="curve" smooth="yes"/>
      <point x="220" y="718" type="line" smooth="yes"/>
      <point x="243" y="718"/>
      <point x="262" y="699"/>
      <point x="262" y="676" type="curve" smooth="yes"/>
      <point x="262" y="-124" type="line" smooth="yes"/>
      <point x="262" y="-147"/>
      <point x="243" y="-166"/>
      <point x="220" y="-166" type="curve" smooth="yes"/>
      <point x="51" y="-166" type="line" smooth="yes"/>
      <point x="28" y="-166"/>
      <point x="9" y="-147"/>
      <point x="9" y="-124" type="curve" smooth="yes"/>
    </contour>
  </outline>
</glyph>
<glyph name="asciicircum" format="2">
  <advance width="500"/>
  <unicode hex="005E"/>
  <outline>
    <contour>
      <point x="9" y="295" type="curve" smooth="yes"/>
      <point x="9" y="301"/>
      <point x="11" y="307"/>
      <point x="13" y="312" type="curve" smooth="yes"/>
      <point x="164" y="654" type="line" smooth="yes"/>
      <point x="171" y="669"/>
      <point x="185" y="679"/>
      <point x="202" y="679" type="curve" smooth="yes"/>
      <point x="264" y="679" type="line" smooth="yes"/>
      <point x="280" y="679"/>
      <point x="295" y="669"/>
      <point x="302" y="654" type="curve" smooth="yes"/>
      <point x="454" y="312" type="line" smooth="yes"/>
      <point x="456" y="307"/>
      <point x="457" y="301"/>
      <point x="457" y="295" type="curve" smooth="yes"/>
      <point x="457" y="287"/>
      <point x="454" y="279"/>
      <point x="450" y="272" type="curve" smooth="yes"/>
      <point x="442" y="260"/>
      <point x="430" y="253"/>
      <point x="416" y="253" type="curve" smooth="yes"/>
      <point x="338" y="253" type="line" smooth="yes"/>
      <point x="321" y="253"/>
      <point x="306" y="263"/>
      <point x="300" y="279" type="curve" smooth="yes"/>
      <point x="233" y="440" type="line"/>
      <point x="169" y="279" type="line" smooth="yes"/>
      <point x="163" y="263"/>
      <point x="147" y="253"/>
      <point x="130" y="253" type="curve" smooth="yes"/>
      <point x="51" y="253" type="line" smooth="yes"/>
      <point x="37" y="253"/>
      <point x="24" y="260"/>
      <point x="16" y="272" type="curve" smooth="yes"/>
      <point x="12" y="279"/>
      <point x="9" y="287"/>
    </contour>
  </outline>
</glyph>
<glyph name="underscore" format="2">
  <advance width="633"/>
  <unicode hex="005F"/>
  <outline>
    <contour>
      <point x="20" y="-118" type="line" smooth="yes"/>
      <point x="20" y="-95"/>
      <point x="39" y="-77"/>
      <point x="62" y="-77" type="curve" smooth="yes"/>
      <point x="571" y="-77" type="line" smooth="yes"/>
      <point x="594" y="-77"/>
      <point x="613" y="-95"/>
      <point x="613" y="-118" type="curve" smooth="yes"/>
      <point x="613" y="-174" type="line" smooth="yes"/>
      <point x="613" y="-197"/>
      <point x="594" y="-216"/>
      <point x="571" y="-216" type="curve" smooth="yes"/>
      <point x="62" y="-216" type="line" smooth="yes"/>
      <point x="39" y="-216"/>
      <point x="20" y="-197"/>
      <point x="20" y="-174" type="curve" smooth="yes"/>
    </contour>
  </outline>
</glyph>
<glyph name="grave" format="2">
  <advance width="310"/>
  <unicode hex="0060"/>
  <outline>
    <contour>
      <point x="13" y="630" type="curve" smooth="yes"/>
      <point x="13" y="636"/>
      <point x="14" y="642"/>
      <point x="17" y="648" type="curve" smooth="yes"/>
      <point x="24" y="663"/>
      <point x="39" y="671"/>
      <point x="55" y="671" type="curve" smooth="yes"/>
      <point x="158" y="671" type="line" smooth="yes"/>
      <point x="174" y="671"/>
      <point x="189" y="662"/>
      <point x="196" y="648" type="curve" smooth="yes"/>
      <point x="253" y="528" type="line" smooth="yes"/>
      <point x="256" y="522"/>
      <point x="257" y="516"/>
      <point x="257" y="510" type="curve" smooth="yes"/>
      <point x="257" y="502"/>
      <point x="255" y="495"/>
      <point x="251" y="488" type="curve" smooth="yes"/>
      <point x="243" y="476"/>
      <point x="230" y="468"/>
      <point x="216" y="468" type="curve" smooth="yes"/>
      <point x="154" y="468" type="line" smooth="yes"/>
      <point x="142" y="468"/>
      <point x="130" y="474"/>
      <point x="122" y="484" type="curve" smooth="yes"/>
      <point x="23" y="603" type="line" smooth="yes"/>
      <point x="17" y="611"/>
      <point x="13" y="621"/>
    </contour>
  </outline>
</glyph>
<glyph name="a" format="2">
  <advance width="571"/>
  <unicode hex="0061"/>
  <outline>
    <contour>
      <point x="13" y="120" type="curve" smooth="yes"/>
      <point x="13" y="150"/>
      <point x="20" y="177"/>
      <point x="33" y="201" type="curve" smooth="yes"/>
      <point x="46" y="225"/>
      <point x="64" y="244"/>
      <point x="86" y="259" type="curve" smooth="yes"/>
      <point x="95" y="265"/>
      <point x="105" y="271"/>
      <point x="115" y="276" type="curve"/>
      <point x="62" y="283" type="line" smooth="yes"/>
      <point x="51" y="285"/>
      <point x="41" y="291"/>
      <point x="34" y="300" type="curve" smooth="yes"/>
      <point x="29" y="307"/>
      <point x="26" y="315"/>
      <point x="26" y="324" type="curve" smooth="yes"/>
      <point x="26" y="327"/>
      <point x="26" y="330"/>
      <point x="27" y="333" type="curve" smooth="yes"/>
      <point x="35" y="372"/>
      <point x="50" y="404"/>
      <point x="69" y="428" type="curve" smooth="yes"/>
      <point x="89" y="453"/>
      <point x="117" y="473"/>
      <point x="155" y="487" type="curve" smooth="yes"/>
      <point x="189" y="499"/>
      <point x="229" y="506"/>
      <point x="273" y="506" type="curve" smooth="yes"/>
      <point x="318" y="506"/>
      <point x="354" y="500"/>
      <point x="382" y="489" type="curve" smooth="yes"/>
      <point x="414" y="477"/>
      <point x="438" y="460"/>
      <point x="453" y="442" type="curve" smooth="yes"/>
      <point x="468" y="423"/>
      <point x="479" y="400"/>
      <point x="485" y="372" type="curve" smooth="yes"/>
      <point x="488" y="357"/>
      <point x="490" y="331"/>
      <point x="490" y="293" type="curve" smooth="yes"/>
      <point x="490" y="190" type="line" smooth="yes"/>
      <point x="490" y="122"/>
      <point x="491" y="80"/>
      <point x="494" y="62" type="curve" smooth="yes"/>
      <point x="496" y="48"/>
      <point x="502" y="33"/>
      <point x="509" y="20" type="curve" smooth="yes"/>
      <point x="513" y="14"/>
      <point x="514" y="7"/>
      <point x="514" y="0" type="curve" smooth="yes"/>
      <point x="514" y="-7"/>
      <point x="512" y="-14"/>
      <point x="508" y="-21" type="curve" smooth="yes"/>
      <point x="501" y="-34"/>
      <point x="488" y="-42"/>
      <point x="473" y="-42" type="curve" smooth="yes"/>
      <point x="392" y="-42" type="line" smooth="yes"/>
      <point x="376" y="-42"/>
      <point x="362" y="-33"/>
      <point x="355" y="-19" type="curve" smooth="yes"/>
      <point x="352" y="-13" type="line"/>
      <point x="337" y="-22"/>
      <point x="323" y="-29"/>
      <point x="309" y="-34" type="curve" smooth="yes"/>
      <point x="278" y="-46"/>
      <point x="245" y="-52"/>
      <point x="210" y="-52" type="curve" smooth="yes"/>
      <point x="148" y="-52"/>
      <point x="100" y="-35"/>
      <point x="67" y="-5" type="curve" smooth="yes"/>
      <point x="31" y="27"/>
      <point x="13" y="70"/>
    </contour>
    <contour>
      <point x="178" y="122" type="curve" smooth="yes"/>
      <point x="178" y="114"/>
      <point x="182" y="107"/>
      <point x="188" y="102" type="curve" smooth="yes"/>
      <point x="197" y="94"/>
      <point x="210" y="92"/>
      <point x="228" y="92" type="curve" smooth="yes"/>
      <point x="250" y="92"/>
      <point x="270" y="96"/>
      <point x="287" y="106" type="curve" smooth="yes"/>
      <point x="302" y="115"/>
      <point x="313" y="126"/>
      <point x="320" y="141" type="curve" smooth="yes"/>
      <point x="324" y="149"/>
      <point x="327" y="158"/>
      <point x="328" y="171" type="curve"/>
      <point x="306" y="166"/>
      <point x="280" y="161"/>
      <point x="251" y="157" type="curve" smooth="yes"/>
      <point x="224" y="153"/>
      <point x="205" y="150"/>
      <point x="194" y="145" type="curve" smooth="yes"/>
      <point x="189" y="143"/>
      <point x="185" y="140"/>
      <point x="182" y="136" type="curve" smooth="yes"/>
      <point x="179" y="132"/>
      <point x="178" y="127"/>
    </contour>
    <contour>
      <point x="181" y="296" type="curve"/>
      <point x="194" y="298"/>
      <point x="210" y="301"/>
      <point x="228" y="303" type="curve" smooth="yes"/>
      <point x="269" y="308"/>
      <point x="303" y="313"/>
      <point x="329" y="319" type="curve"/>
      <point x="329" y="330"/>
      <point x="327" y="338"/>
      <point x="321" y="343" type="curve" smooth="yes"/>
      <point x="308" y="355"/>
      <point x="287" y="359"/>
      <point x="261" y="359" type="curve" smooth="yes"/>
      <point x="236" y="359"/>
      <point x="218" y="357"/>
      <point x="206" y="348" type="curve" smooth="yes"/>
      <point x="195" y="340"/>
      <point x="188" y="325"/>
      <point x="183" y="304" type="curve" smooth="yes"/>
      <point x="182" y="301"/>
      <point x="182" y="298"/>
    </contour>
  </outline>
</glyph>
<glyph name="b" format="2">
  <advance width="540"/>
  <unicode hex="0062"/>
  <outline>
    <contour>
      <point x="13" y="0" type="curve" smooth="yes"/>
      <point x="13" y="626" type="line" smooth="yes"/>
      <point x="13" y="649"/>
      <point x="32" y="668"/>
      <point x="55" y="668" type="curve" smooth="yes"/>
      <point x="132" y="668" type="line" smooth="yes"/>
      <point x="155" y="668"/>
      <point x="173" y="649"/>
      <point x="173" y="626" type="curve" smooth="yes"/>
      <point x="173" y="489" type="line"/>
      <point x="198" y="500"/>
      <point x="226" y="506"/>
      <point x="256" y="506" type="curve" smooth="yes"/>
      <point x="290" y="506"/>
      <point x="322" y="499"/>
      <point x="352" y="485" type="curve" smooth="yes"/>
      <point x="383" y="471"/>
      <point x="409" y="452"/>
      <point x="429" y="426" type="curve" smooth="yes"/>
      <point x="448" y="402"/>
      <point x="463" y="373"/>
      <point x="474" y="339" type="curve" smooth="yes"/>
      <point x="484" y="306"/>
      <point x="490" y="271"/>
      <point x="490" y="234" type="curve" smooth="yes"/>
      <point x="490" y="144"/>
      <point x="466" y="74"/>
      <point x="421" y="25" type="curve" smooth="yes"/>
      <point x="374" y="-27"/>
      <point x="318" y="-52"/>
      <point x="252" y="-52" type="curve" smooth="yes"/>
      <point x="216" y="-52"/>
      <point x="185" y="-44"/>
      <point x="157" y="-28" type="curve"/>
      <point x="149" y="-36"/>
      <point x="138" y="-42"/>
      <point x="126" y="-42" type="curve" smooth="yes"/>
      <point x="55" y="-42" type="line" smooth="yes"/>
      <point x="32" y="-42"/>
      <point x="13" y="-23"/>
    </contour>
    <contour>
      <point x="167" y="230" type="curve" smooth="yes"/>
      <point x="167" y="186"/>
      <point x="171" y="154"/>
      <point x="183" y="134" type="curve" smooth="yes"/>
      <point x="199" y="108"/>
      <point x="219" y="95"/>
      <point x="246" y="95" type="curve" smooth="yes"/>
      <point x="267" y="95"/>
      <point x="285" y="105"/>
      <point x="301" y="124" type="curve" smooth="yes"/>
      <point x="320" y="147"/>
      <point x="328" y="181"/>
      <point x="328" y="227" type="curve" smooth="yes"/>
      <point x="328" y="274"/>
      <point x="321" y="310"/>
      <point x="302" y="332" type="curve" smooth="yes"/>
      <point x="287" y="350"/>
      <point x="270" y="359"/>
      <point x="249" y="359" type="curve" smooth="yes"/>
      <point x="228" y="359"/>
      <point x="210" y="349"/>
      <point x="194" y="330" type="curve" smooth="yes"/>
      <point x="175" y="307"/>
      <point x="167" y="273"/>
    </contour>
  </outline>
</glyph>
<glyph name="c" format="2">
  <advance width="542"/>
  <unicode hex="0063"/>
  <outline>
    <contour>
      <point x="13" y="225" type="curve" smooth="yes"/>
      <point x="13" y="280"/>
      <point x="23" y="329"/>
      <point x="41" y="371" type="curve" smooth="yes"/>
      <point x="61" y="417"/>
      <point x="92" y="450"/>
      <point x="133" y="473" type="curve" smooth="yes"/>
      <point x="172" y="495"/>
      <point x="215" y="506"/>
      <point x="261" y="506" type="curve" smooth="yes"/>
      <point x="321" y="506"/>
      <point x="370" y="489"/>
      <point x="408" y="459" type="curve" smooth="yes"/>
      <point x="447" y="428"/>
      <point x="473" y="385"/>
      <point x="484" y="328" type="curve" smooth="yes"/>
      <point x="485" y="325"/>
      <point x="484" y="323"/>
      <point x="484" y="320" type="curve" smooth="yes"/>
      <point x="484" y="311"/>
      <point x="482" y="303"/>
      <point x="477" y="296" type="curve" smooth="yes"/>
      <point x="470" y="287"/>
      <point x="460" y="281"/>
      <point x="449" y="279" type="curve" smooth="yes"/>
      <point x="374" y="268" type="line" smooth="yes"/>
      <point x="372" y="268"/>
      <point x="370" y="267"/>
      <point x="368" y="267" type="curve" smooth="yes"/>
      <point x="349" y="267"/>
      <point x="331" y="280"/>
      <point x="327" y="299" type="curve" smooth="yes"/>
      <point x="322" y="319"/>
      <point x="315" y="336"/>
      <point x="303" y="346" type="curve" smooth="yes"/>
      <point x="292" y="355"/>
      <point x="279" y="359"/>
      <point x="264" y="359" type="curve" smooth="yes"/>
      <point x="238" y="359"/>
      <point x="217" y="350"/>
      <point x="201" y="332" type="curve" smooth="yes"/>
      <point x="182" y="310"/>
      <point x="175" y="274"/>
      <point x="175" y="227" type="curve" smooth="yes"/>
      <point x="175" y="179"/>
      <point x="182" y="143"/>
      <point x="201" y="121" type="curve" smooth="yes"/>
      <point x="216" y="103"/>
      <point x="236" y="95"/>
      <point x="260" y="95" type="curve" smooth="yes"/>
      <point x="279" y="95"/>
      <point x="295" y="99"/>
      <point x="308" y="111" type="curve" smooth="yes"/>
      <point x="322" y="124"/>
      <point x="329" y="145"/>
      <point x="333" y="172" type="curve" smooth="yes"/>
      <point x="336" y="193"/>
      <point x="354" y="208"/>
      <point x="374" y="208" type="curve" smooth="yes"/>
      <point x="380" y="208" type="line"/>
      <point x="455" y="198" type="line" smooth="yes"/>
      <point x="466" y="197"/>
      <point x="476" y="190"/>
      <point x="483" y="181" type="curve" smooth="yes"/>
      <point x="488" y="174"/>
      <point x="492" y="165"/>
      <point x="492" y="156" type="curve" smooth="yes"/>
      <point x="492" y="154"/>
      <point x="491" y="152"/>
      <point x="491" y="150" type="curve" smooth="yes"/>
      <point x="481" y="87"/>
      <point x="455" y="38"/>
      <point x="414" y="2" type="curve" smooth="yes"/>
      <point x="373" y="-34"/>
      <point x="321" y="-52"/>
      <point x="261" y="-52" type="curve" smooth="yes"/>
      <point x="186" y="-52"/>
      <point x="127" y="-27"/>
      <point x="81" y="22" type="curve" smooth="yes"/>
      <point x="37" y="69"/>
      <point x="13" y="137"/>
    </contour>
  </outline>
</glyph>
<glyph name="d" format="2">
  <advance width="547"/>
  <unicode hex="0064"/>
  <outline>
    <contour>
      <point x="13" y="226" type="curve" smooth="yes"/>
      <point x="13" y="277"/>
      <point x="21" y="323"/>
      <point x="38" y="365" type="curve" smooth="yes"/>
      <point x="57" y="410"/>
      <point x="85" y="445"/>
      <point x="122" y="469" type="curve" smooth="yes"/>
      <point x="159" y="493"/>
      <point x="200" y="506"/>
      <point x="246" y="506" type="curve" smooth="yes"/>
      <point x="277" y="506"/>
      <point x="305" y="500"/>
      <point x="330" y="488" type="curve"/>
      <point x="330" y="626" type="line" smooth="yes"/>
      <point x="330" y="649"/>
      <point x="348" y="668"/>
      <point x="371" y="668" type="curve" smooth="yes"/>
      <point x="448" y="668" type="line" smooth="yes"/>
      <point x="471" y="668"/>
      <point x="490" y="649"/>
      <point x="490" y="626" type="curve" smooth="yes"/>
      <point x="490" y="0" type="line" smooth="yes"/>
      <point x="490" y="-23"/>
      <point x="471" y="-42"/>
      <point x="448" y="-42" type="curve" smooth="yes"/>
      <point x="377" y="-42" type="line" smooth="yes"/>
      <point x="365" y="-42"/>
      <point x="354" y="-37"/>
      <point x="346" y="-29" type="curve"/>
      <point x="318" y="-44"/>
      <point x="287" y="-52"/>
      <point x="250" y="-52" type="curve" smooth="yes"/>
      <point x="206" y="-52"/>
      <point x="164" y="-40"/>
      <point x="127" y="-15" type="curve" smooth="yes"/>
      <point x="90" y="9"/>
      <point x="62" y="43"/>
      <point x="42" y="86" type="curve" smooth="yes"/>
      <point x="23" y="127"/>
      <point x="13" y="173"/>
    </contour>
    <contour>
      <point x="175" y="226" type="curve" smooth="yes"/>
      <point x="175" y="180"/>
      <point x="183" y="146"/>
      <point x="202" y="123" type="curve" smooth="yes"/>
      <point x="218" y="105"/>
      <point x="236" y="95"/>
      <point x="257" y="95" type="curve" smooth="yes"/>
      <point x="278" y="95"/>
      <point x="296" y="104"/>
      <point x="311" y="121" type="curve" smooth="yes"/>
      <point x="329" y="142"/>
      <point x="336" y="176"/>
      <point x="336" y="220" type="curve" smooth="yes"/>
      <point x="336" y="270"/>
      <point x="329" y="307"/>
      <point x="310" y="330" type="curve" smooth="yes"/>
      <point x="295" y="349"/>
      <point x="276" y="359"/>
      <point x="254" y="359" type="curve" smooth="yes"/>
      <point x="233" y="359"/>
      <point x="214" y="349"/>
      <point x="200" y="332" type="curve" smooth="yes"/>
      <point x="182" y="310"/>
      <point x="175" y="274"/>
    </contour>
  </outline>
</glyph>
<glyph name="f" format="2">
  <advance width="415"/>
  <unicode hex="0066"/>
  <outline>
    <contour>
      <point x="9" y="394" type="curve" smooth="yes"/>
      <point x="9" y="454" type="line" smooth="yes"/>
      <point x="9" y="477"/>
      <point x="28" y="495"/>
      <point x="51" y="495" type="curve" smooth="yes"/>
      <point x="77" y="495" type="line"/>
      <point x="77" y="502" type="line" smooth="yes"/>
      <point x="77" y="539"/>
      <point x="81" y="566"/>
      <point x="88" y="584" type="curve" smooth="yes"/>
      <point x="98" y="612"/>
      <point x="117" y="635"/>
      <point x="143" y="653" type="curve" smooth="yes"/>
      <point x="167" y="669"/>
      <point x="200" y="679"/>
      <point x="244" y="679" type="curve" smooth="yes"/>
      <point x="268" y="679"/>
      <point x="295" y="676"/>
      <point x="324" y="670" type="curve" smooth="yes"/>
      <point x="344" y="666"/>
      <point x="358" y="649"/>
      <point x="358" y="629" type="curve" smooth="yes"/>
      <point x="358" y="627"/>
      <point x="357" y="624"/>
      <point x="357" y="622" type="curve" smooth="yes"/>
      <point x="345" y="555" type="line" smooth="yes"/>
      <point x="343" y="544"/>
      <point x="337" y="534"/>
      <point x="328" y="528" type="curve" smooth="yes"/>
      <point x="321" y="523"/>
      <point x="313" y="521"/>
      <point x="304" y="521" type="curve" smooth="yes"/>
      <point x="297" y="521" type="line" smooth="yes"/>
      <point x="284" y="523"/>
      <point x="271" y="525"/>
      <point x="259" y="525" type="curve" smooth="yes"/>
      <point x="253" y="525"/>
      <point x="248" y="524"/>
      <point x="243" y="523" type="curve" smooth="yes"/>
      <point x="240" y="523" type="line" smooth="yes"/>
      <point x="239" y="520"/>
      <point x="237" y="507"/>
      <point x="237" y="496" type="curve" smooth="yes"/>
      <point x="237" y="495" type="line"/>
      <point x="283" y="495" type="line" smooth="yes"/>
      <point x="306" y="495"/>
      <point x="325" y="477"/>
      <point x="325" y="454" type="curve" smooth="yes"/>
      <point x="325" y="394" type="line" smooth="yes"/>
      <point x="325" y="371"/>
      <point x="306" y="352"/>
      <point x="283" y="352" type="curve" smooth="yes"/>
      <point x="237" y="352" type="line"/>
      <point x="237" y="0" type="line" smooth="yes"/>
      <point x="237" y="-23"/>
      <point x="218" y="-42"/>
      <point x="195" y="-42" type="curve" smooth="yes"/>
      <point x="119" y="-42" type="line" smooth="yes"/>
      <point x="96" y="-42"/>
      <point x="77" y="-23"/>
      <point x="77" y="0" type="curve" smooth="yes"/>
      <point x="77" y="352" type="line"/>
      <point x="51" y="352" type="line" smooth="yes"/>
      <point x="28" y="352"/>
      <point x="9" y="371"/>
    </contour>
  </outline>
</glyph>
<glyph name="h" format="2">
  <advance width="522"/>
  <unicode hex="0068"/>
  <outline>
    <contour>
      <point x="13" y="0" type="curve" smooth="yes"/>
      <point x="13" y="626" type="line" smooth="yes"/>
      <point x="13" y="649"/>
      <point x="31" y="668"/>
      <point x="54" y="668" type="curve" smooth="yes"/>
      <point x="131" y="668" type="line" smooth="yes"/>
      <point x="154" y="668"/>
      <point x="173" y="649"/>
      <point x="173" y="626" type="curve" smooth="yes"/>
      <point x="173" y="486" type="line"/>
      <point x="201" y="499"/>
      <point x="233" y="506"/>
      <point x="267" y="506" type="curve" smooth="yes"/>
      <point x="308" y="506"/>
      <point x="344" y="497"/>
      <point x="374" y="481" type="curve" smooth="yes"/>
      <point x="407" y="463"/>
      <point x="432" y="438"/>
      <point x="446" y="407" type="curve" smooth="yes"/>
      <point x="459" y="380"/>
      <point x="465" y="340"/>
      <point x="465" y="288" type="curve" smooth="yes"/>
      <point x="465" y="0" type="line" smooth="yes"/>
      <point x="465" y="-23"/>
      <point x="447" y="-42"/>
      <point x="424" y="-42" type="curve" smooth="yes"/>
      <point x="347" y="-42" type="line" smooth="yes"/>
      <point x="324" y="-42"/>
      <point x="305" y="-23"/>
      <point x="305" y="0" type="curve" smooth="yes"/>
      <point x="305" y="288" type="line" smooth="yes"/>
      <point x="305" y="313"/>
      <point x="303" y="332"/>
      <point x="292" y="343" type="curve" smooth="yes"/>
      <point x="283" y="353"/>
      <point x="268" y="356"/>
      <point x="251" y="356" type="curve" smooth="yes"/>
      <point x="236" y="356"/>
      <point x="221" y="352"/>
      <point x="208" y="344" type="curve" smooth="yes"/>
      <point x="196" y="337"/>
      <point x="187" y="328"/>
      <point x="182" y="316" type="curve" smooth="yes"/>
      <point x="175" y="300"/>
      <point x="173" y="277"/>
      <point x="173" y="248" type="curve" smooth="yes"/>
      <point x="173" y="0" type="line" smooth="yes"/>
      <point x="173" y="-23"/>
      <point x="154" y="-42"/>
      <point x="131" y="-42" type="curve" smooth="yes"/>
      <point x="54" y="-42" type="line" smooth="yes"/>
      <point x="31" y="-42"/>
      <point x="13" y="-23"/>
    </contour>
  </outline>
</glyph>
<glyph name="j" format="2">
  <advance width="235"/>
  <unicode hex="006A"/>
  <outline>
    <contour>
      <point x="-79" y="-176" type="curve" smooth="yes"/>
      <point x="-79" y="-173"/>
      <point x="-79" y="-170"/>
      <point x="-78" y="-167" type="curve" smooth="yes"/>
      <point x="-64" y="-102" type="line" smooth="yes"/>
      <point x="-62" y="-91"/>
      <point x="-55" y="-81"/>
      <point x="-45" y="-75" type="curve" smooth="yes"/>
      <point x="-38" y="-71"/>
      <point x="-31" y="-69"/>
      <point x="-23" y="-69" type="curve" smooth="yes"/>
      <point x="-20" y="-69"/>
      <point x="-16" y="-69"/>
      <point x="-13" y="-70" type="curve" smooth="yes"/>
      <point x="-2" y="-73"/>
      <point x="7" y="-75"/>
      <point x="13" y="-75" type="curve" smooth="yes"/>
      <point x="14" y="-75" type="line"/>
      <point x="15" y="-66"/>
      <point x="18" y="-44"/>
      <point x="18" y="-23" type="curve" smooth="yes"/>
      <point x="18" y="454" type="line" smooth="yes"/>
      <point x="18" y="477"/>
      <point x="36" y="495"/>
      <point x="59" y="495" type="curve"/>
      <point x="36" y="495"/>
      <point x="18" y="514"/>
      <point x="18" y="537" type="curve" smooth="yes"/>
      <point x="18" y="626" type="line" smooth="yes"/>
      <point x="18" y="649"/>
      <point x="37" y="668"/>
      <point x="60" y="668" type="curve" smooth="yes"/>
      <point x="137" y="668" type="line" smooth="yes"/>
      <point x="160" y="668"/>
      <point x="178" y="649"/>
      <point x="178" y="626" type="curve" smooth="yes"/>
      <point x="178" y="537" type="line" smooth="yes"/>
      <point x="178" y="514"/>
      <point x="161" y="495"/>
      <point x="138" y="495" type="curve"/>
      <point x="161" y="495"/>
      <point x="178" y="477"/>
      <point x="178" y="454" type="curve" smooth="yes"/>
      <point x="178" y="-25" type="line" smooth="yes"/>
      <point x="178" y="-92"/>
      <point x="167" y="-138"/>
      <point x="150" y="-164" type="curve" smooth="yes"/>
      <point x="124" y="-204"/>
      <point x="83" y="-226"/>
      <point x="23" y="-226" type="curve" smooth="yes"/>
      <point x="-2" y="-226"/>
      <point x="-26" y="-222"/>
      <point x="-49" y="-216" type="curve" smooth="yes"/>
      <point x="-67" y="-211"/>
      <point x="-79" y="-194"/>
    </contour>
  </outline>
</glyph>
<glyph name="l" format="2">
  <advance width="230"/>
  <unicode hex="006C"/>
  <outline>
    <contour>
      <point x="13" y="0" type="curve" smooth="yes"/>
      <point x="13" y="626" type="line" smooth="yes"/>
      <point x="13" y="649"/>
      <point x="31" y="668"/>
      <point x="54" y="668" type="curve" smooth="yes"/>
      <point x="131" y="668" type="line" smooth="yes"/>
      <point x="154" y="668"/>
      <point x="173" y="649"/>
      <point x="173" y="626" type="curve" smooth="yes"/>
      <point x="173" y="0" type="line" smooth="yes"/>
      <point x="173" y="-23"/>
      <point x="154" y="-42"/>
      <point x="131" y="-42" type="curve" smooth="yes"/>
      <point x="54" y="-42" type="line" smooth="yes"/>
      <point x="31" y="-42"/>
      <point x="13" y="-23"/>
    </contour>
  </outline>
</glyph>
<glyph name="m" format="2">
  <advance width="768"/>
  <unicode hex="006D"/>
  <outline>
    <contour>
      <point x="13" y="0" type="curve" smooth="yes"/>
      <point x="13" y="454" type="line" smooth="yes"/>
      <point x="13" y="477"/>
      <point x="31" y="495"/>
      <point x="54" y="495" type="curve" smooth="yes"/>
      <point x="123" y="495" type="line" smooth="yes"/>
      <point x="137" y="495"/>
      <point x="149" y="488"/>
      <point x="157" y="478" type="curve" smooth="yes"/>
      <point x="158" y="478"/>
      <point x="158" y="480"/>
      <point x="159" y="480" type="curve" smooth="yes"/>
      <point x="189" y="497"/>
      <point x="223" y="506"/>
      <point x="261" y="506" type="curve" smooth="yes"/>
      <point x="304" y="506"/>
      <point x="339" y="496"/>
      <point x="366" y="478" type="curve" smooth="yes"/>
      <point x="377" y="471"/>
      <point x="386" y="464"/>
      <point x="394" y="455" type="curve"/>
      <point x="432" y="489"/>
      <point x="477" y="506"/>
      <point x="529" y="506" type="curve" smooth="yes"/>
      <point x="587" y="506"/>
      <point x="632" y="488"/>
      <point x="663" y="456" type="curve" smooth="yes"/>
      <point x="693" y="425"/>
      <point x="711" y="376"/>
      <point x="711" y="311" type="curve" smooth="yes"/>
      <point x="711" y="0" type="line" smooth="yes"/>
      <point x="711" y="-23"/>
      <point x="692" y="-42"/>
      <point x="669" y="-42" type="curve" smooth="yes"/>
      <point x="593" y="-42" type="line" smooth="yes"/>
      <point x="570" y="-42"/>
      <point x="551" y="-23"/>
      <point x="551" y="0" type="curve" smooth="yes"/>
      <point x="551" y="286" type="line" smooth="yes"/>
      <point x="551" y="310"/>
      <point x="550" y="327"/>
      <point x="546" y="338" type="curve" smooth="yes"/>
      <point x="544" y="343"/>
      <point x="541" y="347"/>
      <point x="536" y="350" type="curve" smooth="yes"/>
      <point x="529" y="354"/>
      <point x="521" y="356"/>
      <point x="512" y="356" type="curve" smooth="yes"/>
      <point x="492" y="356"/>
      <point x="475" y="349"/>
      <point x="462" y="336" type="curve" smooth="yes"/>
      <point x="447" y="321"/>
      <point x="442" y="297"/>
      <point x="442" y="264" type="curve" smooth="yes"/>
      <point x="442" y="0" type="line" smooth="yes"/>
      <point x="442" y="-23"/>
      <point x="424" y="-42"/>
      <point x="401" y="-42" type="curve" smooth="yes"/>
      <point x="324" y="-42" type="line" smooth="yes"/>
      <point x="301" y="-42"/>
      <point x="282" y="-23"/>
      <point x="282" y="0" type="curve" smooth="yes"/>
      <point x="282" y="295" type="line" smooth="yes"/>
      <point x="282" y="318"/>
      <point x="279" y="335"/>
      <point x="271" y="347" type="curve" smooth="yes"/>
      <point x="266" y="354"/>
      <point x="255" y="356"/>
      <point x="243" y="356" type="curve" smooth="yes"/>
      <point x="229" y="356"/>
      <point x="217" y="352"/>
      <point x="205" y="345" type="curve" smooth="yes"/>
      <point x="194" y="338"/>
      <point x="187" y="329"/>
      <point x="182" y="316" type="curve" smooth="yes"/>
      <point x="175" y="297"/>
      <point x="173" y="270"/>
      <point x="173" y="235" type="curve" smooth="yes"/>
      <point x="173" y="0" type="line" smooth="yes"/>
      <point x="173" y="-23"/>
      <point x="154" y="-42"/>
      <point x="131" y="-42" type="curve" smooth="yes"/>
      <point x="54" y="-42" type="line" smooth="yes"/>
      <point x="31" y="-42"/>
      <point x="13" y="-23"/>
    </contour>
  </outline>
</glyph>
<glyph name="o" format="2">
  <advance width="571"/>
  <unicode hex="006F"/>
  <outline>
    <contour>
      <point x="13" y="227" type="curve" smooth="yes"/>
      <point x="13" y="326"/>
      <point x="42" y="398"/>
      <point x="97" y="445" type="curve" smooth="yes"/>
      <point x="143" y="485"/>
      <point x="200" y="506"/>
      <point x="267" y="506" type="curve" smooth="yes"/>
      <point x="342" y="506"/>
      <point x="403" y="481"/>
      <point x="450" y="432" type="curve" smooth="yes"/>
      <point x="496" y="384"/>
      <point x="521" y="318"/>
      <point x="521" y="233" type="curve" smooth="yes"/>
      <point x="521" y="166"/>
      <point x="510" y="114"/>
      <point x="490" y="76" type="curve" smooth="yes"/>
      <point x="469" y="35"/>
      <point x="438" y="4"/>
      <point x="397" y="-19" type="curve" smooth="yes"/>
      <point x="357" y="-41"/>
      <point x="314" y="-52"/>
      <point x="267" y="-52" type="curve" smooth="yes"/>
      <point x="191" y="-52"/>
      <point x="130" y="-27"/>
      <point x="83" y="22" type="curve" smooth="yes"/>
      <point x="37" y="70"/>
      <point x="13" y="138"/>
    </contour>
    <contour>
      <point x="175" y="227" type="curve" smooth="yes"/>
      <point x="175" y="181"/>
      <point x="183" y="147"/>
      <point x="203" y="124" type="curve" smooth="yes"/>
      <point x="220" y="105"/>
      <point x="241" y="95"/>
      <point x="267" y="95" type="curve" smooth="yes"/>
      <point x="293" y="95"/>
      <point x="314" y="105"/>
      <point x="331" y="124" type="curve" smooth="yes"/>
      <point x="351" y="147"/>
      <point x="359" y="182"/>
      <point x="359" y="229" type="curve" smooth="yes"/>
      <point x="359" y="273"/>
      <point x="351" y="306"/>
      <point x="331" y="329" type="curve" smooth="yes"/>
      <point x="314" y="348"/>
      <point x="292" y="359"/>
      <point x="267" y="359" type="curve" smooth="yes"/>
      <point x="241" y="359"/>
      <point x="220" y="349"/>
      <point x="203" y="330" type="curve" smooth="yes"/>
      <point x="183" y="307"/>
      <point x="175" y="273"/>
    </contour>
  </outline>
</glyph>
<glyph name="q" format="2">
  <advance width="546"/>
  <unicode hex="0071"/>
  <outline>
    <contour>
      <point x="13" y="231" type="curve" smooth="yes"/>
      <point x="13" y="283"/>
      <point x="22" y="329"/>
      <point x="40" y="370" type="curve" smooth="yes"/>
      <point x="59" y="415"/>
      <point x="88" y="448"/>
      <point x="125" y="471" type="curve" smooth="yes"/>
      <point x="162" y="494"/>
      <point x="202" y="506"/>
      <point x="246" y="506" type="curve" smooth="yes"/>
      <point x="284" y="506"/>
      <point x="317" y="497"/>
      <point x="346" y="480" type="curve"/>
      <point x="354" y="489"/>
      <point x="365" y="495"/>
      <point x="378" y="495" type="curve" smooth="yes"/>
      <point x="447" y="495" type="line" smooth="yes"/>
      <point x="470" y="495"/>
      <point x="489" y="477"/>
      <point x="489" y="454" type="curve" smooth="yes"/>
      <point x="489" y="-174" type="line" smooth="yes"/>
      <point x="489" y="-197"/>
      <point x="470" y="-216"/>
      <point x="447" y="-216" type="curve" smooth="yes"/>
      <point x="370" y="-216" type="line" smooth="yes"/>
      <point x="347" y="-216"/>
      <point x="329" y="-197"/>
      <point x="329" y="-174" type="curve" smooth="yes"/>
      <point x="329" y="-36" type="line"/>
      <point x="305" y="-47"/>
      <point x="279" y="-52"/>
      <point x="252" y="-52" type="curve" smooth="yes"/>
      <point x="186" y="-52"/>
      <point x="129" y="-26"/>
      <point x="82" y="26" type="curve" smooth="yes"/>
      <point x="37" y="76"/>
      <point x="13" y="144"/>
    </contour>
    <contour>
      <point x="175" y="228" type="curve" smooth="yes"/>
      <point x="175" y="182"/>
      <point x="183" y="147"/>
      <point x="202" y="124" type="curve" smooth="yes"/>
      <point x="218" y="105"/>
      <point x="236" y="95"/>
      <point x="258" y="95" type="curve" smooth="yes"/>
      <point x="279" y="95"/>
      <point x="296" y="105"/>
      <point x="311" y="122" type="curve" smooth="yes"/>
      <point x="329" y="144"/>
      <point x="336" y="177"/>
      <point x="336" y="221" type="curve" smooth="yes"/>
      <point x="336" y="269"/>
      <point x="328" y="307"/>
      <point x="308" y="331" type="curve" smooth="yes"/>
      <point x="292" y="350"/>
      <point x="275" y="362"/>
      <point x="253" y="362" type="curve" smooth="yes"/>
      <point x="232" y="362"/>
      <point x="214" y="352"/>
      <point x="200" y="334" type="curve" smooth="yes"/>
      <point x="182" y="311"/>
      <point x="175" y="276"/>
    </contour>
  </outline>
</glyph>
<glyph name="r" format="2">
  <advance width="400"/>
  <unicode hex="0072"/>
  <outline>
    <contour>
      <point x="13" y="0" type="curve" smooth="yes"/>
      <point x="13" y="454" type="line" smooth="yes"/>
      <point x="13" y="477"/>
      <point x="31" y="495"/>
      <point x="54" y="495" type="curve" smooth="yes"/>
      <point x="124" y="495" type="line" smooth="yes"/>
      <point x="135" y="495"/>
      <point x="144" y="492"/>
      <point x="151" y="485" type="curve"/>
      <point x="172" y="499"/>
      <point x="197" y="506"/>
      <point x="222" y="506" type="curve" smooth="yes"/>
      <point x="255" y="506"/>
      <point x="289" y="496"/>
      <point x="323" y="475" type="curve" smooth="yes"/>
      <point x="336" y="468"/>
      <point x="343" y="454"/>
      <point x="343" y="440" type="curve" smooth="yes"/>
      <point x="343" y="435"/>
      <point x="342" y="430"/>
      <point x="340" y="425" type="curve" smooth="yes"/>
      <point x="313" y="353" type="line" smooth="yes"/>
      <point x="309" y="341"/>
      <point x="300" y="333"/>
      <point x="288" y="329" type="curve" smooth="yes"/>
      <point x="283" y="327"/>
      <point x="279" y="327"/>
      <point x="274" y="327" type="curve" smooth="yes"/>
      <point x="267" y="327"/>
      <point x="260" y="328"/>
      <point x="253" y="332" type="curve" smooth="yes"/>
      <point x="241" y="339"/>
      <point x="230" y="343"/>
      <point x="218" y="343" type="curve" smooth="yes"/>
      <point x="211" y="343"/>
      <point x="204" y="341"/>
      <point x="198" y="336" type="curve" smooth="yes"/>
      <point x="191" y="331"/>
      <point x="187" y="324"/>
      <point x="184" y="315" type="curve" smooth="yes"/>
      <point x="177" y="291"/>
      <point x="173" y="266"/>
      <point x="173" y="238" type="curve" smooth="yes"/>
      <point x="173" y="0" type="line" smooth="yes"/>
      <point x="173" y="-23"/>
      <point x="154" y="-42"/>
      <point x="131" y="-42" type="curve" smooth="yes"/>
      <point x="54" y="-42" type="line" smooth="yes"/>
      <point x="31" y="-42"/>
      <point x="13" y="-23"/>
    </contour>
  </outline>
</glyph>
<glyph name="s" format="2">
  <advance width="528"/>
  <unicode hex="0073"/>
  <outline>
    <contour>
      <point x="13" y="128" type="curve"/>
      <point x="13" y="135" type="line" smooth="yes"/>
      <point x="13" y="144"/>
      <point x="15" y="153"/>
      <point x="20" y="160" type="curve" smooth="yes"/>
      <point x="26" y="169"/>
      <point x="37" y="175"/>
      <point x="48" y="177" type="curve" smooth="yes"/>
      <point x="123" y="188" type="line"/>
      <point x="120" y="189"/>
      <point x="118" y="191"/>
      <point x="116" y="192" type="curve" smooth="yes"/>
      <point x="86" y="206"/>
      <point x="64" y="226"/>
      <point x="49" y="251" type="curve" smooth="yes"/>
      <point x="34" y="276"/>
      <point x="26" y="303"/>
      <point x="26" y="333" type="curve" smooth="yes"/>
      <point x="26" y="360"/>
      <point x="31" y="386"/>
      <point x="44" y="409" type="curve" smooth="yes"/>
      <point x="56" y="432"/>
      <point x="73" y="451"/>
      <point x="94" y="466" type="curve" smooth="yes"/>
      <point x="109" y="477"/>
      <point x="130" y="487"/>
      <point x="156" y="495" type="curve" smooth="yes"/>
      <point x="180" y="502"/>
      <point x="206" y="506"/>
      <point x="234" y="506" type="curve" smooth="yes"/>
      <point x="275" y="506"/>
      <point x="312" y="500"/>
      <point x="343" y="488" type="curve" smooth="yes"/>
      <point x="379" y="474"/>
      <point x="404" y="455"/>
      <point x="421" y="432" type="curve" smooth="yes"/>
      <point x="437" y="410"/>
      <point x="449" y="380"/>
      <point x="455" y="343" type="curve" smooth="yes"/>
      <point x="455" y="341"/>
      <point x="456" y="339"/>
      <point x="456" y="337" type="curve" smooth="yes"/>
      <point x="456" y="328"/>
      <point x="453" y="319"/>
      <point x="448" y="312" type="curve" smooth="yes"/>
      <point x="441" y="303"/>
      <point x="431" y="297"/>
      <point x="420" y="295" type="curve" smooth="yes"/>
      <point x="356" y="287" type="line"/>
      <point x="365" y="284"/>
      <point x="373" y="281"/>
      <point x="379" y="278" type="curve" smooth="yes"/>
      <point x="408" y="265"/>
      <point x="430" y="247"/>
      <point x="447" y="223" type="curve" smooth="yes"/>
      <point x="464" y="199"/>
      <point x="473" y="169"/>
      <point x="473" y="133" type="curve" smooth="yes"/>
      <point x="473" y="99"/>
      <point x="464" y="68"/>
      <point x="444" y="38" type="curve" smooth="yes"/>
      <point x="425" y="9"/>
      <point x="397" y="-14"/>
      <point x="361" y="-30" type="curve" smooth="yes"/>
      <point x="328" y="-45"/>
      <point x="290" y="-52"/>
      <point x="248" y="-52" type="curve" smooth="yes"/>
      <point x="177" y="-52"/>
      <point x="125" y="-35"/>
      <point x="88" y="-6" type="curve" smooth="yes"/>
      <point x="50" y="24"/>
      <point x="24" y="68"/>
    </contour>
    <contour>
      <point x="163" y="174" type="curve"/>
      <point x="168" y="168"/>
      <point x="171" y="161"/>
      <point x="172" y="153" type="curve" smooth="yes"/>
      <point x="175" y="134"/>
      <point x="181" y="119"/>
      <point x="193" y="109" type="curve" smooth="yes"/>
      <point x="206" y="98"/>
      <point x="225" y="95"/>
      <point x="248" y="95" type="curve" smooth="yes"/>
      <point x="271" y="95"/>
      <point x="289" y="97"/>
      <point x="300" y="106" type="curve" smooth="yes"/>
      <point x="307" y="111"/>
      <point x="311" y="118"/>
      <point x="311" y="125" type="curve" smooth="yes"/>
      <point x="311" y="128"/>
      <point x="309" y="129"/>
      <point x="307" y="131" type="curve" smooth="yes"/>
      <point x="298" y="137"/>
      <point x="276" y="143"/>
      <point x="241" y="152" type="curve" smooth="yes"/>
      <point x="210" y="160"/>
      <point x="184" y="167"/>
    </contour>
    <contour>
      <point x="183" y="342" type="curve" smooth="yes"/>
      <point x="184" y="341" type="line"/>
      <point x="184" y="340" type="line" smooth="yes"/>
      <point x="186" y="337"/>
      <point x="191" y="336"/>
      <point x="196" y="334" type="curve" smooth="yes"/>
      <point x="204" y="331"/>
      <point x="224" y="324"/>
      <point x="259" y="315" type="curve" smooth="yes"/>
      <point x="276" y="311"/>
      <point x="291" y="307"/>
      <point x="305" y="303" type="curve"/>
      <point x="301" y="308"/>
      <point x="299" y="313"/>
      <point x="298" y="320" type="curve" smooth="yes"/>
      <point x="296" y="332"/>
      <point x="291" y="342"/>
      <point x="283" y="349" type="curve" smooth="yes"/>
      <point x="273" y="357"/>
      <point x="259" y="359"/>
      <point x="240" y="359" type="curve" smooth="yes"/>
      <point x="217" y="359"/>
      <point x="200" y="358"/>
      <point x="190" y="350" type="curve" smooth="yes"/>
      <point x="187" y="347"/>
      <point x="183" y="345"/>
    </contour>
  </outline>
</glyph>
<glyph name="t" format="2">
  <advance width="375"/>
  <unicode hex="0074"/>
  <outline>
    <contour>
      <point x="13" y="394" type="curve" smooth="yes"/>
      <point x="13" y="454" type="line" smooth="yes"/>
      <point x="13" y="477"/>
      <point x="32" y="495"/>
      <point x="55" y="495" type="curve" smooth="yes"/>
      <point x="70" y="495" type="line"/>
      <point x="70" y="566" type="line" smooth="yes"/>
      <point x="70" y="581"/>
      <point x="77" y="594"/>
      <point x="90" y="602" type="curve" smooth="yes"/>
      <point x="166" y="648" type="line" smooth="yes"/>
      <point x="173" y="652"/>
      <point x="181" y="654"/>
      <point x="188" y="654" type="curve" smooth="yes"/>
      <point x="195" y="654"/>
      <point x="202" y="653"/>
      <point x="208" y="649" type="curve" smooth="yes"/>
      <point x="221" y="642"/>
      <point x="229" y="627"/>
      <point x="229" y="612" type="curve" smooth="yes"/>
      <point x="229" y="495" type="line"/>
      <point x="265" y="495" type="line" smooth="yes"/>
      <point x="288" y="495"/>
      <point x="307" y="477"/>
      <point x="307" y="454" type="curve" smooth="yes"/>
      <point x="307" y="394" type="line" smooth="yes"/>
      <point x="307" y="371"/>
      <point x="288" y="352"/>
      <point x="265" y="352" type="curve" smooth="yes"/>
      <point x="229" y="352" type="line"/>
      <point x="229" y="129" type="line" smooth="yes"/>
      <point x="229" y="122"/>
      <point x="230" y="113"/>
      <point x="230" y="107" type="curve"/>
      <point x="231" y="107" type="line" smooth="yes"/>
      <point x="238" y="107"/>
      <point x="247" y="108"/>
      <point x="259" y="110" type="curve" smooth="yes"/>
      <point x="265" y="110" type="line" smooth="yes"/>
      <point x="285" y="110"/>
      <point x="303" y="96"/>
      <point x="306" y="76" type="curve" smooth="yes"/>
      <point x="317" y="8" type="line" smooth="yes"/>
      <point x="317" y="6"/>
      <point x="318" y="3"/>
      <point x="318" y="1" type="curve" smooth="yes"/>
      <point x="318" y="-18"/>
      <point x="305" y="-36"/>
      <point x="285" y="-40" type="curve" smooth="yes"/>
      <point x="260" y="-45"/>
      <point x="238" y="-48"/>
      <point x="218" y="-48" type="curve" smooth="yes"/>
      <point x="181" y="-48"/>
      <point x="152" y="-41"/>
      <point x="132" y="-29" type="curve" smooth="yes"/>
      <point x="108" y="-15"/>
      <point x="92" y="3"/>
      <point x="82" y="25" type="curve" smooth="yes"/>
      <point x="75" y="42"/>
      <point x="70" y="78"/>
      <point x="70" y="133" type="curve" smooth="yes"/>
      <point x="70" y="352" type="line"/>
      <point x="55" y="352" type="line" smooth="yes"/>
      <point x="32" y="352"/>
      <point x="13" y="371"/>
    </contour>
  </outline>
</glyph>
<glyph name="v" format="2">
  <advance width="562"/>
  <unicode hex="0076"/>
  <outline>
    <contour>
      <point x="13" y="454" type="curve" smooth="yes"/>
      <point x="13" y="462"/>
      <point x="15" y="470"/>
      <point x="20" y="477" type="curve" smooth="yes"/>
      <point x="28" y="488"/>
      <point x="41" y="495"/>
      <point x="55" y="495" type="curve" smooth="yes"/>
      <point x="136" y="495" type="line" smooth="yes"/>
      <point x="154" y="495"/>
      <point x="169" y="485"/>
      <point x="175" y="468" type="curve" smooth="yes"/>
      <point x="263" y="222" type="line"/>
      <point x="353" y="468" type="line" smooth="yes"/>
      <point x="359" y="484"/>
      <point x="374" y="495"/>
      <point x="392" y="495" type="curve" smooth="yes"/>
      <point x="471" y="495" type="line" smooth="yes"/>
      <point x="485" y="495"/>
      <point x="497" y="488"/>
      <point x="505" y="477" type="curve" smooth="yes"/>
      <point x="510" y="470"/>
      <point x="512" y="462"/>
      <point x="512" y="454" type="curve" smooth="yes"/>
      <point x="512" y="449"/>
      <point x="512" y="444"/>
      <point x="510" y="439" type="curve" smooth="yes"/>
      <point x="338" y="-15" type="line" smooth="yes"/>
      <point x="332" y="-31"/>
      <point x="316" y="-42"/>
      <point x="299" y="-42" type="curve" smooth="yes"/>
      <point x="227" y="-42" type="line" smooth="yes"/>
      <point x="210" y="-42"/>
      <point x="194" y="-31"/>
      <point x="188" y="-15" type="curve" smooth="yes"/>
      <point x="16" y="439" type="line" smooth="yes"/>
      <point x="14" y="444"/>
      <point x="13" y="449"/>
    </contour>
  </outline>
</glyph>
<glyph name="w" format="2">
  <advance width="772"/>
  <unicode hex="0077"/>
  <outline>
    <contour>
      <point x="13" y="454" type="curve" smooth="yes"/>
      <point x="13" y="463"/>
      <point x="17" y="472"/>
      <point x="22" y="479" type="curve" smooth="yes"/>
      <point x="30" y="490"/>
      <point x="42" y="495"/>
      <point x="55" y="495" type="curve" smooth="yes"/>
      <point x="135" y="495" type="line" smooth="yes"/>
      <point x="154" y="495"/>
      <point x="170" y="483"/>
      <point x="175" y="465" type="curve" smooth="yes"/>
      <point x="232" y="256" type="line"/>
      <point x="289" y="465" type="line" smooth="yes"/>
      <point x="294" y="483"/>
      <point x="310" y="495"/>
      <point x="329" y="495" type="curve" smooth="yes"/>
      <point x="408" y="495" type="line" smooth="yes"/>
      <point x="427" y="495"/>
      <point x="444" y="482"/>
      <point x="449" y="464" type="curve" smooth="yes"/>
      <point x="502" y="259" type="line"/>
      <point x="563" y="466" type="line" smooth="yes"/>
      <point x="568" y="484"/>
      <point x="585" y="495"/>
      <point x="603" y="495" type="curve" smooth="yes"/>
      <point x="678" y="495" type="line" smooth="yes"/>
      <point x="691" y="495"/>
      <point x="703" y="489"/>
      <point x="711" y="478" type="curve" smooth="yes"/>
      <point x="716" y="471"/>
      <point x="719" y="463"/>
      <point x="719" y="454" type="curve" smooth="yes"/>
      <point x="719" y="450"/>
      <point x="718" y="445"/>
      <point x="717" y="441" type="curve" smooth="yes"/>
      <point x="575" y="-12" type="line" smooth="yes"/>
      <point x="570" y="-29"/>
      <point x="554" y="-42"/>
      <point x="536" y="-42" type="curve" smooth="yes"/>
      <point x="456" y="-42" type="line" smooth="yes"/>
      <point x="437" y="-42"/>
      <point x="421" y="-29"/>
      <point x="416" y="-11" type="curve" smooth="yes"/>
      <point x="365" y="180" type="line"/>
      <point x="315" y="-11" type="line" smooth="yes"/>
      <point x="310" y="-29"/>
      <point x="293" y="-42"/>
      <point x="274" y="-42" type="curve" smooth="yes"/>
      <point x="194" y="-42" type="line" smooth="yes"/>
      <point x="176" y="-42"/>
      <point x="159" y="-30"/>
      <point x="154" y="-12" type="curve" smooth="yes"/>
      <point x="15" y="442" type="line" smooth="yes"/>
      <point x="14" y="446"/>
      <point x="13" y="450"/>
    </contour>
  </outline>
</glyph>
<glyph name="x" format="2">
  <advance width="561"/>
  <unicode hex="0078"/>
  <outline>
    <contour>
      <point x="13" y="0" type="curve" smooth="yes"/>
      <point x="13" y="8"/>
      <point x="16" y="17"/>
      <point x="21" y="24" type="curve" smooth="yes"/>
      <point x="170" y="236" type="line"/>
      <point x="33" y="430" type="line" smooth="yes"/>
      <point x="28" y="437"/>
      <point x="26" y="446"/>
      <point x="26" y="454" type="curve" smooth="yes"/>
      <point x="26" y="461"/>
      <point x="27" y="467"/>
      <point x="30" y="473" type="curve" smooth="yes"/>
      <point x="37" y="487"/>
      <point x="51" y="495"/>
      <point x="67" y="495" type="curve" smooth="yes"/>
      <point x="163" y="495" type="line" smooth="yes"/>
      <point x="177" y="495"/>
      <point x="190" y="489"/>
      <point x="198" y="477" type="curve" smooth="yes"/>
      <point x="267" y="372" type="line"/>
      <point x="342" y="478" type="line" smooth="yes"/>
      <point x="350" y="489"/>
      <point x="363" y="495"/>
      <point x="376" y="495" type="curve" smooth="yes"/>
      <point x="468" y="495" type="line" smooth="yes"/>
      <point x="484" y="495"/>
      <point x="498" y="487"/>
      <point x="505" y="473" type="curve" smooth="yes"/>
      <point x="508" y="467"/>
      <point x="509" y="460"/>
      <point x="509" y="454" type="curve" smooth="yes"/>
      <point x="509" y="445"/>
      <point x="506" y="436"/>
      <point x="501" y="429" type="curve" smooth="yes"/>
      <point x="362" y="240" type="line"/>
      <point x="514" y="24" type="line" smooth="yes"/>
      <point x="519" y="17"/>
      <point x="521" y="8"/>
      <point x="521" y="0" type="curve" smooth="yes"/>
      <point x="521" y="-7"/>
      <point x="520" y="-13"/>
      <point x="517" y="-19" type="curve" smooth="yes"/>
      <point x="510" y="-33"/>
      <point x="496" y="-42"/>
      <point x="480" y="-42" type="curve" smooth="yes"/>
      <point x="385" y="-42" type="line" smooth="yes"/>
      <point x="371" y="-42"/>
      <point x="358" y="-35"/>
      <point x="350" y="-23" type="curve" smooth="yes"/>
      <point x="267" y="103" type="line"/>
      <point x="183" y="-23" type="line" smooth="yes"/>
      <point x="175" y="-35"/>
      <point x="162" y="-42"/>
      <point x="148" y="-42" type="curve" smooth="yes"/>
      <point x="55" y="-42" type="line" smooth="yes"/>
      <point x="39" y="-42"/>
      <point x="25" y="-33"/>
      <point x="18" y="-19" type="curve" smooth="yes"/>
      <point x="15" y="-13"/>
      <point x="13" y="-7"/>
    </contour>
  </outline>
</glyph>
<glyph name="braceleft" format="2">
  <advance width="412"/>
  <unicode hex="007B"/>
  <outline>
    <contour>
      <point x="23" y="282" type="curve" smooth="yes"/>
      <point x="23" y="351" type="line" smooth="yes"/>
      <point x="23" y="374"/>
      <point x="40" y="392"/>
      <point x="63" y="393" type="curve" smooth="yes"/>
      <point x="74" y="393"/>
      <point x="85" y="396"/>
      <point x="92" y="402" type="curve" smooth="yes"/>
      <point x="99" y="408"/>
      <point x="103" y="415"/>
      <point x="105" y="425" type="curve" smooth="yes"/>
      <point x="109" y="443"/>
      <point x="111" y="474"/>
      <point x="111" y="517" type="curve" smooth="yes"/>
      <point x="111" y="566"/>
      <point x="113" y="598"/>
      <point x="114" y="614" type="curve" smooth="yes"/>
      <point x="114" y="615" type="line" smooth="yes"/>
      <point x="117" y="645"/>
      <point x="123" y="668"/>
      <point x="132" y="686" type="curve" smooth="yes"/>
      <point x="142" y="706"/>
      <point x="155" y="723"/>
      <point x="169" y="735" type="curve" smooth="yes"/>
      <point x="183" y="747"/>
      <point x="201" y="757"/>
      <point x="223" y="763" type="curve"/>
      <point x="224" y="763" type="line" smooth="yes"/>
      <point x="237" y="766"/>
      <point x="259" y="769"/>
      <point x="288" y="769" type="curve" smooth="yes"/>
      <point x="312" y="769" type="line" smooth="yes"/>
      <point x="335" y="769"/>
      <point x="353" y="750"/>
      <point x="353" y="727" type="curve" smooth="yes"/>
      <point x="353" y="660" type="line" smooth="yes"/>
      <point x="353" y="637"/>
      <point x="335" y="618"/>
      <point x="312" y="618" type="curve" smooth="yes"/>
      <point x="298" y="618" type="line" smooth="yes"/>
      <point x="288" y="618"/>
      <point x="276" y="616"/>
      <point x="271" y="615" type="curve"/>
      <point x="270" y="608"/>
      <point x="267" y="589"/>
      <point x="267" y="572" type="curve" smooth="yes"/>
      <point x="267" y="517"/>
      <point x="266" y="478"/>
      <point x="264" y="452" type="curve" smooth="yes"/>
      <point x="263" y="440"/>
      <point x="262" y="430"/>
      <point x="261" y="424" type="curve" smooth="yes"/>
      <point x="255" y="386"/>
      <point x="243" y="356"/>
      <point x="227" y="335" type="curve" smooth="yes"/>
      <point x="222" y="329"/>
      <point x="217" y="323"/>
      <point x="211" y="317" type="curve"/>
      <point x="223" y="305"/>
      <point x="233" y="291"/>
      <point x="241" y="276" type="curve" smooth="yes"/>
      <point x="254" y="251"/>
      <point x="263" y="212"/>
      <point x="266" y="160" type="curve" smooth="yes"/>
      <point x="266" y="157" type="line"/>
      <point x="266" y="150" type="line"/>
      <point x="266" y="144" type="line"/>
      <point x="267" y="137" type="line"/>
      <point x="267" y="131" type="line"/>
      <point x="267" y="124" type="line" smooth="yes"/>
      <point x="267" y="81"/>
      <point x="267" y="52"/>
      <point x="268" y="37" type="curve" smooth="yes"/>
      <point x="268" y="30" type="line" smooth="yes"/>
      <point x="269" y="26"/>
      <point x="270" y="20"/>
      <point x="271" y="17" type="curve" smooth="yes"/>
      <point x="276" y="16"/>
      <point x="288" y="15"/>
      <point x="298" y="15" type="curve" smooth="yes"/>
      <point x="312" y="15" type="line" smooth="yes"/>
      <point x="335" y="15"/>
      <point x="353" y="-4"/>
      <point x="353" y="-27" type="curve" smooth="yes"/>
      <point x="353" y="-94" type="line" smooth="yes"/>
      <point x="353" y="-117"/>
      <point x="335" y="-136"/>
      <point x="312" y="-136" type="curve" smooth="yes"/>
      <point x="288" y="-136" type="line" smooth="yes"/>
      <point x="253" y="-136"/>
      <point x="228" y="-133"/>
      <point x="213" y="-127" type="curve" smooth="yes"/>
      <point x="187" y="-118"/>
      <point x="167" y="-103"/>
      <point x="150" y="-82" type="curve" smooth="yes"/>
      <point x="134" y="-62"/>
      <point x="122" y="-37"/>
      <point x="117" y="-6" type="curve" smooth="yes"/>
      <point x="113" y="18"/>
      <point x="111" y="57"/>
      <point x="111" y="111" type="curve" smooth="yes"/>
      <point x="111" y="158"/>
      <point x="109" y="190"/>
      <point x="105" y="208" type="curve" smooth="yes"/>
      <point x="103" y="218"/>
      <point x="98" y="226"/>
      <point x="91" y="232" type="curve" smooth="yes"/>
      <point x="84" y="238"/>
      <point x="74" y="240"/>
      <point x="63" y="240" type="curve" smooth="yes"/>
      <point x="40" y="241"/>
      <point x="23" y="259"/>
    </contour>
  </outline>
</glyph>
<glyph name="bar" format="2">
  <advance width="236"/>
  <unicode hex="007C"/>
  <outline>
    <contour>
      <point x="13" y="-108" type="curve" smooth="yes"/>
      <point x="13" y="713" type="line" smooth="yes"/>
      <point x="13" y="736"/>
      <point x="31" y="755"/>
      <point x="54" y="755" type="curve" smooth="yes"/>
      <point x="121" y="755" type="line" smooth="yes"/>
      <point x="144" y="755"/>
      <point x="163" y="736"/>
      <point x="163" y="713" type="curve" smooth="yes"/>
      <point x="163" y="-108" type="line" smooth="yes"/>
      <point x="163" y="-131"/>
      <point x="144" y="-150"/>
      <point x="121" y="-150" type="curve" smooth="yes"/>
      <point x="54" y="-150" type="line" smooth="yes"/>
      <point x="31" y="-150"/>
      <point x="13" y="-131"/>
    </contour>
  </outline>
</glyph>
